<svg width="30" height="38" viewBox="0 0 30 38" fill="none" xmlns="http://www.w3.org/2000/svg">
<g clip-path="url(#clip0_794_681)">
<path d="M25.3213 19.8139C25.3703 25.1741 29.9495 26.9578 30.0002 26.9805C29.9614 27.1062 29.2685 29.5224 27.5877 32.018C26.1347 34.1757 24.6266 36.3254 22.251 36.3699C19.9169 36.4137 19.1662 34.9637 16.4975 34.9637C13.8296 34.9637 12.9957 36.3254 10.786 36.4137C8.49297 36.5019 6.7468 34.0805 5.28183 31.9307C2.28802 27.5334 0.000189296 19.5048 3.07217 14.0853C4.59824 11.394 7.32561 9.68983 10.2857 9.64612C12.5374 9.60252 14.6628 11.1852 16.0393 11.1852C17.4149 11.1852 19.9976 9.2819 22.7128 9.5614C23.8493 9.60951 27.0401 10.0278 29.0889 13.0747C28.9236 13.1787 25.2817 15.3328 25.3213 19.814M20.9345 6.65217C22.152 5.15497 22.9713 3.07083 22.7477 0.996948C20.9929 1.0686 18.8711 2.18502 17.6123 3.68132C16.4843 5.00649 15.4965 7.12735 15.7631 9.16012C17.719 9.3139 19.717 8.15027 20.9345 6.65217Z" fill="white"/>
</g>
<defs>
<clipPath id="clip0_794_681">
<rect width="30" height="37.5" fill="white"/>
</clipPath>
</defs>
</svg>
