<svg width="44" height="44" viewBox="0 0 44 44" fill="none" xmlns="http://www.w3.org/2000/svg">
<g clip-path="url(#clip0_794_707)">
<path d="M21.75 0C27.5596 1.12097e-05 33.0218 2.26204 37.1299 6.37012C41.2379 10.4782 43.5 15.9405 43.5 21.75C43.5 27.5596 41.2379 33.0218 37.1299 37.1299C33.0217 41.2379 27.5596 43.5 21.75 43.5C15.9405 43.5 10.4782 41.2379 6.37012 37.1299C2.26204 33.0218 1.12095e-05 27.5596 0 21.75C0 9.75699 9.75699 0 21.75 0ZM21.75 0.75293C16.1415 0.75293 10.8683 2.9373 6.90234 6.90332C2.9367 10.8692 0.752975 16.1418 0.75293 21.75C0.75293 27.3585 2.93648 32.6316 6.90234 36.5977C10.8683 40.5636 16.1415 42.748 21.75 42.748C33.328 42.748 42.7471 33.3281 42.7471 21.75C42.747 16.1417 40.5633 10.8692 36.5977 6.90332C32.6318 2.9373 27.3585 0.752934 21.75 0.75293Z" fill="white"/>
<path d="M21.7495 8.88892C28.8516 8.88892 34.6099 14.6472 34.6099 21.7493C34.6097 28.8513 28.8516 34.6086 21.7495 34.6086C14.6477 34.6085 8.89032 28.8512 8.89014 21.7493C8.89014 14.6473 14.6476 8.88909 21.7495 8.88892ZM21.7495 33.7815C28.3947 33.7815 33.7827 28.3945 33.7827 21.7493H21.7495V33.7815ZM21.7495 9.71704C15.1045 9.71728 9.71729 15.1043 9.71729 21.7493H21.7495V9.71704Z" fill="white"/>
<path d="M12.2997 9.48031C11.8734 9.066 11.2145 8.94112 10.5959 9.32464C10.714 9.01844 10.6658 8.70596 10.603 8.53353C10.3366 8.04757 10.2435 7.98675 10.0239 7.80245C9.31289 7.20585 8.56462 7.71519 8.02945 8.35298L5.44373 11.4344L9.50844 14.8452L12.2353 11.5956C12.8583 10.8531 12.9547 10.117 12.2997 9.48031ZM22.4235 8.01607L23.8195 4.3161V8.01607H24.8804V2.71704H23.2864L21.8365 6.51107H21.8515L20.4017 2.71704H18.8078V8.01607H19.8686V4.3161L21.2646 8.01607H22.4235ZM36.6873 10.2206L34.6899 13.0485L37.7864 11.5784L38.6063 12.5909L33.7324 14.9535L32.7702 13.7557L34.6872 10.9526L34.6759 10.9385L31.5355 12.2309L30.5638 11.0406L33.8882 6.76448L34.7081 7.77697L32.6263 10.5002L35.8077 9.13441L36.6873 10.2206Z" fill="white"/>
<path d="M8.59434 9.1147C8.77427 8.90021 9.18091 8.90902 9.44243 9.1284C9.72995 9.36968 9.73065 9.71174 9.53754 9.94176L8.00201 11.7717L7.04126 10.9655L8.59434 9.1147ZM11.3264 11.2735L9.70744 13.2028L8.69224 12.351L10.3243 10.4059C10.5086 10.1863 10.9195 10.1223 11.1966 10.3549C11.5103 10.618 11.5414 11.0173 11.3264 11.2735Z" fill="black" fill-opacity="0.9"/>
</g>
<defs>
<clipPath id="clip0_794_707">
<rect width="43.5" height="43.5" fill="white"/>
</clipPath>
</defs>
</svg>
