<svg width="105" height="33" viewBox="0 0 105 33" fill="none" xmlns="http://www.w3.org/2000/svg">
<g clip-path="url(#clip0_794_686)">
<path d="M54.6666 9.17802H51.6256L49.9105 11.9651H52.95L54.6666 9.17802ZM62.5553 16.5114C60.9623 16.6434 58.1477 18.0716 56.6148 21.1922C55.0818 24.3128 55.0762 26.2392 55.0762 26.2392C55.0762 26.2392 55.8847 25.3509 57.1241 24.4209C58.3634 23.4908 59.2859 23.1604 59.2859 23.1604C59.2859 23.1604 59.5158 22.0147 60.0882 20.8164C60.6448 19.6508 61.5281 18.4372 62.621 18.1619C64.8362 17.603 63.7754 21.6552 62.1483 24.2975C61.2737 25.7175 58.1716 29.7988 55.501 29.7988C52.8304 29.7988 52.315 27.2182 52.8783 24.8053C53.441 22.393 54.2199 19.328 58.1162 13.7589C62.0124 8.18984 66.2298 4.88826 68.6709 3.50083C71.1782 2.07669 72.1998 2.70081 72.1998 2.70081C72.1998 2.70081 68.9991 4.67666 67.1781 7.05379C65.4371 9.32589 64.3981 11.8825 65.2061 13.1353C65.9754 14.329 68.6872 14.3514 71.6732 10.0306C74.6206 5.76529 73.8763 3.22906 73.8763 3.22906C73.8763 3.22906 74.2324 3.1128 74.4716 3.08068C75.9089 2.88896 77.0603 3.26883 78.843 4.18512C80.7108 5.14525 82.5027 6.68514 84.9581 7.94509C85.6974 7.13334 86.5201 6.2711 87.3855 5.42977C84.0754 3.81493 81.5625 1.51326 78.3159 1.29247C75.4901 1.10075 73.2622 2.13278 73.2622 2.13278C73.2622 2.13278 72.4003 0.956451 69.7414 1.3404C67.0825 1.72486 58.8906 5.15749 51.9207 16.3436C45.6189 26.4574 48.5882 32.2534 53.1179 32.1871C58.0282 32.1147 62.6993 26.642 64.2801 22.1289C65.8609 17.6158 63.9926 16.3926 62.5553 16.5114ZM72.1948 7.11345C71.3695 9.12958 70.1545 10.5384 68.9589 11.6143C67.4254 12.9946 66.5839 12.9482 66.2196 12.6708C65.2682 11.9447 66.5447 9.20658 68.7605 6.75805C70.9671 4.31922 72.8669 3.56049 72.8669 3.56049C72.8669 3.58905 73.1828 4.69603 72.1948 7.11345ZM99.5383 4.17339C97.2915 5.622 94.1763 6.93397 91.1861 6.64486C90.4301 7.43163 89.6191 8.33822 88.8055 9.32997C93.9951 10.3559 98.5345 7.13385 100.951 4.38857C102.459 2.67684 103.203 1.14868 103.203 1.14868C103.203 1.14868 101.764 2.73854 99.5383 4.17339Z" fill="#F9F2EC"/>
<path d="M97.0834 16.8848H93.8857L93.3662 17.6894C93.3662 17.6894 92.714 16.51 91.6094 16.5289C89.7167 16.5615 87.8225 18.0096 85.6215 20.5214C84.0082 22.3616 81.334 26.4586 81.334 26.4586C81.334 26.4586 79.2821 29.6276 78.2441 29.3793C76.4746 28.9556 79.7293 22.3937 79.7293 22.3937C79.7293 22.3937 81.4403 21.3347 83.6576 19.4649C85.0537 18.288 86.6599 16.6691 88.1364 15.1685C89.4791 13.8035 91.0614 11.95 92.5654 9.91963C92.1802 9.98081 91.7854 10.0221 91.383 10.042C90.0342 11.8246 88.5943 13.4201 87.3697 14.6882C85.5467 16.5758 83.8698 18.1203 82.6512 19.1054C81.4836 20.0487 80.7346 20.4735 80.7346 20.4735C80.7346 20.4735 82.9621 15.889 86.6747 10.8237C90.3873 5.75887 95.5855 1.05354 95.178 3.28587C95.0615 3.92681 94.6641 4.84616 94.0643 5.93733C94.4866 5.84912 94.8966 5.73898 95.2925 5.61355C96.1869 3.76314 96.4917 2.23803 95.8242 1.79748C93.1001 -0.00041144 86.1715 7.43898 82.698 11.7598C79.2251 16.0807 76.0818 22.6839 76.0818 22.6839C76.0818 22.6839 75.5384 22.9123 74.9375 23.0265C74.5585 23.0989 74.3967 23.0831 74.3346 23.0586C74.3036 23.0459 74.3 23.0245 74.3 23.0245C74.3 23.0245 77.3553 17.3004 74.2273 16.5411C71.2087 15.8089 65.9784 21.4056 64.1188 25.2986C62.8427 27.9695 62.1228 31.3317 64.3111 32.1323C66.681 32.9996 70.7065 28.6634 71.6528 27.4035C72.5992 26.143 73.7806 24.0473 73.7806 24.0473C73.7806 24.0473 74.3586 24.0167 74.6745 23.9703C75.2789 23.8811 75.5618 23.8067 75.5618 23.8067C75.5618 23.8067 75.1701 24.8351 74.7462 26.1389C73.9561 28.5701 73.2433 32.0486 76.0879 32.2123C77.9002 32.3158 80.5591 29.0356 80.5591 29.0356C80.5591 29.0356 79.8438 31.9523 82.1959 32.2123C83.9323 32.404 86.4595 29.7153 86.4595 29.7153C86.4595 29.7153 85.909 32.0318 87.6694 32.2358C89.1764 32.4107 91.3158 30.6398 93.0701 28.6915C94.9857 26.5642 96.455 24.2345 96.455 24.2345H95.3413C95.3413 24.2345 92.8763 27.9842 91.1454 28.9877C89.7243 29.8117 90.2113 28.4916 90.6422 27.7997C91.1174 27.0363 97.0819 16.8848 97.0819 16.8853L97.0834 16.8848ZM72.7203 23.9474C72.6765 24.0478 71.8762 25.4434 71.0199 26.5407C70.0975 27.7232 68.4088 29.5027 67.3938 29.1264C65.8069 28.538 67.5531 25.0732 68.6948 23.3926C69.8365 21.712 69.9662 21.5983 69.9983 21.5544C70.0303 21.5106 70.0624 21.4703 70.0904 21.5223C70.1184 21.5743 70.4816 22.2647 71.199 22.8639C71.9194 23.4655 72.6124 23.7832 72.6684 23.8031C72.7243 23.823 72.7645 23.8469 72.7203 23.9469V23.9474ZM73.4341 22.6987C73.3339 22.8659 73.2621 22.8741 73.054 22.8185C72.6877 22.719 71.17 22.0159 71.1817 20.4561C71.1924 18.9361 73.3303 17.4472 74.1688 18.0836C74.9513 18.6771 74.5773 20.1946 74.2822 20.9686C73.9876 21.7421 73.4997 22.589 73.4341 22.6987ZM87.9609 26.4586C87.5386 27.0389 87.1855 27.5631 86.867 27.9312C86.1863 28.719 85.7421 29.0856 85.3463 29.1825C85.1468 29.2309 84.8995 29.2192 84.7357 29.1198C84.1547 28.7654 84.5617 27.3856 85.5732 25.5306C86.4987 23.8352 87.5681 22.1388 89.326 20.1859C91.0909 18.2253 91.7661 18.131 92.2601 18.1534C92.6758 18.1713 92.7348 18.6093 92.7348 18.6093C92.7348 18.6093 92.7053 18.7108 92.6392 18.8255C92.0566 19.8376 89.1219 24.8632 87.9604 26.4586H87.9609ZM40.7931 28.9112C38.8541 27.7104 36.3666 26.94 33.5088 26.915C26.1467 26.8507 18.1308 30.4353 12.7016 30.4838C6.298 30.5398 5.97899 25.6025 6.45368 22.8914C7.47532 17.0505 11.6092 11.4784 14.2671 8.54036C16.9255 5.60233 19.7111 3.32258 22.0271 2.73977C24.343 2.15696 24.1253 3.92222 23.8419 4.1634C23.5493 4.16952 22.9882 4.23275 22.6697 4.45354C22.171 4.79823 21.505 5.42948 21.4633 6.4304C21.3916 7.97233 23.3799 8.24258 24.8172 5.01391C25.7977 2.81167 24.2428 1.31716 22.9515 1.17337C21.1804 0.975531 18.4737 1.59251 15.2429 3.67339C9.61985 7.29468 2.09849 15.3363 1.90668 24.2584C1.79729 29.3482 5.11507 32.2123 9.66716 32.2123C14.2193 32.2123 20.3995 29.4186 26.4341 29.3472C30.1707 29.3151 32.5889 30.6275 33.8136 32.765C33.8136 32.765 35.0306 30.7362 37.7409 30.6275C40.4221 30.5194 43.3741 31.2726 45.7975 32.9797C44.989 31.809 42.7035 30.0942 40.7925 28.9112H40.7931Z" fill="#F9F2EC"/>
<path d="M24.027 8.86689C20.9407 8.07859 15.8152 13.3438 13.6554 17.629C12.3234 20.2723 11.7393 23.5942 14.1108 24.4585C16.4822 25.3228 20.5057 20.9897 21.452 19.7297C22.3984 18.4693 23.9471 15.9448 23.9471 15.9448C23.9471 15.9448 24.4223 15.853 24.7337 15.7806C25.0451 15.7082 25.5483 15.5644 25.5483 15.5644C25.5483 15.5644 24.9647 16.6066 24.4381 17.6748C23.8138 18.9414 22.1175 23.1578 25.3926 24.4223C28.5216 25.6303 32.976 20.593 33.21 20.4976C33.21 20.4976 31.8841 23.9303 33.9437 24.4585C36.2037 25.0378 38.6805 22.1359 38.6805 22.1359C38.6805 22.1359 38.159 24.3142 39.9199 24.5187C43.0733 24.8843 48.6511 16.8009 48.6511 16.8009H47.5369C47.5369 16.8009 44.6984 20.4614 43.3333 21.2176C41.9682 21.9738 42.4592 20.6302 42.8301 20.0296C43.3033 19.2652 49.3334 9.16722 49.3334 9.16722H46.1357L45.7648 9.75513C45.7648 9.75513 45.1059 8.74707 44.0044 8.81896C40.7996 9.02853 36.9862 14.1479 35.3093 16.4042C33.6328 18.661 30.0159 22.9696 28.1115 22.2017C26.0362 21.3645 28.0998 17.5209 29.4649 15.2641C30.951 12.8074 33.585 10.3741 34.6265 10.3553C35.9081 10.3313 35.4049 11.4954 35.4049 11.4954C35.4049 11.4954 34.4469 11.3756 33.7524 12.2516C33.2609 12.8711 32.8539 13.7757 33.3209 14.2677C34.0755 15.0626 35.0579 14.2555 35.6446 13.355C37.4736 10.549 36.1355 9.07034 34.6987 8.85466C31.6379 8.39422 28.8182 12.3352 26.6747 13.7996C25.1875 14.8148 24.5663 14.7358 24.5663 14.7358C24.5663 14.7358 27.1463 9.66335 24.0275 8.86638L24.027 8.86689ZM37.8837 17.941C38.8092 16.2451 40.07 14.6078 41.7108 12.5555C43.3516 10.5032 44.1682 10.3369 44.6623 10.3594C45.0779 10.3777 45.1369 10.8152 45.1369 10.8152C45.1369 10.8152 41.5719 17.0405 40.2786 18.817C39.8563 19.3973 39.495 19.8888 39.1765 20.2575C38.4958 21.0453 38.0013 21.4262 37.6197 21.521C37.4202 21.5699 37.1729 21.5577 37.0086 21.4578C36.4276 21.1034 36.8707 19.7955 37.8832 17.941H37.8837ZM22.7535 15.9208C22.7092 16.0207 21.6912 17.708 20.8354 18.8053C19.9135 19.9877 18.2095 21.7744 17.1945 21.3981C15.6076 20.8097 17.3004 17.3689 18.4421 15.6888C19.5838 14.0082 19.7512 13.792 19.7837 13.7486C19.8158 13.7043 19.8473 13.664 19.8753 13.7165C19.9033 13.7685 20.2666 14.5171 21.0531 15.0208C21.8397 15.5251 22.6461 15.7571 22.7021 15.777C22.7581 15.7969 22.7983 15.8214 22.754 15.9208H22.7535ZM24.0809 13.2943C23.7858 14.0689 23.5223 14.5568 23.4678 14.6721C23.3803 14.8566 23.161 14.7975 23.161 14.7975C22.9112 14.7863 20.9692 14.3422 20.9804 12.7824C20.9911 11.2624 23.1295 9.77349 23.9675 10.4098C24.75 11.0034 24.376 12.5208 24.0809 13.2943ZM94.6773 30.3621C94.4905 30.256 94.2829 30.2035 94.0545 30.2035C93.8261 30.2035 93.6185 30.2565 93.4318 30.3621C93.245 30.4682 93.0985 30.6119 92.9911 30.795C92.8843 30.9775 92.8304 31.1764 92.8304 31.3906C92.8304 31.6047 92.8838 31.8071 92.9911 31.9887C93.098 32.1697 93.245 32.3135 93.4318 32.419C93.6185 32.5251 93.8261 32.5776 94.0545 32.5776C94.2829 32.5776 94.4905 32.5246 94.6773 32.419C94.864 32.3135 95.0105 32.1697 95.1179 31.9887C95.2247 31.8077 95.2786 31.6083 95.2786 31.3906C95.2786 31.1728 95.2252 30.9775 95.1179 30.795C95.011 30.6125 94.864 30.4682 94.6773 30.3621ZM94.8965 31.8821C94.8156 32.0269 94.7017 32.1406 94.5557 32.2237C94.4096 32.3063 94.2422 32.3476 94.0545 32.3476C93.8668 32.3476 93.6994 32.3063 93.5534 32.2237C93.4073 32.1411 93.2939 32.0274 93.2125 31.8821C93.1316 31.7373 93.0909 31.5731 93.0909 31.3906C93.0909 31.208 93.1316 31.0484 93.2125 30.9036C93.2934 30.7588 93.4078 30.6451 93.5554 30.562C93.7029 30.4789 93.8693 30.4381 94.0545 30.4381C94.2397 30.4381 94.4061 30.4794 94.5536 30.562C94.7012 30.6446 94.8156 30.7583 94.8965 30.9036C94.9774 31.0484 95.0181 31.2111 95.0181 31.3906C95.0181 31.57 94.9774 31.7373 94.8965 31.8821Z" fill="#F9F2EC"/>
<path d="M94.5145 31.3708C94.5491 31.3142 94.5664 31.251 94.5664 31.1816C94.5664 31.0858 94.5354 31.0057 94.4733 30.9404C94.4112 30.8752 94.3278 30.8425 94.224 30.8425H93.6033V31.9169H93.8765V31.5253H94.0846L94.3364 31.9169H94.6488L94.367 31.4993C94.4306 31.4702 94.4799 31.4274 94.5145 31.3708ZM94.254 31.2576C94.2337 31.2765 94.2062 31.2856 94.1716 31.2856H93.8765V31.0771H94.1716C94.2062 31.0771 94.2337 31.0868 94.254 31.1051C94.2744 31.124 94.2845 31.1495 94.2845 31.1811C94.2845 31.2127 94.2744 31.2382 94.254 31.2571V31.2576Z" fill="#F9F2EC"/>
</g>
<defs>
<clipPath id="clip0_794_686">
<rect width="105" height="33" fill="white"/>
</clipPath>
</defs>
</svg>
