<svg width="176" height="58" viewBox="0 0 176 58" fill="none" xmlns="http://www.w3.org/2000/svg">
<path d="M28.5712 14.2365H22.2142C20.2897 14.2365 18.7733 12.7312 18.7733 10.8207V4.51C18.7733 2.65732 20.2897 1.09412 22.2142 1.09412H28.5712C30.4375 1.09412 32.0121 2.59942 32.0121 4.51V10.8207C32.0121 12.7312 30.4958 14.2365 28.5712 14.2365Z" fill="white"/>
<path d="M12.0665 28.4211H4.95133C2.79348 28.4211 1.10217 26.6842 1.10217 24.6V17.4787C1.10217 15.3945 2.85179 13.6576 4.95133 13.6576H12.1248C14.2827 13.6576 15.974 15.3945 15.974 17.4787V24.6C15.974 26.7421 14.2243 28.4211 12.0665 28.4211Z" fill="white"/>
<path d="M11.4249 43.1846H7.05083C5.76778 43.1846 4.71802 42.1424 4.71802 40.8687V36.5265C4.71802 35.2528 5.76778 34.2107 7.05083 34.2107H11.4249C12.708 34.2107 13.7577 35.2528 13.7577 36.5265V40.8687C13.7577 42.1424 12.708 43.1846 11.4249 43.1846Z" fill="white"/>
<path d="M23.1474 56.9059H17.9569C16.4406 56.9059 15.1575 55.6901 15.1575 54.1269V48.9742C15.1575 47.4689 16.3822 46.1952 17.9569 46.1952H23.1474C24.6638 46.1952 25.9468 47.411 25.9468 48.9742V54.1269C25.9468 55.6901 24.7221 56.9059 23.1474 56.9059Z" fill="white"/>
<path d="M42.1016 16.8418H38.5441C37.4943 16.8418 36.6195 15.9734 36.6195 14.9313V11.3996C36.6195 10.3575 37.4943 9.48901 38.5441 9.48901H42.1016C43.1514 9.48901 44.0262 10.3575 44.0262 11.3996V14.9313C44.0846 15.9734 43.2097 16.8418 42.1016 16.8418Z" fill="white"/>
<path d="M120.601 19.2156C121.768 19.2156 122.643 18.2892 122.643 17.1892C122.643 16.0313 121.709 15.1628 120.601 15.1628C119.435 15.1628 118.502 16.0892 118.502 17.1892C118.502 18.2892 119.435 19.2156 120.601 19.2156Z" fill="white"/>
<path d="M45.1927 41.1002C44.9011 41.5634 44.3762 41.795 43.793 41.795C43.5014 41.795 43.0931 41.737 42.8599 41.5634C42.3933 41.2739 42.1017 40.695 42.1017 40.116C42.1017 39.8265 42.1601 39.5371 42.335 39.3055L47.1173 31.8369L42.335 24.3683C42.16 24.1367 42.1017 23.7893 42.1017 23.5578C42.1017 22.9788 42.3933 22.3998 42.9182 22.1103C43.2098 21.9366 43.5014 21.8788 43.793 21.8788C44.3762 21.8788 44.9011 22.1103 45.251 22.5735L49.1585 28.7105L53.1243 22.5735C53.4159 22.1103 53.9991 21.8788 54.5823 21.8788C54.8739 21.8788 55.1655 21.9367 55.4571 22.1103C55.982 22.3998 56.2736 22.9788 56.2736 23.5578C56.2736 23.8472 56.2153 24.1367 56.0403 24.3683L51.258 31.8369L56.0403 39.3055C56.2153 39.5371 56.2736 39.8265 56.2736 40.116C56.2736 40.695 55.982 41.3318 55.5155 41.5634C55.2239 41.7372 54.8739 41.795 54.5823 41.795C53.9991 41.795 53.5326 41.5634 53.1826 41.1002L49.2168 35.0212L45.1927 41.1002Z" fill="white"/>
<path d="M62.2806 24.1367C64.0885 22.5156 66.538 21.5314 69.1624 21.5314C74.9362 21.5314 79.4852 26.1052 79.4852 31.779C79.4852 37.3949 74.8778 41.9687 69.1624 41.9687C66.538 41.9687 64.0885 40.9844 62.2806 39.3633V48.1056C62.2806 48.9741 61.4641 49.7268 60.5893 49.7268C59.7728 49.7268 58.8979 48.9741 58.8979 48.1056V23.3261C58.8979 22.4577 59.7144 21.705 60.5893 21.705C61.5224 21.705 62.2806 22.4577 62.2806 23.3261V24.1367ZM69.1041 24.9472C65.2549 24.9472 62.2222 27.9578 62.2222 31.779C62.2222 35.6001 65.2549 38.6107 69.1041 38.6107C72.9532 38.6107 75.9859 35.6001 75.9859 31.779C76.0443 27.9578 73.0116 24.9472 69.1041 24.9472Z" fill="white"/>
<path d="M108.704 29.9264V40.174C108.704 41.0424 107.887 41.7951 107.013 41.7951C106.079 41.7951 105.321 41.0424 105.321 40.174V23.3262C105.321 22.4578 106.138 21.7051 107.013 21.7051C107.829 21.7051 108.646 22.3999 108.704 23.2683C110.104 22.2262 111.912 21.5894 113.836 21.5894C114.886 21.5894 115.702 22.3999 115.702 23.2683C115.702 24.1947 114.886 25.0052 113.836 25.0052C111.212 25.0632 108.704 25.9894 108.704 29.9264Z" fill="white"/>
<path d="M120.601 21.7051C119.668 21.7051 118.91 22.4577 118.91 23.3262V40.2318C118.91 41.1003 119.727 41.8529 120.601 41.8529C121.418 41.8529 122.293 41.1003 122.293 40.2318V23.3262C122.293 22.4577 121.476 21.7051 120.601 21.7051Z" fill="white"/>
<path d="M142.297 23.3262C142.297 22.4578 143.113 21.7051 143.988 21.7051C144.804 21.7051 145.679 22.4578 145.679 23.3262V40.2319C145.679 41.1003 144.863 41.853 143.988 41.853C143.055 41.853 142.297 41.1003 142.297 40.2319V39.4213C140.43 41.0424 138.039 42.0267 135.415 42.0267C129.641 42.0267 125.092 37.4529 125.092 31.7791C125.092 26.1631 129.699 21.5894 135.415 21.5894C138.039 21.5894 140.43 22.5736 142.297 24.1947V23.3262ZM135.415 38.6108C139.264 38.6108 142.297 35.6002 142.297 31.7791C142.297 27.9579 139.264 24.9473 135.415 24.9473C131.566 24.9473 128.533 27.9579 128.533 31.7791C128.533 35.6002 131.566 38.6108 135.415 38.6108Z" fill="white"/>
<path d="M163.001 30.158C163.001 27.3211 160.551 24.8894 157.693 24.8894C154.952 24.8894 152.386 25.9895 152.386 29.9843V40.2319C152.386 41.1003 151.57 41.853 150.695 41.853C149.762 41.853 149.004 41.1003 149.004 40.2319V23.3262C149.004 22.4578 149.82 21.7051 150.695 21.7051C151.511 21.7051 152.328 22.3999 152.386 23.2683C153.844 22.1683 155.652 21.5894 157.635 21.5894C162.242 21.5894 166.383 25.1789 166.383 29.6948V40.2319C166.383 41.1003 165.567 41.853 164.692 41.853C163.759 41.853 163.001 41.1003 163.001 40.2319V30.158Z" fill="white"/>
<path d="M41.1102 31.2001C41.0517 25.9894 36.3862 21.5894 30.8457 21.5894C25.072 21.5894 20.5229 26.1631 20.5229 31.7791C20.5229 37.5108 25.1303 42.0267 30.8457 42.0267C33.5868 42.0267 36.1529 40.9846 38.0192 39.1319C38.3691 38.8424 38.6024 38.3213 38.6024 37.8581C38.6024 36.9318 37.7859 36.1792 36.9111 36.1792C36.3862 36.1792 35.9196 36.4686 35.5697 36.8739C34.4033 38.0897 32.712 38.6687 30.904 38.6687C27.4631 38.6687 24.6637 36.3528 24.0805 33.1107H39.4772C39.4772 33.1107 39.4772 33.1107 39.5356 33.1107H39.5938H39.6522C39.7106 33.1107 39.7688 33.1106 39.8272 33.0527C40.5271 32.7632 41.1102 32.0685 41.1102 31.2001ZM30.8457 24.9473C33.9367 24.9473 36.5028 26.9158 37.3776 29.6948H24.2555C25.1303 26.9158 27.6964 24.9473 30.8457 24.9473Z" fill="white"/>
<path d="M102.464 31.2001C102.405 25.9894 97.6813 21.5894 92.1991 21.5894C86.4254 21.5894 81.8763 26.1631 81.8763 31.7791C81.8763 37.5108 86.4837 42.0267 92.1991 42.0267C94.9402 42.0267 97.5063 40.9846 99.3726 39.1319C99.7225 38.8424 99.9558 38.3213 99.9558 37.8581C99.9558 36.9318 99.1393 36.1792 98.2645 36.1792C97.7396 36.1792 97.273 36.4686 96.9231 36.8739C95.7567 38.0897 94.0654 38.6687 92.2574 38.6687C88.8165 38.6687 86.0171 36.3528 85.4339 33.1107H100.831C100.831 33.1107 100.831 33.1107 100.889 33.1107H100.947C101.006 33.1107 101.064 33.1107 101.064 33.1107H101.122C101.822 32.8212 102.464 32.0685 102.464 31.2001ZM92.1991 24.9473C95.2901 24.9473 97.8562 26.9158 98.731 29.6948H85.6089C86.4837 26.9158 89.0498 24.9473 92.1991 24.9473Z" fill="white"/>
<path d="M169.999 41.8529C169.824 41.8529 169.707 41.7372 169.707 41.5634V38.7266H169.066C168.891 38.7266 168.774 38.6108 168.774 38.4371C168.774 38.2633 168.891 38.1476 169.066 38.1476H170.932C171.107 38.1476 171.224 38.2633 171.224 38.4371C171.224 38.6108 171.107 38.7266 170.932 38.7266H170.291V41.5634C170.291 41.7372 170.174 41.8529 169.999 41.8529Z" fill="white"/>
<path d="M173.323 41.8529C173.148 41.8529 173.09 41.7372 173.032 41.6214L172.215 39.3055V41.5634C172.215 41.7372 172.099 41.8529 171.924 41.8529C171.749 41.8529 171.632 41.7372 171.632 41.5634V38.5529C171.632 38.3213 171.807 38.1476 172.04 38.1476C172.215 38.1476 172.39 38.2633 172.448 38.4371L173.265 40.8108L174.081 38.4371C174.14 38.2633 174.315 38.1476 174.49 38.1476C174.723 38.1476 174.898 38.3213 174.898 38.5529V41.5634C174.898 41.7372 174.781 41.8529 174.606 41.8529C174.431 41.8529 174.315 41.7372 174.315 41.5634V39.3055C174.198 39.6529 174.023 40.2318 173.848 40.695C173.557 41.6213 173.498 41.6214 173.498 41.6214C173.557 41.7951 173.44 41.8529 173.323 41.8529Z" fill="white"/>
</svg>
