<svg width="24" height="24" viewBox="0 0 24 24" fill="none" xmlns="http://www.w3.org/2000/svg">
<path d="M10.5537 15.7441C10.7822 15.7444 10.9678 15.9297 10.9678 16.1582V23.4463C10.9676 23.6747 10.7821 23.8601 10.5537 23.8604C10.3251 23.8604 10.1398 23.6748 10.1396 23.4463V16.1582C10.1396 15.9295 10.3251 15.7441 10.5537 15.7441ZM13.625 15.7441C13.8535 15.7403 14.0419 15.9228 14.0459 16.1514L14.1729 23.4375C14.1768 23.6661 13.9951 23.8553 13.7666 23.8594C13.538 23.8634 13.3487 23.6808 13.3447 23.4521L13.2178 16.165C13.214 15.9366 13.3965 15.7481 13.625 15.7441ZM8.82227 20.3369C8.89293 20.1194 9.12726 20.0006 9.34473 20.0713C9.56185 20.1422 9.68095 20.3755 9.61035 20.5928L8.7959 23.0977C8.72524 23.3151 8.49188 23.4339 8.27441 23.3633C8.05699 23.2926 7.93814 23.0592 8.00879 22.8418L8.82227 20.3369ZM14.6055 20.0703C14.8228 20 15.0563 20.1196 15.127 20.3369L15.9404 22.8418C16.0111 23.0593 15.8923 23.2926 15.6748 23.3633C15.4573 23.4339 15.224 23.3151 15.1533 23.0977L14.3389 20.5928C14.2682 20.3753 14.388 20.141 14.6055 20.0703ZM6.75098 21.748C6.85479 21.5443 7.10486 21.4636 7.30859 21.5674C7.51202 21.6713 7.59295 21.9204 7.48926 22.124L7.30762 22.4795C7.20379 22.6832 6.95469 22.764 6.75098 22.6602C6.54744 22.5563 6.46655 22.3072 6.57031 22.1035L6.75098 21.748ZM16.9336 21.5674C17.1373 21.4636 17.3874 21.5443 17.4912 21.748L17.6719 22.1035C17.7756 22.3072 17.6948 22.5563 17.4912 22.6602C17.2875 22.764 17.0384 22.6832 16.9346 22.4795L16.7529 22.124C16.6492 21.9204 16.7302 21.6713 16.9336 21.5674ZM6.39258 18.9531C6.52701 18.7684 6.78581 18.7271 6.9707 18.8613C7.15569 18.9957 7.1969 19.2554 7.0625 19.4404L5.51367 21.5713C5.37926 21.756 5.12045 21.7973 4.93555 21.6631C4.75056 21.5287 4.70935 21.269 4.84375 21.084L6.39258 18.9531ZM16.9785 18.8613C17.1635 18.7272 17.4223 18.7683 17.5566 18.9531L19.1045 21.084C19.2389 21.269 19.1986 21.5287 19.0137 21.6631C18.8287 21.7975 18.569 21.7563 18.4346 21.5713L16.8867 19.4404C16.7523 19.2554 16.7935 18.9957 16.9785 18.8613ZM8.78027 17.7656C8.88408 17.5619 9.13415 17.4812 9.33789 17.585C9.54126 17.6889 9.62228 17.938 9.51855 18.1416L8.17773 20.7725C8.07399 20.9761 7.82476 21.0576 7.62109 20.9541C7.41736 20.8503 7.33564 20.6002 7.43945 20.3965L8.78027 17.7656ZM14.9043 17.584C15.108 17.4802 15.358 17.5611 15.4619 17.7646L16.8027 20.3965C16.9065 20.6002 16.8248 20.8493 16.6211 20.9531C16.4174 21.0569 16.1683 20.9762 16.0645 20.7725L14.7236 18.1406C14.6201 17.937 14.7008 17.6878 14.9043 17.584ZM4.37793 19.2793C4.53962 19.1176 4.80218 19.1176 4.96387 19.2793C5.12505 19.4409 5.12515 19.7027 4.96387 19.8643L4.34277 20.4854C4.18109 20.647 3.91852 20.647 3.75684 20.4854C3.59522 20.3237 3.59517 20.0611 3.75684 19.8994L4.37793 19.2793ZM19.2783 19.2783C19.44 19.1167 19.7026 19.1168 19.8643 19.2783L20.4854 19.8994C20.647 20.0611 20.647 20.3237 20.4854 20.4854C20.3237 20.647 20.0611 20.647 19.8994 20.4854L19.2783 19.8643C19.1168 19.7026 19.1167 19.4399 19.2783 19.2783ZM4.50977 16.8867C4.69474 16.7525 4.95353 16.7936 5.08789 16.9785C5.22221 17.1635 5.18105 17.4223 4.99609 17.5566L2.86523 19.1055C2.68035 19.2396 2.42152 19.1984 2.28711 19.0137C2.15271 18.8287 2.19392 18.5699 2.37891 18.4355L4.50977 16.8867ZM18.8613 16.9785C18.9957 16.7936 19.2545 16.7525 19.4395 16.8867L21.5713 18.4346C21.7562 18.569 21.7965 18.8287 21.6621 19.0137C21.5276 19.1984 21.2689 19.2388 21.084 19.1045L18.9531 17.5566C18.7682 17.4223 18.7271 17.1635 18.8613 16.9785ZM8.72363 14.9326C8.8853 14.771 9.14788 14.771 9.30957 14.9326C9.47126 15.0943 9.47126 15.3569 9.30957 15.5186L6.20508 18.623C6.04351 18.7843 5.78174 18.7842 5.62012 18.623C5.45843 18.4614 5.45843 18.1988 5.62012 18.0371L8.72363 14.9326ZM14.9326 14.9326C15.0942 14.7711 15.3559 14.7712 15.5176 14.9326L18.6221 18.0371C18.7837 18.1988 18.7837 18.4604 18.6221 18.6221C18.4604 18.7838 18.1988 18.7838 18.0371 18.6221L14.9326 15.5186C14.7709 15.3569 14.7709 15.0943 14.9326 14.9326ZM2.54492 16.5361C2.74865 16.4323 2.99774 16.5131 3.10156 16.7168C3.20535 16.9205 3.12455 17.1696 2.9209 17.2734L2.13867 17.6719C1.93497 17.7757 1.68587 17.6949 1.58203 17.4912C1.47822 17.2875 1.55896 17.0384 1.7627 16.9346L2.54492 16.5361ZM21.1406 16.7168C21.2445 16.5132 21.4936 16.4323 21.6973 16.5361L22.4795 16.9346C22.6832 17.0384 22.7639 17.2875 22.6602 17.4912C22.5563 17.6949 22.3073 17.7757 22.1035 17.6719L21.3213 17.2734C21.1176 17.1696 21.0368 16.9205 21.1406 16.7168ZM8.02148 13.7451C8.22518 13.6415 8.47436 13.7231 8.57812 13.9268C8.6817 14.1304 8.60104 14.3796 8.39746 14.4834L4.48535 16.4766C4.28179 16.5801 4.03261 16.4993 3.92871 16.2959C3.82491 16.0922 3.90569 15.8421 4.10938 15.7383L8.02148 13.7451ZM15.6641 13.9268C15.7679 13.7231 16.017 13.6414 16.2207 13.7451L20.1328 15.7383C20.3364 15.8422 20.4172 16.0922 20.3135 16.2959C20.2096 16.4993 19.9604 16.58 19.7568 16.4766L15.8447 14.4834C15.6411 14.3796 15.5604 14.1305 15.6641 13.9268ZM3.35645 14.3398C3.57391 14.2692 3.80727 14.388 3.87793 14.6055C3.94851 14.8229 3.82967 15.0563 3.6123 15.127L1.10742 15.9414C0.889954 16.0121 0.655621 15.8923 0.584961 15.6748C0.514615 15.4575 0.634246 15.2239 0.851562 15.1533L3.35645 14.3398ZM20.0713 14.6055C20.1419 14.388 20.3753 14.2692 20.5928 14.3398L23.0977 15.1533C23.3151 15.224 23.4338 15.4574 23.3633 15.6748C23.2926 15.8922 23.0592 16.012 22.8418 15.9414L20.3369 15.127C20.1195 15.0563 20.0007 14.8229 20.0713 14.6055ZM1.64941 13.3604C1.8751 13.3248 2.0873 13.4794 2.12305 13.7051C2.15852 13.9307 2.004 14.143 1.77832 14.1787L0.911133 14.3154C0.68538 14.3511 0.473321 14.1974 0.4375 13.9717C0.40173 13.7458 0.556382 13.5338 0.782227 13.498L1.64941 13.3604ZM22.5928 13.3604L23.46 13.498C23.6856 13.534 23.8395 13.7459 23.8037 13.9717C23.7678 14.1973 23.5558 14.3512 23.3301 14.3154L22.4629 14.1777C22.2371 14.1419 22.0834 13.9299 22.1191 13.7041C22.1551 13.4785 22.3671 13.3246 22.5928 13.3604ZM7.71973 12.3994C7.94557 12.3636 8.15759 12.5173 8.19336 12.7432C8.2291 12.9689 8.07524 13.1808 7.84961 13.2168L3.5127 13.9033C3.28698 13.9389 3.07485 13.7853 3.03906 13.5596C3.00329 13.3337 3.15794 13.1217 3.38379 13.0859L7.71973 12.3994ZM16.5215 12.3984L20.8584 13.0859C21.084 13.1219 21.2379 13.3339 21.2021 13.5596C21.1663 13.7852 20.9542 13.939 20.7285 13.9033L16.3926 13.2168C16.1668 13.181 16.0122 12.9689 16.0479 12.7432C16.0836 12.5174 16.2958 12.3629 16.5215 12.3984ZM3.04785 11.5605C3.27648 11.5606 3.46191 11.746 3.46191 11.9746C3.46191 12.2032 3.27648 12.3886 3.04785 12.3887H0.414062C0.185403 12.3887 4.66698e-07 12.2033 0 11.9746C0 11.746 0.185403 11.5605 0.414062 11.5605H3.04785ZM23.5352 11.5605C23.7638 11.5605 23.9492 11.746 23.9492 11.9746C23.9492 12.2033 23.7638 12.3887 23.5352 12.3887H20.9014C20.6727 12.3886 20.4873 12.2032 20.4873 11.9746C20.4873 11.746 20.6727 11.5606 20.9014 11.5605H23.5352ZM3.51367 10.3389L7.84961 11.0254C8.07533 11.0613 8.22912 11.2733 8.19336 11.499C8.15757 11.7248 7.94555 11.8785 7.71973 11.8428L3.38379 11.1562C3.15795 11.1205 3.0033 10.9085 3.03906 10.6826C3.07483 10.4568 3.28783 10.3031 3.51367 10.3389ZM20.7285 10.3389C20.9543 10.3031 21.1663 10.4568 21.2021 10.6826C21.2379 10.9084 21.0841 11.1203 20.8584 11.1562L16.5215 11.8428C16.2958 11.8783 16.0836 11.7247 16.0479 11.499C16.0121 11.2732 16.1668 11.0612 16.3926 11.0254L20.7285 10.3389ZM0.911133 9.92676L1.77832 10.0635C2.00403 10.0992 2.15857 10.3114 2.12305 10.5371C2.08729 10.7629 1.87516 10.9175 1.64941 10.8818L0.782227 10.7441C0.556382 10.7084 0.40173 10.4964 0.4375 10.2705C0.47328 10.0448 0.685416 9.89117 0.911133 9.92676ZM23.3301 9.92676C23.5559 9.891 23.7679 10.0448 23.8037 10.2705C23.8395 10.4963 23.6857 10.7083 23.46 10.7441L22.5928 10.8818C22.3669 10.9176 22.1549 10.763 22.1191 10.5371C22.0836 10.3114 22.2372 10.0993 22.4629 10.0635L23.3301 9.92676ZM3.92871 7.94629C4.03268 7.74293 4.28179 7.6619 4.48535 7.76562L8.39648 9.75879C8.60009 9.86253 8.68162 10.1118 8.57812 10.3154C8.47432 10.5192 8.22424 10.6009 8.02051 10.4971L4.10938 8.50391C3.90564 8.4001 3.8249 8.15003 3.92871 7.94629ZM19.7559 7.76562C19.9595 7.66188 20.2086 7.74283 20.3125 7.94629C20.4163 8.15002 20.3356 8.39911 20.1318 8.50293L16.2207 10.4961C16.017 10.5999 15.7669 10.5192 15.6631 10.3154C15.5595 10.1117 15.6411 9.86255 15.8447 9.75879L19.7559 7.76562ZM0.585938 8.27441C0.656588 8.05697 0.889977 7.93721 1.10742 8.00781L3.6123 8.82227C3.82975 8.89292 3.94853 9.12631 3.87793 9.34375C3.80727 9.56122 3.57391 9.68003 3.35645 9.60938L0.851562 8.7959C0.634157 8.72526 0.515407 8.49183 0.585938 8.27441ZM22.8418 8.00781C23.0593 7.93715 23.2936 8.05695 23.3643 8.27441C23.4346 8.49175 23.315 8.72529 23.0977 8.7959L20.5928 9.60938C20.3753 9.68003 20.1419 9.56121 20.0713 9.34375C20.0007 9.12635 20.1196 8.89296 20.3369 8.82227L22.8418 8.00781ZM5.62012 5.61914C5.78175 5.45785 6.04348 5.4578 6.20508 5.61914L9.30957 8.72363C9.47126 8.88532 9.47126 9.14788 9.30957 9.30957C9.14799 9.47096 8.88627 9.47083 8.72461 9.30957L5.62012 6.20508C5.45843 6.04339 5.45843 5.78083 5.62012 5.61914ZM18.0371 5.61914C18.1987 5.45774 18.4604 5.45785 18.6221 5.61914C18.7838 5.78083 18.7838 6.04339 18.6221 6.20508L15.5186 9.30957C15.3569 9.47121 15.0943 9.4711 14.9326 9.30957C14.7709 9.14788 14.7709 8.88532 14.9326 8.72363L18.0371 5.61914ZM7.94727 3.92871C8.15096 3.82509 8.40014 3.90572 8.50391 4.10938L10.4971 8.02148C10.6006 8.22515 10.519 8.47438 10.3154 8.57812C10.1118 8.68157 9.8626 8.60089 9.75879 8.39746L7.76562 4.48535C7.66188 4.28163 7.74356 4.03251 7.94727 3.92871ZM15.7383 4.10938C15.8421 3.90568 16.0912 3.82497 16.2949 3.92871C16.4986 4.03249 16.5802 4.28165 16.4766 4.48535L14.4834 8.39746C14.3795 8.6011 14.1295 8.68191 13.9258 8.57812C13.7223 8.47431 13.6416 8.2251 13.7451 8.02148L15.7383 4.10938ZM10.6826 3.04004C10.9084 3.00427 11.1204 3.158 11.1562 3.38379L11.8438 7.71973C11.8795 7.94557 11.7249 8.15759 11.499 8.19336C11.2732 8.22909 11.0612 8.07542 11.0254 7.84961L10.3389 3.51367C10.3031 3.28791 10.4569 3.07593 10.6826 3.04004ZM13.5596 3.04004C13.7854 3.07581 13.9401 3.28783 13.9043 3.51367L13.2168 7.84961C13.181 8.07542 12.969 8.22913 12.7432 8.19336C12.5175 8.15746 12.3637 7.94548 12.3994 7.71973L13.0859 3.38379C13.1217 3.15801 13.3338 3.00432 13.5596 3.04004ZM1.58105 6.75098C1.68484 6.5473 1.93399 6.46663 2.1377 6.57031L2.9209 6.96875C3.12429 7.07268 3.20524 7.32181 3.10156 7.52539C2.99779 7.72906 2.74862 7.80971 2.54492 7.70605L1.76172 7.30762C1.55834 7.20371 1.47745 6.95455 1.58105 6.75098ZM22.1035 6.56934C22.3072 6.46587 22.5564 6.54739 22.6602 6.75098C22.7637 6.95456 22.6829 7.20377 22.4795 7.30762L21.6963 7.70605C21.4926 7.80961 21.2434 7.72897 21.1396 7.52539C21.0359 7.32184 21.117 7.07273 21.3203 6.96875L22.1035 6.56934ZM2.28711 4.93555C2.42158 4.75086 2.68036 4.71041 2.86523 4.84473L4.99609 6.39258C5.18103 6.52694 5.22214 6.78573 5.08789 6.9707C4.95354 7.15562 4.69474 7.19673 4.50977 7.0625L2.37793 5.51465C2.19301 5.38023 2.15273 5.12051 2.28711 4.93555ZM21.084 4.84375C21.2689 4.70959 21.5277 4.75085 21.6621 4.93555C21.7965 5.12054 21.7553 5.37927 21.5703 5.51367L19.4395 7.0625C19.2545 7.19675 18.9957 7.15564 18.8613 6.9707C18.727 6.78572 18.7682 6.52696 18.9531 6.39258L21.084 4.84375ZM4.93555 2.28613C5.12054 2.15173 5.38025 2.19294 5.51465 2.37793L7.0625 4.50879C7.1969 4.69378 7.15569 4.95349 6.9707 5.08789C6.78574 5.22201 6.52691 5.18095 6.39258 4.99609L4.84473 2.86523C4.71033 2.68026 4.75059 2.42054 4.93555 2.28613ZM18.4355 2.37793C18.57 2.19318 18.8288 2.15193 19.0137 2.28613C19.1987 2.42054 19.2399 2.68024 19.1055 2.86523L17.5566 4.99609C17.4222 5.18082 17.1634 5.22212 16.9785 5.08789C16.7935 4.95349 16.7523 4.69378 16.8867 4.50879L18.4355 2.37793ZM3.75684 3.75684C3.91852 3.59515 4.18109 3.59515 4.34277 3.75684L4.96387 4.37793C5.12516 4.53953 5.12514 4.80128 4.96387 4.96289C4.80218 5.12458 4.53962 5.12458 4.37793 4.96289L3.75684 4.34277C3.59521 4.18114 3.59532 3.91854 3.75684 3.75684ZM19.8994 3.75684C20.0611 3.59515 20.3237 3.59515 20.4854 3.75684C20.6468 3.91842 20.6466 4.18013 20.4854 4.3418L19.8643 4.96289C19.7026 5.12458 19.44 5.12458 19.2783 4.96289C19.1171 4.8013 19.1171 4.53953 19.2783 4.37793L19.8994 3.75684ZM8.27441 0.585938C8.49187 0.515303 8.72524 0.634107 8.7959 0.851562L9.61035 3.35645C9.68101 3.57391 9.56122 3.80825 9.34375 3.87891C9.12643 3.94921 8.89287 3.8296 8.82227 3.6123L8.00879 1.10742C7.93813 0.889954 8.05695 0.656597 8.27441 0.585938ZM15.1533 0.851562C15.224 0.634095 15.4573 0.515278 15.6748 0.585938C15.8922 0.656626 16.0111 0.889978 15.9404 1.10742L15.127 3.6123C15.0563 3.82977 14.822 3.94859 14.6045 3.87793C14.3874 3.80706 14.2683 3.57373 14.3389 3.35645L15.1533 0.851562ZM11.9746 0C12.2033 2.94188e-08 12.3887 0.185403 12.3887 0.414062V3.04785C12.3886 3.27648 12.2032 3.46191 11.9746 3.46191C11.746 3.46191 11.5606 3.27648 11.5605 3.04785V0.414062C11.5605 0.185403 11.746 0 11.9746 0ZM6.75098 1.58105C6.95468 1.47737 7.20384 1.55901 7.30762 1.7627L7.70605 2.54492C7.80985 2.74866 7.72912 2.99776 7.52539 3.10156C7.32176 3.20525 7.07262 3.12441 6.96875 2.9209L6.57031 2.13867C6.4665 1.93493 6.54724 1.68486 6.75098 1.58105ZM16.9346 1.7627C17.0384 1.55896 17.2875 1.47725 17.4912 1.58105C17.6949 1.68486 17.7757 1.93493 17.6719 2.13867L17.2734 2.9209C17.1696 3.12442 16.9204 3.20514 16.7168 3.10156C16.5132 2.99781 16.4316 2.7486 16.5352 2.54492L16.9346 1.7627ZM10.2705 0.4375C10.4964 0.40173 10.7084 0.556382 10.7441 0.782227L10.8818 1.64941C10.9176 1.8751 10.7637 2.08708 10.5381 2.12305C10.3123 2.1588 10.0994 2.00497 10.0635 1.7793L9.92676 0.912109C9.891 0.68632 10.0448 0.473347 10.2705 0.4375ZM13.9717 0.438477C14.1975 0.474247 14.3522 0.686265 14.3164 0.912109L14.1787 1.7793C14.1428 2.00489 13.9307 2.15868 13.7051 2.12305C13.4793 2.08728 13.3246 1.87523 13.3604 1.64941L13.498 0.782227C13.5338 0.556387 13.7458 0.402715 13.9717 0.438477Z" fill="#372A20"/>
</svg>
