<svg width="208" height="40" viewBox="0 0 208 40" fill="none" xmlns="http://www.w3.org/2000/svg">
<path d="M2.78814 30H-2.74866e-05V8.27823H2.78814V30ZM14.2002 30H0.940168V27.5036H14.2002V30ZM23.1827 30H20.3945V14.3085H23.1827V30ZM37.9915 30H34.4253L28.7517 14.3085H31.7992L34.9116 23.6132L36.2732 27.9251L37.6025 23.6132L40.6824 14.3085H43.6976L37.9915 30ZM52.0509 30H49.2627V14.3085H52.0509V30ZM72.7603 30H69.9721V19.8524C69.9721 18.8365 69.7236 18.0044 69.2265 17.356C68.751 16.7076 67.8432 16.3834 66.5031 16.3834C65.4873 16.3834 64.6768 16.5995 64.0716 17.0318C63.4664 17.4424 63.0233 18.0044 62.7423 18.7176C62.483 19.4309 62.3533 20.2306 62.3533 21.1168L62.1588 19.7875C62.2668 18.8149 62.5262 17.8855 62.9369 16.9994C63.3691 16.0916 63.9743 15.3675 64.7524 14.8272C65.5521 14.2652 66.5572 13.9842 67.7675 13.9842C69.3021 13.9842 70.5125 14.4381 71.3986 15.3459C72.3064 16.2321 72.7603 17.5073 72.7603 19.1715V30ZM62.3533 30H59.5651V14.3085H62.3533V30ZM85.478 36.3544C83.4679 36.3544 81.8685 36.041 80.6798 35.4142C79.5126 34.809 78.9291 33.9877 78.9291 32.9503C78.9291 32.4532 79.0479 32.0209 79.2857 31.6534C79.5451 31.3076 79.8693 31.005 80.2583 30.7457C80.669 30.4863 81.0688 30.281 81.4579 30.1297C80.9824 29.9784 80.6041 29.719 80.3231 29.3516C80.0638 28.9842 79.9341 28.5411 79.9341 28.0223C79.9341 27.6117 80.0314 27.1902 80.2259 26.7579C80.442 26.3257 80.7338 25.8934 81.1012 25.4611C81.4903 25.0072 81.955 24.575 82.4953 24.1643L83.1437 24.4561C82.9492 24.7155 82.7439 25.0288 82.5277 25.3963C82.3332 25.7637 82.236 26.1311 82.236 26.4986C82.236 26.9092 82.3764 27.2226 82.6574 27.4388C82.9384 27.6549 83.4896 27.763 84.3109 27.763H89.0443C90.4708 27.763 91.5947 28.0548 92.416 28.6383C93.2589 29.2003 93.6804 30.0865 93.6804 31.2968C93.6804 32.2694 93.3562 33.134 92.7078 33.8905C92.081 34.6686 91.1516 35.2737 89.9196 35.706C88.7093 36.1383 87.2287 36.3544 85.478 36.3544ZM85.478 34.1174C87.272 34.1174 88.6444 33.9013 89.5954 33.469C90.568 33.0367 91.0543 32.4315 91.0543 31.6534C91.0543 31.1347 90.8598 30.7565 90.4708 30.5187C90.0817 30.3026 89.4874 30.1945 88.6876 30.1945H82.2684C82.0306 30.4323 81.7929 30.7024 81.5551 31.005C81.3174 31.3292 81.1985 31.6859 81.1985 32.0749C81.1985 32.7017 81.5551 33.1988 82.2684 33.5663C83.0032 33.9337 84.0731 34.1174 85.478 34.1174ZM86.1264 25.2018C84.8944 25.2018 83.8138 24.964 82.8844 24.4885C81.9766 24.013 81.2525 23.3538 80.7122 22.5109C80.1935 21.6463 79.9341 20.6737 79.9341 19.593C79.9341 18.4907 80.1935 17.5181 80.7122 16.6752C81.2525 15.8322 81.9766 15.173 82.8844 14.6975C83.8138 14.222 84.8944 13.9842 86.1264 13.9842C87.3584 13.9842 88.4391 14.222 89.3685 14.6975C90.3195 15.173 91.0435 15.8322 91.5407 16.6752C92.0594 17.5181 92.3187 18.4907 92.3187 19.593C92.3187 20.6737 92.0594 21.6463 91.5407 22.5109C91.0435 23.3538 90.3195 24.013 89.3685 24.4885C88.4391 24.964 87.3584 25.2018 86.1264 25.2018ZM86.1264 23.0296C87.099 23.0296 87.9204 22.727 88.5904 22.1218C89.2604 21.5166 89.5954 20.6737 89.5954 19.593C89.5954 18.5123 89.2604 17.6694 88.5904 17.0642C87.9204 16.459 87.099 16.1564 86.1264 16.1564C85.1538 16.1564 84.3325 16.459 83.6625 17.0642C82.9924 17.6694 82.6574 18.5123 82.6574 19.593C82.6574 20.6737 82.9924 21.5166 83.6625 22.1218C84.3325 22.727 85.1538 23.0296 86.1264 23.0296ZM92.8051 11.7797L89.563 15.4108L88.8822 14.6975L89.8872 10.7422L92.8051 11.7797ZM107.163 30H103.888L97.8581 8.27823H101.1L104.407 21.7328L105.477 27.3739L106.839 21.7976L110.761 8.27823H114.328L118.186 21.7976L119.515 27.3739L120.617 21.7328L123.989 8.27823H127.166L121.071 30H117.797L113.809 15.8971L112.48 10.6125L111.183 15.8971L107.163 30Z" fill="#F9F2EC"/>
<path d="M141.009 30.133C140.887 30.0841 140.803 29.9622 140.813 29.8234L140.82 29.7196C140.789 29.6647 140.774 29.6001 140.781 29.5327L140.851 28.9006C140.855 28.8632 140.866 28.8284 140.882 28.7968L141.255 23.2972C141.266 23.1313 141.406 23.0055 141.57 23.0071L141.582 22.9014C141.587 22.8549 141.603 22.8124 141.626 22.7756L141.009 30.133Z" fill="#F9F2EC"/>
<path d="M144.135 23.0065C144.307 22.9948 144.457 23.1252 144.469 23.2972L144.833 28.6765C144.885 28.7222 144.923 28.7844 144.935 28.8585L145.024 29.4423C145.042 29.5588 144.992 29.6687 144.905 29.7361L144.911 29.8234C144.919 29.9488 144.852 30.0604 144.748 30.1172L144.078 23.0169C144.096 23.0119 144.115 23.0078 144.135 23.0065Z" fill="#F9F2EC"/>
<path d="M139.724 26.7496C139.77 26.5767 139.954 26.481 140.124 26.5371C140.279 26.5884 140.371 26.7503 140.33 26.9084L139.704 29.2933C139.66 29.4603 139.489 29.5601 139.322 29.5162C139.155 29.4722 139.055 29.3011 139.098 29.1339L139.724 26.7496Z" fill="#F9F2EC"/>
<path d="M145.338 26.6513C145.503 26.6053 145.676 26.6996 145.721 26.8651L146.332 29.0985C146.377 29.265 146.279 29.4369 146.113 29.4826C145.946 29.5279 145.774 29.4299 145.729 29.2634L145.118 27.0293C145.073 26.8652 145.174 26.697 145.338 26.6513Z" fill="#F9F2EC"/>
<path d="M138.081 28.0169C138.145 27.8522 138.335 27.7769 138.497 27.8477C138.649 27.9144 138.724 28.0882 138.664 28.2428L138.417 28.878C138.354 29.0389 138.173 29.1184 138.013 29.0557C137.851 28.993 137.772 28.8114 137.834 28.6502L138.081 28.0169Z" fill="#F9F2EC"/>
<path d="M147.288 27.7659C147.446 27.6929 147.634 27.7604 147.704 27.9192L147.931 28.4364C148 28.5943 147.929 28.7785 147.771 28.8481C147.613 28.9175 147.428 28.846 147.359 28.6881L147.131 28.1714C147.064 28.0168 147.135 27.837 147.288 27.7659Z" fill="#F9F2EC"/>
<path d="M137.575 25.6192C137.663 25.4639 137.866 25.4192 138.016 25.5172C138.152 25.6068 138.199 25.7871 138.118 25.9288L136.857 28.1396C136.771 28.2897 136.58 28.3419 136.43 28.2563C136.28 28.1705 136.228 27.9798 136.314 27.83L137.575 25.6192Z" fill="#F9F2EC"/>
<path d="M147.532 25.7022C147.68 25.613 147.874 25.6583 147.961 25.8073L149.105 27.7665C149.192 27.9154 149.142 28.1068 148.993 28.194C148.844 28.2811 148.652 28.2308 148.565 28.0816L147.421 26.123C147.336 25.977 147.387 25.7896 147.532 25.7022Z" fill="#F9F2EC"/>
<path d="M135.651 26.4443C135.755 26.3021 135.959 26.2789 136.096 26.3893C136.225 26.4931 136.253 26.6807 136.155 26.8144L135.721 27.4068C135.618 27.5459 135.423 27.5755 135.283 27.4733C135.144 27.3711 135.114 27.1758 135.216 27.0367L135.651 26.4443Z" fill="#F9F2EC"/>
<path d="M149.69 26.2391C149.824 26.1272 150.024 26.1435 150.133 26.2794L150.48 26.7124C150.588 26.8471 150.566 27.0435 150.432 27.1515C150.297 27.2594 150.101 27.2378 149.993 27.1032L149.645 26.6696C149.54 26.5384 149.562 26.3473 149.69 26.2391Z" fill="#F9F2EC"/>
<path d="M140.344 22.3994C140.409 22.2315 140.609 22.1618 140.77 22.2419C140.912 22.3123 140.984 22.4789 140.926 22.6266L139.533 26.2055C139.471 26.3663 139.289 26.4458 139.128 26.3832C138.968 26.3205 138.887 26.1391 138.95 25.9783L140.344 22.3994Z" fill="#F9F2EC"/>
<path d="M135.804 23.9843C135.93 23.8576 136.137 23.8671 136.256 24.0001C136.365 24.122 136.364 24.3084 136.249 24.4246L134.404 26.2885C134.282 26.4114 134.084 26.4124 133.961 26.291C133.838 26.1696 133.837 25.9714 133.959 25.8488L135.804 23.9843Z" fill="#F9F2EC"/>
<path d="M149.403 24.1943C149.522 24.0684 149.723 24.0612 149.846 24.1834L151.44 25.7621C151.563 25.8836 151.563 26.0816 151.442 26.2042C151.321 26.3267 151.123 26.3279 151 26.2067L149.406 24.6274C149.286 24.5091 149.287 24.3164 149.403 24.1943Z" fill="#F9F2EC"/>
<path d="M144.815 22.2901C144.972 22.2181 145.16 22.2823 145.23 22.4397L146.712 25.8134C146.781 25.9715 146.709 26.1561 146.551 26.2256C146.393 26.2951 146.208 26.2232 146.139 26.065L144.656 22.6901C144.589 22.5373 144.664 22.3599 144.815 22.2901Z" fill="#F9F2EC"/>
<path d="M133.717 24.3067C133.855 24.1962 134.057 24.2262 134.162 24.3684C134.26 24.5023 134.238 24.6908 134.109 24.7947L133.496 25.2869C133.361 25.3951 133.164 25.373 133.055 25.2381C132.948 25.1035 132.969 24.9069 133.104 24.799L133.717 24.3067Z" fill="#F9F2EC"/>
<path d="M139.294 21.5975C139.401 21.4524 139.612 21.4376 139.747 21.5566C139.866 21.6612 139.891 21.8394 139.798 21.967L137.49 25.1129C137.388 25.2522 137.192 25.2822 137.053 25.1801C136.914 25.0779 136.884 24.8825 136.985 24.7434L139.294 21.5975Z" fill="#F9F2EC"/>
<path d="M145.889 21.6006C146.021 21.4879 146.222 21.4996 146.33 21.6348L148.624 24.4954C148.732 24.63 148.71 24.8266 148.576 24.9345C148.441 25.0428 148.244 25.0212 148.135 24.8863L145.843 22.0257C145.739 21.8966 145.764 21.7082 145.889 21.6006Z" fill="#F9F2EC"/>
<path d="M151.608 24.1351C151.707 23.9917 151.906 23.9549 152.046 24.0582L152.495 24.3873C152.633 24.4894 152.663 24.6845 152.561 24.8234C152.459 24.9627 152.263 24.9928 152.124 24.8906L151.676 24.562C151.541 24.4627 151.512 24.273 151.608 24.1351Z" fill="#F9F2EC"/>
<path d="M134.524 21.9676C134.678 21.8779 134.875 21.9405 134.956 22.099C135.03 22.2447 134.981 22.4243 134.84 22.5069L132.514 23.8658C132.365 23.9528 132.173 23.9023 132.086 23.7534C131.999 23.6043 132.05 23.413 132.199 23.3259L134.524 21.9676Z" fill="#F9F2EC"/>
<path d="M150.807 22.2412C150.889 22.0869 151.082 22.027 151.234 22.1136L153.175 23.2215C153.325 23.307 153.377 23.498 153.291 23.6477C153.206 23.7977 153.015 23.8499 152.865 23.7644L150.924 22.6572C150.779 22.5742 150.728 22.3891 150.807 22.2412Z" fill="#F9F2EC"/>
<path d="M138.495 20.5624C138.636 20.4497 138.844 20.4906 138.944 20.6405C139.032 20.7727 139.01 20.9522 138.887 21.0516L135.798 23.5274C135.663 23.6357 135.466 23.6141 135.358 23.4792C135.25 23.3446 135.271 23.148 135.406 23.0401L138.495 20.5624Z" fill="#F9F2EC"/>
<path d="M146.739 20.6442C146.836 20.4991 147.035 20.4561 147.176 20.5593L150.128 22.7268C150.267 22.829 150.298 23.0248 150.195 23.1641C150.093 23.3033 149.897 23.3334 149.758 23.2312L146.807 21.0644C146.675 20.9673 146.648 20.7807 146.739 20.6442Z" fill="#F9F2EC"/>
<path d="M132.408 21.7551C132.569 21.6841 132.757 21.7659 132.821 21.9304C132.881 22.0852 132.811 22.2612 132.659 22.328L131.895 22.6639C131.737 22.7333 131.553 22.6611 131.483 22.5033C131.414 22.3451 131.486 22.1605 131.644 22.091L132.408 21.7551Z" fill="#F9F2EC"/>
<path d="M152.904 21.6024C152.962 21.4373 153.145 21.3496 153.308 21.4131L153.839 21.6195C154 21.6822 154.079 21.8631 154.017 22.0238C153.954 22.185 153.772 22.265 153.611 22.2022L153.082 21.9957C152.926 21.935 152.848 21.7602 152.904 21.6024Z" fill="#F9F2EC"/>
<path d="M137.996 19.3727C138.16 19.3006 138.35 19.3937 138.408 19.5632C138.46 19.7134 138.393 19.8803 138.248 19.9443L134.574 21.5597C134.416 21.6292 134.232 21.5572 134.162 21.3991C134.093 21.2409 134.164 21.0563 134.323 20.9868L137.996 19.3727Z" fill="#F9F2EC"/>
<path d="M147.3 19.4954C147.355 19.328 147.538 19.2318 147.702 19.2957L151.125 20.6295C151.286 20.6923 151.365 20.8736 151.303 21.0345C151.24 21.1953 151.059 21.2749 150.898 21.2122L147.475 19.8784C147.323 19.8194 147.249 19.6498 147.3 19.4954Z" fill="#F9F2EC"/>
<path d="M133.808 19.7061C133.98 19.6592 134.155 19.771 134.192 19.9449C134.226 20.1056 134.132 20.2668 133.973 20.3101L131.316 21.0363C131.15 21.0818 130.977 20.9835 130.932 20.817C130.886 20.6505 130.985 20.4785 131.151 20.4329L133.808 19.7061Z" fill="#F9F2EC"/>
<path d="M152.019 19.747L154.194 20.3181C154.361 20.3619 154.461 20.5334 154.417 20.7004C154.373 20.8675 154.202 20.9672 154.034 20.9233L151.86 20.3523C151.7 20.31 151.603 20.1468 151.639 19.9846C151.677 19.813 151.849 19.7026 152.019 19.747Z" fill="#F9F2EC"/>
<path d="M131.805 18.9641C131.979 18.9375 132.139 19.065 132.159 19.2401C132.177 19.4052 132.064 19.5568 131.9 19.5822L131.029 19.7159C130.858 19.7421 130.699 19.625 130.672 19.4545C130.646 19.2838 130.763 19.1242 130.934 19.0978L131.805 18.9641Z" fill="#F9F2EC"/>
<path d="M137.817 18.1073C137.994 18.0801 138.153 18.219 138.167 18.3973C138.18 18.5568 138.071 18.7017 137.913 18.7259L133.902 19.3409C133.731 19.3671 133.571 19.2501 133.545 19.0795C133.519 18.9089 133.636 18.7491 133.807 18.7229L137.817 18.1073Z" fill="#F9F2EC"/>
<path d="M154.422 18.5983C154.593 18.6172 154.717 18.7718 154.698 18.9433C154.679 19.115 154.525 19.2389 154.353 19.22L153.756 19.1546C153.591 19.1363 153.472 18.9885 153.483 18.8224C153.496 18.6471 153.65 18.5137 153.825 18.5329L154.422 18.5983Z" fill="#F9F2EC"/>
<path d="M151.544 18.346C151.716 18.365 151.84 18.5195 151.821 18.6911C151.802 18.8627 151.648 18.9866 151.476 18.9678L148 18.5848C147.728 18.5546 147.534 18.3095 147.534 18.0352C147.534 17.9657 147.592 17.9109 147.661 17.9185L151.544 18.346Z" fill="#F9F2EC"/>
<path d="M133.688 17.3536C133.865 17.3528 134.004 17.5021 133.996 17.6785C133.99 17.8438 133.856 17.9788 133.691 17.9796L130.89 17.9937C130.717 17.9945 130.576 17.8549 130.575 17.6822C130.574 17.5096 130.714 17.3693 130.886 17.3683L133.688 17.3536Z" fill="#F9F2EC"/>
<path d="M154.428 17.2504C154.6 17.2497 154.741 17.3893 154.742 17.5619C154.742 17.7345 154.603 17.8754 154.431 17.8764L152.145 17.8874C151.98 17.8882 151.846 17.7574 151.837 17.5924C151.828 17.4158 151.965 17.2629 152.142 17.262L154.428 17.2504Z" fill="#F9F2EC"/>
<path d="M133.893 16.4033L137.961 16.851C138.137 16.8704 138.256 17.0392 138.225 17.2138C138.197 17.3723 138.054 17.4895 137.894 17.4721L133.824 17.0244C133.653 17.0056 133.529 16.8513 133.548 16.68C133.567 16.5083 133.722 16.3844 133.893 16.4033Z" fill="#F9F2EC"/>
<path d="M151.359 16.0314C151.53 16.0054 151.69 16.1227 151.716 16.2934C151.742 16.4641 151.625 16.6233 151.454 16.6495L147.754 17.2162C147.596 17.2404 147.449 17.1315 147.413 16.9756C147.373 16.8015 147.484 16.6252 147.661 16.5981L151.359 16.0314Z" fill="#F9F2EC"/>
<path d="M131.022 16.0222L131.933 16.1224C132.108 16.1416 132.23 16.3041 132.205 16.4778C132.181 16.6429 132.031 16.7629 131.866 16.7447L130.953 16.644C130.782 16.6251 130.658 16.4706 130.677 16.2989C130.696 16.1274 130.85 16.0034 131.022 16.0222Z" fill="#F9F2EC"/>
<path d="M134.173 14.3623C134.236 14.2014 134.417 14.1219 134.578 14.1846L138.41 15.6772C138.574 15.7411 138.645 15.9333 138.573 16.0937C138.506 16.2416 138.335 16.3187 138.184 16.2598L134.351 14.7672C134.19 14.7045 134.111 14.5232 134.173 14.3623Z" fill="#F9F2EC"/>
<path d="M154.203 15.5294C154.374 15.5033 154.534 15.6205 154.56 15.7914C154.586 15.9621 154.469 16.1219 154.298 16.148L153.666 16.2445C153.502 16.2696 153.348 16.157 153.316 15.9935C153.283 15.8206 153.398 15.6526 153.572 15.6259L154.203 15.5294Z" fill="#F9F2EC"/>
<path d="M150.581 13.8444C150.739 13.7751 150.923 13.8465 150.992 14.0044C151.062 14.1626 150.99 14.3471 150.832 14.4166L147.359 15.9422C147.213 16.0061 147.044 15.9407 146.968 15.8012C146.882 15.6434 146.942 15.4422 147.107 15.37L150.581 13.8444Z" fill="#F9F2EC"/>
<path d="M131.425 14.3391L134.161 15.0573C134.331 15.1021 134.427 15.2813 134.376 15.4494C134.327 15.6082 134.163 15.7041 134.002 15.6619L131.266 14.9437C131.099 14.8998 130.999 14.7291 131.043 14.562C131.087 14.395 131.258 14.2953 131.425 14.3391Z" fill="#F9F2EC"/>
<path d="M153.859 14.2267C154.026 14.1811 154.198 14.2797 154.244 14.4466C154.289 14.6131 154.191 14.7846 154.025 14.8301L151.769 15.4463C151.611 15.4895 151.447 15.3966 151.395 15.2405C151.339 15.072 151.433 14.8891 151.604 14.8423L153.859 14.2267Z" fill="#F9F2EC"/>
<path d="M135.377 12.2858C135.479 12.1466 135.675 12.1164 135.814 12.2186L139.135 14.6567C139.276 14.7601 139.295 14.963 139.186 15.0994C139.083 15.2273 138.898 15.2585 138.766 15.1617L135.444 12.7231C135.305 12.6209 135.275 12.4251 135.377 12.2858Z" fill="#F9F2EC"/>
<path d="M149.261 11.9328C149.396 11.8247 149.593 11.8464 149.701 11.9811C149.809 12.116 149.787 12.3127 149.652 12.4208L146.648 14.8295C146.524 14.9286 146.344 14.9106 146.235 14.7959C146.11 14.6654 146.116 14.4537 146.257 14.3409L149.261 11.9328Z" fill="#F9F2EC"/>
<path d="M137.077 10.5917C137.212 10.4837 137.409 10.5057 137.517 10.6405L140.088 13.8481C140.197 13.9832 140.164 14.1817 140.026 14.2859C139.893 14.3856 139.704 14.3686 139.6 14.2395L137.029 11.0308C136.921 10.8962 136.942 10.6996 137.077 10.5917Z" fill="#F9F2EC"/>
<path d="M147.494 10.4274C147.596 10.2884 147.792 10.2587 147.931 10.3608C148.07 10.463 148.1 10.6589 147.998 10.7981L145.683 13.9507C145.59 14.0784 145.412 14.1075 145.277 14.0252C145.123 13.9315 145.073 13.7252 145.179 13.5799L147.494 10.4274Z" fill="#F9F2EC"/>
<path d="M131.498 13.2526C131.561 13.0919 131.742 13.0122 131.903 13.0749L132.781 13.4169C132.944 13.4805 133.019 13.6682 132.95 13.8291C132.885 13.9827 132.71 14.0601 132.554 13.9995L131.676 13.6575C131.515 13.5948 131.435 13.4135 131.498 13.2526Z" fill="#F9F2EC"/>
<path d="M139.157 9.39526C139.315 9.32583 139.5 9.39771 139.569 9.55588L141.213 13.299C141.282 13.4562 141.2 13.6382 141.042 13.7039C140.888 13.7678 140.708 13.7027 140.641 13.55L138.996 9.8075C138.927 9.64932 138.999 9.46474 139.157 9.39526Z" fill="#F9F2EC"/>
<path d="M145.396 9.4319C145.458 9.27103 145.64 9.19146 145.801 9.25418C145.961 9.31658 146.041 9.49779 145.978 9.65848L144.538 13.3558C144.48 13.5036 144.317 13.578 144.164 13.5335C143.992 13.483 143.89 13.297 143.955 13.1292L145.396 9.4319Z" fill="#F9F2EC"/>
<path d="M132.302 11.669C132.387 11.519 132.579 11.4668 132.729 11.5523L135.196 12.9607C135.348 13.0473 135.394 13.244 135.303 13.3931C135.215 13.5355 135.031 13.587 134.886 13.5042L132.418 12.0959C132.268 12.0102 132.216 11.819 132.302 11.669Z" fill="#F9F2EC"/>
<path d="M153.196 12.6217C153.355 12.5524 153.539 12.6243 153.609 12.7823C153.678 12.9405 153.606 13.1251 153.448 13.1946L152.821 13.47C152.669 13.5365 152.492 13.4685 152.418 13.3198C152.34 13.1614 152.408 12.9681 152.569 12.8972L153.196 12.6217Z" fill="#F9F2EC"/>
<path d="M141.477 8.77782C141.647 8.75189 141.807 8.86915 141.833 9.03982L142.446 13.0462C142.472 13.2147 142.347 13.3688 142.178 13.3925C142.012 13.4156 141.854 13.3055 141.828 13.1396L141.215 9.13448C141.189 8.96377 141.306 8.80413 141.477 8.77782Z" fill="#F9F2EC"/>
<path d="M143.457 8.73568C143.628 8.75464 143.752 8.90911 143.733 9.08074L143.307 12.9478C143.282 13.1789 143.076 13.3448 142.843 13.3448C142.733 13.3448 142.644 13.2506 142.657 13.1408L143.112 9.01233C143.13 8.84068 143.285 8.71679 143.457 8.73568Z" fill="#F9F2EC"/>
<path d="M152.526 11.4534C152.676 11.3663 152.867 11.4166 152.955 11.5658C153.042 11.715 152.991 11.9068 152.842 11.9939L150.767 13.205C150.626 13.2873 150.445 13.2414 150.354 13.1054C150.255 12.9572 150.297 12.755 150.451 12.6651L152.526 11.4534Z" fill="#F9F2EC"/>
<path d="M134.268 9.20044C134.39 9.07784 134.588 9.0771 134.711 9.19861L136.721 11.189C136.844 11.3112 136.839 11.5116 136.714 11.6323C136.593 11.7493 136.4 11.7519 136.281 11.6336L134.271 9.64321C134.148 9.52159 134.147 9.32338 134.268 9.20044Z" fill="#F9F2EC"/>
<path d="M133.08 10.5233C133.182 10.3839 133.378 10.3538 133.517 10.4561L134.288 11.0216C134.429 11.1251 134.454 11.3257 134.346 11.4638C134.243 11.5963 134.054 11.6259 133.918 11.5267L133.147 10.9605C133.008 10.8583 132.978 10.6625 133.08 10.5233Z" fill="#F9F2EC"/>
<path d="M150.523 9.11921C150.644 8.99687 150.842 8.99609 150.964 9.11738C151.087 9.23908 151.088 9.4368 150.966 9.55954L149.221 11.3215C149.106 11.4372 148.92 11.4403 148.797 11.3331C148.663 11.2157 148.651 11.0086 148.777 10.8818L150.523 9.11921Z" fill="#F9F2EC"/>
<path d="M151.472 10.0738C151.607 9.96611 151.804 9.98762 151.911 10.122C152.019 10.257 151.997 10.4543 151.863 10.5624L151.287 11.0241C151.157 11.1277 150.969 11.1078 150.86 10.9831C150.744 10.8503 150.758 10.6465 150.896 10.5361L151.472 10.0738Z" fill="#F9F2EC"/>
<path d="M136.805 7.32551C136.954 7.23842 137.146 7.28879 137.233 7.43788L138.643 9.85391C138.73 10.0028 138.674 10.1938 138.524 10.279C138.377 10.3624 138.189 10.3152 138.104 10.169L136.692 7.75363C136.605 7.60447 136.655 7.41265 136.805 7.32551Z" fill="#F9F2EC"/>
<path d="M147.982 7.38414C148.068 7.23423 148.259 7.18204 148.409 7.26749C148.559 7.35309 148.611 7.54399 148.526 7.69378L147.257 9.9156C147.176 10.0573 146.997 10.1085 146.851 10.0365C146.691 9.95772 146.626 9.7604 146.714 9.60535L147.982 7.38414Z" fill="#F9F2EC"/>
<path d="M135.316 8.29534C135.451 8.1876 135.647 8.20954 135.755 8.3442L136.353 9.0899C136.461 9.22564 136.434 9.42427 136.296 9.53023C136.162 9.6328 135.971 9.61276 135.865 9.48137L135.267 8.73568C135.159 8.60084 135.181 8.40365 135.316 8.29534Z" fill="#F9F2EC"/>
<path d="M139.742 6.17063C139.908 6.12548 140.08 6.2235 140.125 6.38988L140.85 9.04409C140.895 9.20977 140.793 9.37966 140.627 9.42335C140.462 9.46644 140.292 9.37155 140.247 9.20777L139.522 6.55478C139.477 6.38817 139.575 6.2163 139.742 6.17063Z" fill="#F9F2EC"/>
<path d="M145.46 6.14254C145.627 6.18621 145.727 6.3569 145.683 6.52363L145.014 9.07035C144.972 9.22828 144.813 9.32421 144.653 9.29266C144.478 9.2581 144.363 9.08421 144.409 8.91156L145.078 6.36484C145.122 6.19796 145.293 6.09864 145.46 6.14254Z" fill="#F9F2EC"/>
<path d="M149.147 8.0596C149.25 7.92057 149.445 7.89035 149.585 7.99242C149.724 8.09463 149.753 8.2907 149.651 8.4297L149.183 9.06608C149.085 9.19968 148.898 9.22959 148.76 9.13753C148.614 9.03968 148.575 8.8393 148.679 8.6972L149.147 8.0596Z" fill="#F9F2EC"/>
<path d="M142.321 5.81763C142.493 5.81676 142.634 5.95637 142.635 6.1291L142.648 8.83461C142.649 8.99838 142.52 9.13262 142.357 9.14303C142.179 9.1542 142.024 9.01586 142.023 8.83767L142.01 6.13215C142.009 5.95947 142.148 5.81853 142.321 5.81763Z" fill="#F9F2EC"/>
<path d="M138.05 6.72334C138.208 6.65385 138.393 6.72575 138.462 6.88396L138.84 7.74386C138.909 7.90262 138.832 8.08715 138.672 8.15365C138.515 8.21845 138.335 8.149 138.267 7.99426L137.889 7.13496C137.82 6.97684 137.892 6.79279 138.05 6.72334Z" fill="#F9F2EC"/>
<path d="M146.379 6.71479C146.442 6.55411 146.623 6.47439 146.784 6.53707C146.945 6.59942 147.024 6.7807 146.962 6.94137L146.657 7.72309C146.597 7.87768 146.424 7.95508 146.267 7.90142C146.1 7.84432 146.01 7.6602 146.074 7.4959L146.379 6.71479Z" fill="#F9F2EC"/>
<path d="M141.099 5.91107C141.27 5.88518 141.429 6.00258 141.455 6.17307L141.594 7.07695C141.62 7.24806 141.497 7.4064 141.326 7.42995C141.158 7.45289 141.002 7.33899 140.976 7.17161L140.837 6.26835C140.811 6.09759 140.928 5.93739 141.099 5.91107Z" fill="#F9F2EC"/>
<path d="M143.702 5.8555C143.874 5.87447 143.998 6.0295 143.979 6.20117L143.882 7.08061C143.863 7.24586 143.717 7.36594 143.551 7.35483C143.375 7.34301 143.24 7.1881 143.259 7.01282L143.357 6.13215C143.376 5.96063 143.531 5.83662 143.702 5.8555Z" fill="#F9F2EC"/>
<path d="M141.009 30.133C140.887 30.0841 140.803 29.9622 140.813 29.8234L140.82 29.7196C140.789 29.6647 140.774 29.6001 140.781 29.5327L140.851 28.9006C140.855 28.8632 140.866 28.8284 140.882 28.7968L141.255 23.2972C141.266 23.1313 141.406 23.0055 141.57 23.0071L141.582 22.9014C141.587 22.8549 141.603 22.8124 141.626 22.7756L141.009 30.133Z" stroke="#F9F2EC" stroke-width="0.253286" stroke-linecap="round"/>
<path d="M144.135 23.0065C144.307 22.9948 144.457 23.1252 144.469 23.2972L144.833 28.6765C144.885 28.7222 144.923 28.7844 144.935 28.8585L145.024 29.4423C145.042 29.5588 144.992 29.6687 144.905 29.7361L144.911 29.8234C144.919 29.9488 144.852 30.0604 144.748 30.1172L144.078 23.0169C144.096 23.0119 144.115 23.0078 144.135 23.0065Z" stroke="#F9F2EC" stroke-width="0.253286" stroke-linecap="round"/>
<path d="M139.724 26.7496C139.77 26.5767 139.954 26.481 140.124 26.5371C140.279 26.5884 140.371 26.7503 140.33 26.9084L139.704 29.2933C139.66 29.4603 139.489 29.5601 139.322 29.5162C139.155 29.4722 139.055 29.3011 139.098 29.1339L139.724 26.7496Z" stroke="#F9F2EC" stroke-width="0.253286" stroke-linecap="round"/>
<path d="M145.338 26.6513C145.503 26.6053 145.676 26.6996 145.721 26.8651L146.332 29.0985C146.377 29.265 146.279 29.4369 146.113 29.4826C145.946 29.5279 145.774 29.4299 145.729 29.2634L145.118 27.0293C145.073 26.8652 145.174 26.697 145.338 26.6513Z" stroke="#F9F2EC" stroke-width="0.253286" stroke-linecap="round"/>
<path d="M138.081 28.0169C138.145 27.8522 138.335 27.7769 138.497 27.8477C138.649 27.9144 138.724 28.0882 138.664 28.2428L138.417 28.878C138.354 29.0389 138.173 29.1184 138.013 29.0557C137.851 28.993 137.772 28.8114 137.834 28.6502L138.081 28.0169Z" stroke="#F9F2EC" stroke-width="0.253286" stroke-linecap="round"/>
<path d="M147.288 27.7659C147.446 27.6929 147.634 27.7604 147.704 27.9192L147.931 28.4364C148 28.5943 147.929 28.7785 147.771 28.8481C147.613 28.9175 147.428 28.846 147.359 28.6881L147.131 28.1714C147.064 28.0168 147.135 27.837 147.288 27.7659Z" stroke="#F9F2EC" stroke-width="0.253286" stroke-linecap="round"/>
<path d="M137.575 25.6192C137.663 25.4639 137.866 25.4192 138.016 25.5172C138.152 25.6068 138.199 25.7871 138.118 25.9288L136.857 28.1396C136.771 28.2897 136.58 28.3419 136.43 28.2563C136.28 28.1705 136.228 27.9798 136.314 27.83L137.575 25.6192Z" stroke="#F9F2EC" stroke-width="0.253286" stroke-linecap="round"/>
<path d="M147.532 25.7022C147.68 25.613 147.874 25.6583 147.961 25.8073L149.105 27.7665C149.192 27.9154 149.142 28.1068 148.993 28.194C148.844 28.2811 148.652 28.2308 148.565 28.0816L147.421 26.123C147.336 25.977 147.387 25.7896 147.532 25.7022Z" stroke="#F9F2EC" stroke-width="0.253286" stroke-linecap="round"/>
<path d="M135.651 26.4443C135.755 26.3021 135.959 26.2789 136.096 26.3893C136.225 26.4931 136.253 26.6807 136.155 26.8144L135.721 27.4068C135.618 27.5459 135.423 27.5755 135.283 27.4733C135.144 27.3711 135.114 27.1758 135.216 27.0367L135.651 26.4443Z" stroke="#F9F2EC" stroke-width="0.253286" stroke-linecap="round"/>
<path d="M149.69 26.2391C149.824 26.1272 150.024 26.1435 150.133 26.2794L150.48 26.7124C150.588 26.8471 150.566 27.0435 150.432 27.1515C150.297 27.2594 150.101 27.2378 149.993 27.1032L149.645 26.6696C149.54 26.5384 149.562 26.3473 149.69 26.2391Z" stroke="#F9F2EC" stroke-width="0.253286" stroke-linecap="round"/>
<path d="M140.344 22.3994C140.409 22.2315 140.609 22.1618 140.77 22.2419C140.912 22.3123 140.984 22.4789 140.926 22.6266L139.533 26.2055C139.471 26.3663 139.289 26.4458 139.128 26.3832C138.968 26.3205 138.887 26.1391 138.95 25.9783L140.344 22.3994Z" stroke="#F9F2EC" stroke-width="0.253286" stroke-linecap="round"/>
<path d="M135.804 23.9843C135.93 23.8576 136.137 23.8671 136.256 24.0001C136.365 24.122 136.364 24.3084 136.249 24.4246L134.404 26.2885C134.282 26.4114 134.084 26.4124 133.961 26.291C133.838 26.1696 133.837 25.9714 133.959 25.8488L135.804 23.9843Z" stroke="#F9F2EC" stroke-width="0.253286" stroke-linecap="round"/>
<path d="M149.403 24.1943C149.522 24.0684 149.723 24.0612 149.846 24.1834L151.44 25.7621C151.563 25.8836 151.563 26.0816 151.442 26.2042C151.321 26.3267 151.123 26.3279 151 26.2067L149.406 24.6274C149.286 24.5091 149.287 24.3164 149.403 24.1943Z" stroke="#F9F2EC" stroke-width="0.253286" stroke-linecap="round"/>
<path d="M144.815 22.2901C144.972 22.2181 145.16 22.2823 145.23 22.4397L146.712 25.8134C146.781 25.9715 146.709 26.1561 146.551 26.2256C146.393 26.2951 146.208 26.2232 146.139 26.065L144.656 22.6901C144.589 22.5373 144.664 22.3599 144.815 22.2901Z" stroke="#F9F2EC" stroke-width="0.253286" stroke-linecap="round"/>
<path d="M133.717 24.3067C133.855 24.1962 134.057 24.2262 134.162 24.3684C134.26 24.5023 134.238 24.6908 134.109 24.7947L133.496 25.2869C133.361 25.3951 133.164 25.373 133.055 25.2381C132.948 25.1035 132.969 24.9069 133.104 24.799L133.717 24.3067Z" stroke="#F9F2EC" stroke-width="0.253286" stroke-linecap="round"/>
<path d="M139.294 21.5975C139.401 21.4524 139.612 21.4376 139.747 21.5566C139.866 21.6612 139.891 21.8394 139.798 21.967L137.49 25.1129C137.388 25.2522 137.192 25.2822 137.053 25.1801C136.914 25.0779 136.884 24.8825 136.985 24.7434L139.294 21.5975Z" stroke="#F9F2EC" stroke-width="0.253286" stroke-linecap="round"/>
<path d="M145.889 21.6006C146.021 21.4879 146.222 21.4996 146.33 21.6348L148.624 24.4954C148.732 24.63 148.71 24.8266 148.576 24.9345C148.441 25.0428 148.244 25.0212 148.135 24.8863L145.843 22.0257C145.739 21.8966 145.764 21.7082 145.889 21.6006Z" stroke="#F9F2EC" stroke-width="0.253286" stroke-linecap="round"/>
<path d="M151.608 24.1351C151.707 23.9917 151.906 23.9549 152.046 24.0582L152.495 24.3873C152.633 24.4894 152.663 24.6845 152.561 24.8234C152.459 24.9627 152.263 24.9928 152.124 24.8906L151.676 24.562C151.541 24.4627 151.512 24.273 151.608 24.1351Z" stroke="#F9F2EC" stroke-width="0.253286" stroke-linecap="round"/>
<path d="M134.524 21.9676C134.678 21.8779 134.875 21.9405 134.956 22.099C135.03 22.2447 134.981 22.4243 134.84 22.5069L132.514 23.8658C132.365 23.9528 132.173 23.9023 132.086 23.7534C131.999 23.6043 132.05 23.413 132.199 23.3259L134.524 21.9676Z" stroke="#F9F2EC" stroke-width="0.253286" stroke-linecap="round"/>
<path d="M150.807 22.2412C150.889 22.0869 151.082 22.027 151.234 22.1136L153.175 23.2215C153.325 23.307 153.377 23.498 153.291 23.6477C153.206 23.7977 153.015 23.8499 152.865 23.7644L150.924 22.6572C150.779 22.5742 150.728 22.3891 150.807 22.2412Z" stroke="#F9F2EC" stroke-width="0.253286" stroke-linecap="round"/>
<path d="M138.495 20.5624C138.636 20.4497 138.844 20.4906 138.944 20.6405C139.032 20.7727 139.01 20.9522 138.887 21.0516L135.798 23.5274C135.663 23.6357 135.466 23.6141 135.358 23.4792C135.25 23.3446 135.271 23.148 135.406 23.0401L138.495 20.5624Z" stroke="#F9F2EC" stroke-width="0.253286" stroke-linecap="round"/>
<path d="M146.739 20.6442C146.836 20.4991 147.035 20.4561 147.176 20.5593L150.128 22.7268C150.267 22.829 150.298 23.0248 150.195 23.1641C150.093 23.3033 149.897 23.3334 149.758 23.2312L146.807 21.0644C146.675 20.9673 146.648 20.7807 146.739 20.6442Z" stroke="#F9F2EC" stroke-width="0.253286" stroke-linecap="round"/>
<path d="M132.408 21.7551C132.569 21.6841 132.757 21.7659 132.821 21.9304C132.881 22.0852 132.811 22.2612 132.659 22.328L131.895 22.6639C131.737 22.7333 131.553 22.6611 131.483 22.5033C131.414 22.3451 131.486 22.1605 131.644 22.091L132.408 21.7551Z" stroke="#F9F2EC" stroke-width="0.253286" stroke-linecap="round"/>
<path d="M152.904 21.6024C152.962 21.4373 153.145 21.3496 153.308 21.4131L153.839 21.6195C154 21.6822 154.079 21.8631 154.017 22.0238C153.954 22.185 153.772 22.265 153.611 22.2022L153.082 21.9957C152.926 21.935 152.848 21.7602 152.904 21.6024Z" stroke="#F9F2EC" stroke-width="0.253286" stroke-linecap="round"/>
<path d="M137.996 19.3727C138.16 19.3006 138.35 19.3937 138.408 19.5632C138.46 19.7134 138.393 19.8803 138.248 19.9443L134.574 21.5597C134.416 21.6292 134.232 21.5572 134.162 21.3991C134.093 21.2409 134.164 21.0563 134.323 20.9868L137.996 19.3727Z" stroke="#F9F2EC" stroke-width="0.253286" stroke-linecap="round"/>
<path d="M147.3 19.4954C147.355 19.328 147.538 19.2318 147.702 19.2957L151.125 20.6295C151.286 20.6923 151.365 20.8736 151.303 21.0345C151.24 21.1953 151.059 21.2749 150.898 21.2122L147.475 19.8784C147.323 19.8194 147.249 19.6498 147.3 19.4954Z" stroke="#F9F2EC" stroke-width="0.253286" stroke-linecap="round"/>
<path d="M133.808 19.7061C133.98 19.6592 134.155 19.771 134.192 19.9449C134.226 20.1056 134.132 20.2668 133.973 20.3101L131.316 21.0363C131.15 21.0818 130.977 20.9835 130.932 20.817C130.886 20.6505 130.985 20.4785 131.151 20.4329L133.808 19.7061Z" stroke="#F9F2EC" stroke-width="0.253286" stroke-linecap="round"/>
<path d="M152.019 19.747L154.194 20.3181C154.361 20.3619 154.461 20.5334 154.417 20.7004C154.373 20.8675 154.202 20.9672 154.034 20.9233L151.86 20.3523C151.7 20.31 151.603 20.1468 151.639 19.9846C151.677 19.813 151.849 19.7026 152.019 19.747Z" stroke="#F9F2EC" stroke-width="0.253286" stroke-linecap="round"/>
<path d="M131.805 18.9641C131.979 18.9375 132.139 19.065 132.159 19.2401C132.177 19.4052 132.064 19.5568 131.9 19.5822L131.029 19.7159C130.858 19.7421 130.699 19.625 130.672 19.4545C130.646 19.2838 130.763 19.1242 130.934 19.0978L131.805 18.9641Z" stroke="#F9F2EC" stroke-width="0.253286" stroke-linecap="round"/>
<path d="M137.817 18.1073C137.994 18.0801 138.153 18.219 138.167 18.3973C138.18 18.5568 138.071 18.7017 137.913 18.7259L133.902 19.3409C133.731 19.3671 133.571 19.2501 133.545 19.0795C133.519 18.9089 133.636 18.7491 133.807 18.7229L137.817 18.1073Z" stroke="#F9F2EC" stroke-width="0.253286" stroke-linecap="round"/>
<path d="M154.422 18.5983C154.593 18.6172 154.717 18.7718 154.698 18.9433C154.679 19.115 154.525 19.2389 154.353 19.22L153.756 19.1546C153.591 19.1363 153.472 18.9885 153.483 18.8224C153.496 18.6471 153.65 18.5137 153.825 18.5329L154.422 18.5983Z" stroke="#F9F2EC" stroke-width="0.253286" stroke-linecap="round"/>
<path d="M151.544 18.346C151.716 18.365 151.84 18.5195 151.821 18.6911C151.802 18.8627 151.648 18.9866 151.476 18.9678L148 18.5848C147.728 18.5546 147.534 18.3095 147.534 18.0352C147.534 17.9657 147.592 17.9109 147.661 17.9185L151.544 18.346Z" stroke="#F9F2EC" stroke-width="0.253286" stroke-linecap="round"/>
<path d="M133.688 17.3536C133.865 17.3528 134.004 17.5021 133.996 17.6785C133.99 17.8438 133.856 17.9788 133.691 17.9796L130.89 17.9937C130.717 17.9945 130.576 17.8549 130.575 17.6822C130.574 17.5096 130.714 17.3693 130.886 17.3683L133.688 17.3536Z" stroke="#F9F2EC" stroke-width="0.253286" stroke-linecap="round"/>
<path d="M154.428 17.2504C154.6 17.2497 154.741 17.3893 154.742 17.5619C154.742 17.7345 154.603 17.8754 154.431 17.8764L152.145 17.8874C151.98 17.8882 151.846 17.7574 151.837 17.5924C151.828 17.4158 151.965 17.2629 152.142 17.262L154.428 17.2504Z" stroke="#F9F2EC" stroke-width="0.253286" stroke-linecap="round"/>
<path d="M133.893 16.4033L137.961 16.851C138.137 16.8704 138.256 17.0392 138.225 17.2138C138.197 17.3723 138.054 17.4895 137.894 17.4721L133.824 17.0244C133.653 17.0056 133.529 16.8513 133.548 16.68C133.567 16.5083 133.722 16.3844 133.893 16.4033Z" stroke="#F9F2EC" stroke-width="0.253286" stroke-linecap="round"/>
<path d="M151.359 16.0314C151.53 16.0054 151.69 16.1227 151.716 16.2934C151.742 16.4641 151.625 16.6233 151.454 16.6495L147.754 17.2162C147.596 17.2404 147.449 17.1315 147.413 16.9756C147.373 16.8015 147.484 16.6252 147.661 16.5981L151.359 16.0314Z" stroke="#F9F2EC" stroke-width="0.253286" stroke-linecap="round"/>
<path d="M131.022 16.0222L131.933 16.1224C132.108 16.1416 132.23 16.3041 132.205 16.4778C132.181 16.6429 132.031 16.7629 131.866 16.7447L130.953 16.644C130.782 16.6251 130.658 16.4706 130.677 16.2989C130.696 16.1274 130.85 16.0034 131.022 16.0222Z" stroke="#F9F2EC" stroke-width="0.253286" stroke-linecap="round"/>
<path d="M134.173 14.3623C134.236 14.2014 134.417 14.1219 134.578 14.1846L138.41 15.6772C138.574 15.7411 138.645 15.9333 138.573 16.0937C138.506 16.2416 138.335 16.3187 138.184 16.2598L134.351 14.7672C134.19 14.7045 134.111 14.5232 134.173 14.3623Z" stroke="#F9F2EC" stroke-width="0.253286" stroke-linecap="round"/>
<path d="M154.203 15.5294C154.374 15.5033 154.534 15.6205 154.56 15.7914C154.586 15.9621 154.469 16.1219 154.298 16.148L153.666 16.2445C153.502 16.2696 153.348 16.157 153.316 15.9935C153.283 15.8206 153.398 15.6526 153.572 15.6259L154.203 15.5294Z" stroke="#F9F2EC" stroke-width="0.253286" stroke-linecap="round"/>
<path d="M150.581 13.8444C150.739 13.7751 150.923 13.8465 150.992 14.0044C151.062 14.1626 150.99 14.3471 150.832 14.4166L147.359 15.9422C147.213 16.0061 147.044 15.9407 146.968 15.8012C146.882 15.6434 146.942 15.4422 147.107 15.37L150.581 13.8444Z" stroke="#F9F2EC" stroke-width="0.253286" stroke-linecap="round"/>
<path d="M131.425 14.3391L134.161 15.0573C134.331 15.1021 134.427 15.2813 134.376 15.4494C134.327 15.6082 134.163 15.7041 134.002 15.6619L131.266 14.9437C131.099 14.8998 130.999 14.7291 131.043 14.562C131.087 14.395 131.258 14.2953 131.425 14.3391Z" stroke="#F9F2EC" stroke-width="0.253286" stroke-linecap="round"/>
<path d="M153.859 14.2267C154.026 14.1811 154.198 14.2797 154.244 14.4466C154.289 14.6131 154.191 14.7846 154.025 14.8301L151.769 15.4463C151.611 15.4895 151.447 15.3966 151.395 15.2405C151.339 15.072 151.433 14.8891 151.604 14.8423L153.859 14.2267Z" stroke="#F9F2EC" stroke-width="0.253286" stroke-linecap="round"/>
<path d="M135.377 12.2858C135.479 12.1466 135.675 12.1164 135.814 12.2186L139.135 14.6567C139.276 14.7601 139.295 14.963 139.186 15.0994C139.083 15.2273 138.898 15.2585 138.766 15.1617L135.444 12.7231C135.305 12.6209 135.275 12.4251 135.377 12.2858Z" stroke="#F9F2EC" stroke-width="0.253286" stroke-linecap="round"/>
<path d="M149.261 11.9328C149.396 11.8247 149.593 11.8464 149.701 11.9811C149.809 12.116 149.787 12.3127 149.652 12.4208L146.648 14.8295C146.524 14.9286 146.344 14.9106 146.235 14.7959C146.11 14.6654 146.116 14.4537 146.257 14.3409L149.261 11.9328Z" stroke="#F9F2EC" stroke-width="0.253286" stroke-linecap="round"/>
<path d="M137.077 10.5917C137.212 10.4837 137.409 10.5057 137.517 10.6405L140.088 13.8481C140.197 13.9832 140.164 14.1817 140.026 14.2859C139.893 14.3856 139.704 14.3686 139.6 14.2395L137.029 11.0308C136.921 10.8962 136.942 10.6996 137.077 10.5917Z" stroke="#F9F2EC" stroke-width="0.253286" stroke-linecap="round"/>
<path d="M147.494 10.4274C147.596 10.2884 147.792 10.2587 147.931 10.3608C148.07 10.463 148.1 10.6589 147.998 10.7981L145.683 13.9507C145.59 14.0784 145.412 14.1075 145.277 14.0252C145.123 13.9315 145.073 13.7252 145.179 13.5799L147.494 10.4274Z" stroke="#F9F2EC" stroke-width="0.253286" stroke-linecap="round"/>
<path d="M131.498 13.2526C131.561 13.0919 131.742 13.0122 131.903 13.0749L132.781 13.4169C132.944 13.4805 133.019 13.6682 132.95 13.8291C132.885 13.9827 132.71 14.0601 132.554 13.9995L131.676 13.6575C131.515 13.5948 131.435 13.4135 131.498 13.2526Z" stroke="#F9F2EC" stroke-width="0.253286" stroke-linecap="round"/>
<path d="M139.157 9.39526C139.315 9.32583 139.5 9.39771 139.569 9.55588L141.213 13.299C141.282 13.4562 141.2 13.6382 141.042 13.7039C140.888 13.7678 140.708 13.7027 140.641 13.55L138.996 9.8075C138.927 9.64932 138.999 9.46474 139.157 9.39526Z" stroke="#F9F2EC" stroke-width="0.253286" stroke-linecap="round"/>
<path d="M145.396 9.4319C145.458 9.27103 145.64 9.19146 145.801 9.25418C145.961 9.31658 146.041 9.49779 145.978 9.65848L144.538 13.3558C144.48 13.5036 144.317 13.578 144.164 13.5335C143.992 13.483 143.89 13.297 143.955 13.1292L145.396 9.4319Z" stroke="#F9F2EC" stroke-width="0.253286" stroke-linecap="round"/>
<path d="M132.302 11.669C132.387 11.519 132.579 11.4668 132.729 11.5523L135.196 12.9607C135.348 13.0473 135.394 13.244 135.303 13.3931C135.215 13.5355 135.031 13.587 134.886 13.5042L132.418 12.0959C132.268 12.0102 132.216 11.819 132.302 11.669Z" stroke="#F9F2EC" stroke-width="0.253286" stroke-linecap="round"/>
<path d="M153.196 12.6217C153.355 12.5524 153.539 12.6243 153.609 12.7823C153.678 12.9405 153.606 13.1251 153.448 13.1946L152.821 13.47C152.669 13.5365 152.492 13.4685 152.418 13.3198C152.34 13.1614 152.408 12.9681 152.569 12.8972L153.196 12.6217Z" stroke="#F9F2EC" stroke-width="0.253286" stroke-linecap="round"/>
<path d="M141.477 8.77782C141.647 8.75189 141.807 8.86915 141.833 9.03982L142.446 13.0462C142.472 13.2147 142.347 13.3688 142.178 13.3925C142.012 13.4156 141.854 13.3055 141.828 13.1396L141.215 9.13448C141.189 8.96377 141.306 8.80413 141.477 8.77782Z" stroke="#F9F2EC" stroke-width="0.253286" stroke-linecap="round"/>
<path d="M143.457 8.73568C143.628 8.75464 143.752 8.90911 143.733 9.08074L143.307 12.9478C143.282 13.1789 143.076 13.3448 142.843 13.3448C142.733 13.3448 142.644 13.2506 142.657 13.1408L143.112 9.01233C143.13 8.84068 143.285 8.71679 143.457 8.73568Z" stroke="#F9F2EC" stroke-width="0.253286" stroke-linecap="round"/>
<path d="M152.526 11.4534C152.676 11.3663 152.867 11.4166 152.955 11.5658C153.042 11.715 152.991 11.9068 152.842 11.9939L150.767 13.205C150.626 13.2873 150.445 13.2414 150.354 13.1054C150.255 12.9572 150.297 12.755 150.451 12.6651L152.526 11.4534Z" stroke="#F9F2EC" stroke-width="0.253286" stroke-linecap="round"/>
<path d="M134.268 9.20044C134.39 9.07784 134.588 9.0771 134.711 9.19861L136.721 11.189C136.844 11.3112 136.839 11.5116 136.714 11.6323C136.593 11.7493 136.4 11.7519 136.281 11.6336L134.271 9.64321C134.148 9.52159 134.147 9.32338 134.268 9.20044Z" stroke="#F9F2EC" stroke-width="0.253286" stroke-linecap="round"/>
<path d="M133.08 10.5233C133.182 10.3839 133.378 10.3538 133.517 10.4561L134.288 11.0216C134.429 11.1251 134.454 11.3257 134.346 11.4638C134.243 11.5963 134.054 11.6259 133.918 11.5267L133.147 10.9605C133.008 10.8583 132.978 10.6625 133.08 10.5233Z" stroke="#F9F2EC" stroke-width="0.253286" stroke-linecap="round"/>
<path d="M150.523 9.11921C150.644 8.99687 150.842 8.99609 150.964 9.11738C151.087 9.23908 151.088 9.4368 150.966 9.55954L149.221 11.3215C149.106 11.4372 148.92 11.4403 148.797 11.3331C148.663 11.2157 148.651 11.0086 148.777 10.8818L150.523 9.11921Z" stroke="#F9F2EC" stroke-width="0.253286" stroke-linecap="round"/>
<path d="M151.472 10.0738C151.607 9.96611 151.804 9.98762 151.911 10.122C152.019 10.257 151.997 10.4543 151.863 10.5624L151.287 11.0241C151.157 11.1277 150.969 11.1078 150.86 10.9831C150.744 10.8503 150.758 10.6465 150.896 10.5361L151.472 10.0738Z" stroke="#F9F2EC" stroke-width="0.253286" stroke-linecap="round"/>
<path d="M136.805 7.32551C136.954 7.23842 137.146 7.28879 137.233 7.43788L138.643 9.85391C138.73 10.0028 138.674 10.1938 138.524 10.279C138.377 10.3624 138.189 10.3152 138.104 10.169L136.692 7.75363C136.605 7.60447 136.655 7.41265 136.805 7.32551Z" stroke="#F9F2EC" stroke-width="0.253286" stroke-linecap="round"/>
<path d="M147.982 7.38414C148.068 7.23423 148.259 7.18204 148.409 7.26749C148.559 7.35309 148.611 7.54399 148.526 7.69378L147.257 9.9156C147.176 10.0573 146.997 10.1085 146.851 10.0365C146.691 9.95772 146.626 9.7604 146.714 9.60535L147.982 7.38414Z" stroke="#F9F2EC" stroke-width="0.253286" stroke-linecap="round"/>
<path d="M135.316 8.29534C135.451 8.1876 135.647 8.20954 135.755 8.3442L136.353 9.0899C136.461 9.22564 136.434 9.42427 136.296 9.53023C136.162 9.6328 135.971 9.61276 135.865 9.48137L135.267 8.73568C135.159 8.60084 135.181 8.40365 135.316 8.29534Z" stroke="#F9F2EC" stroke-width="0.253286" stroke-linecap="round"/>
<path d="M139.742 6.17063C139.908 6.12548 140.08 6.2235 140.125 6.38988L140.85 9.04409C140.895 9.20977 140.793 9.37966 140.627 9.42335C140.462 9.46644 140.292 9.37155 140.247 9.20777L139.522 6.55478C139.477 6.38817 139.575 6.2163 139.742 6.17063Z" stroke="#F9F2EC" stroke-width="0.253286" stroke-linecap="round"/>
<path d="M145.46 6.14254C145.627 6.18621 145.727 6.3569 145.683 6.52363L145.014 9.07035C144.972 9.22828 144.813 9.32421 144.653 9.29266C144.478 9.2581 144.363 9.08421 144.409 8.91156L145.078 6.36484C145.122 6.19796 145.293 6.09864 145.46 6.14254Z" stroke="#F9F2EC" stroke-width="0.253286" stroke-linecap="round"/>
<path d="M149.147 8.0596C149.25 7.92057 149.445 7.89035 149.585 7.99242C149.724 8.09463 149.753 8.2907 149.651 8.4297L149.183 9.06608C149.085 9.19968 148.898 9.22959 148.76 9.13753C148.614 9.03968 148.575 8.8393 148.679 8.6972L149.147 8.0596Z" stroke="#F9F2EC" stroke-width="0.253286" stroke-linecap="round"/>
<path d="M142.321 5.81763C142.493 5.81676 142.634 5.95637 142.635 6.1291L142.648 8.83461C142.649 8.99838 142.52 9.13262 142.357 9.14303C142.179 9.1542 142.024 9.01586 142.023 8.83767L142.01 6.13215C142.009 5.95947 142.148 5.81853 142.321 5.81763Z" stroke="#F9F2EC" stroke-width="0.253286" stroke-linecap="round"/>
<path d="M138.05 6.72334C138.208 6.65385 138.393 6.72575 138.462 6.88396L138.84 7.74386C138.909 7.90262 138.832 8.08715 138.672 8.15365C138.515 8.21845 138.335 8.149 138.267 7.99426L137.889 7.13496C137.82 6.97684 137.892 6.79279 138.05 6.72334Z" stroke="#F9F2EC" stroke-width="0.253286" stroke-linecap="round"/>
<path d="M146.379 6.71479C146.442 6.55411 146.623 6.47439 146.784 6.53707C146.945 6.59942 147.024 6.7807 146.962 6.94137L146.657 7.72309C146.597 7.87768 146.424 7.95508 146.267 7.90142C146.1 7.84432 146.01 7.6602 146.074 7.4959L146.379 6.71479Z" stroke="#F9F2EC" stroke-width="0.253286" stroke-linecap="round"/>
<path d="M141.099 5.91107C141.27 5.88518 141.429 6.00258 141.455 6.17307L141.594 7.07695C141.62 7.24806 141.497 7.4064 141.326 7.42995C141.158 7.45289 141.002 7.33899 140.976 7.17161L140.837 6.26835C140.811 6.09759 140.928 5.93739 141.099 5.91107Z" stroke="#F9F2EC" stroke-width="0.253286" stroke-linecap="round"/>
<path d="M143.702 5.8555C143.874 5.87447 143.998 6.0295 143.979 6.20117L143.882 7.08061C143.863 7.24586 143.717 7.36594 143.551 7.35483C143.375 7.34301 143.24 7.1881 143.259 7.01282L143.357 6.13215C143.376 5.96063 143.531 5.83662 143.702 5.8555Z" stroke="#F9F2EC" stroke-width="0.253286" stroke-linecap="round"/>
<path d="M162.709 30H159.921V14.3085H162.709V30ZM162.709 21.1168L162.515 19.7875C162.601 19.0527 162.763 18.3394 163.001 17.6478C163.26 16.9561 163.595 16.3401 164.006 15.7998C164.438 15.2378 164.957 14.7948 165.562 14.4706C166.167 14.1464 166.859 13.9842 167.637 13.9842C168.48 13.9842 169.237 14.2652 169.907 14.8272C170.598 15.3891 170.944 16.2321 170.944 17.356C170.944 18.026 170.868 18.5988 170.717 19.0743C170.587 19.5282 170.458 19.8524 170.328 20.0469H167.248C167.507 19.8091 167.724 19.4741 167.896 19.0419C168.091 18.6096 168.188 18.1773 168.188 17.745C168.188 17.2911 168.059 16.9021 167.799 16.5779C167.561 16.2321 167.151 16.0592 166.567 16.0592C165.897 16.0592 165.27 16.2969 164.687 16.7724C164.103 17.2479 163.628 17.8639 163.26 18.6204C162.893 19.3769 162.709 20.209 162.709 21.1168ZM179.597 30H176.809V8.27823H179.597V19.3336L179.532 21.5058L181.834 19.2364L186.989 14.3085H190.523L182.742 21.6679L182.45 21.83L179.597 24.5209V30ZM190.62 30H187.216L181.672 21.441L183.617 19.7227L190.62 30ZM201.66 30.3242C200.579 30.3242 199.542 30.1621 198.547 29.8379C197.553 29.5137 196.689 29.0382 195.954 28.4114C195.24 27.763 194.7 26.9525 194.333 25.9799L196.375 24.3912C196.57 24.9748 196.883 25.5476 197.315 26.1095C197.769 26.6499 198.364 27.093 199.098 27.4388C199.833 27.7846 200.719 27.9575 201.757 27.9575C202.686 27.9575 203.432 27.7846 203.994 27.4388C204.556 27.0713 204.837 26.5418 204.837 25.8502C204.837 25.1369 204.513 24.629 203.864 24.3264C203.237 24.0238 202.47 23.7644 201.562 23.5483L199.487 23.062C198.753 22.8891 198.029 22.6405 197.315 22.3163C196.602 21.9705 196.008 21.5058 195.532 20.9222C195.057 20.3171 194.819 19.539 194.819 18.588C194.819 17.1615 195.327 16.0376 196.343 15.2162C197.359 14.3949 198.72 13.9842 200.428 13.9842C202.092 13.9842 203.475 14.3625 204.578 15.119C205.701 15.8754 206.48 16.7724 206.912 17.8099L204.772 19.3985C204.383 18.4691 203.81 17.7342 203.054 17.1939C202.319 16.6535 201.39 16.3834 200.266 16.3834C199.444 16.3834 198.774 16.5563 198.256 16.9021C197.737 17.2479 197.477 17.7558 197.477 18.4259C197.477 19.1175 197.737 19.6254 198.256 19.9496C198.796 20.2738 199.596 20.5656 200.655 20.825L202.665 21.3437C204.437 21.7544 205.658 22.3379 206.328 23.0944C207.02 23.8293 207.366 24.7371 207.366 25.8177C207.366 26.8552 207.096 27.7089 206.555 28.379C206.036 29.0274 205.345 29.5137 204.48 29.8379C203.637 30.1621 202.697 30.3242 201.66 30.3242Z" fill="#F9F2EC"/>
</svg>
