<svg width="37" height="37" viewBox="0 0 37 37" fill="none" xmlns="http://www.w3.org/2000/svg">
<path d="M15.7322 36.4106C15.5496 36.3377 15.4253 36.1561 15.4392 35.9494L15.4493 35.7947C15.4032 35.7129 15.381 35.6168 15.3919 35.5163L15.4957 34.5747C15.5018 34.5189 15.5183 34.4672 15.542 34.42L16.0979 26.2275C16.1151 25.9803 16.3226 25.7929 16.5674 25.7953L16.5856 25.6379C16.5933 25.5686 16.6163 25.5052 16.6511 25.4505L15.7322 36.4106Z" fill="#F9F2EC"/>
<path d="M20.3884 25.7944C20.6449 25.777 20.8674 25.9712 20.8852 26.2275L21.4274 34.2408C21.5052 34.309 21.5624 34.4016 21.5793 34.5119L21.7122 35.3817C21.7388 35.5552 21.6644 35.719 21.5348 35.8193L21.5439 35.9494C21.5564 36.1362 21.4559 36.3025 21.3019 36.387L20.3029 25.8099C20.3305 25.8025 20.3589 25.7964 20.3884 25.7944Z" fill="#F9F2EC"/>
<path d="M13.818 31.3705C13.8856 31.1129 14.1602 30.9702 14.413 31.0539C14.6441 31.1303 14.7813 31.3715 14.7196 31.607L13.7871 35.1597C13.7218 35.4085 13.4672 35.5572 13.2185 35.4918C12.9694 35.4263 12.8201 35.1714 12.8855 34.9222L13.818 31.3705Z" fill="#F9F2EC"/>
<path d="M22.1798 31.224C22.426 31.1554 22.6837 31.2959 22.7511 31.5424L23.6609 34.8695C23.7287 35.1176 23.5824 35.3737 23.3343 35.4417C23.0861 35.5093 22.83 35.3632 22.7621 35.1151L21.8523 31.7871C21.7854 31.5427 21.9357 31.2921 22.1798 31.224Z" fill="#F9F2EC"/>
<path d="M11.3698 33.2583C11.4652 33.013 11.7483 32.9007 11.9894 33.0062C12.2157 33.1055 12.3281 33.3645 12.2386 33.5949L11.8702 34.541C11.7769 34.7807 11.5075 34.8992 11.2679 34.8058C11.0278 34.7123 10.9088 34.4419 11.0022 34.2017L11.3698 33.2583Z" fill="#F9F2EC"/>
<path d="M25.0856 32.8843C25.32 32.7756 25.6002 32.8762 25.7043 33.1127L26.0427 33.8833C26.1461 34.1184 26.0394 34.3929 25.8044 34.4965C25.5688 34.5999 25.294 34.4934 25.1903 34.2581L24.8518 33.4884C24.7508 33.2582 24.8576 32.9903 25.0856 32.8843Z" fill="#F9F2EC"/>
<path d="M10.6156 29.6865C10.7475 29.4552 11.0499 29.3885 11.2725 29.5345C11.4756 29.668 11.5458 29.9366 11.4253 30.1477L9.54569 33.4411C9.41814 33.6647 9.13333 33.7424 8.90975 33.6149C8.68691 33.4872 8.6096 33.203 8.7369 32.9799L10.6156 29.6865Z" fill="#F9F2EC"/>
<path d="M25.4486 29.8102C25.6688 29.6773 25.9575 29.7447 26.0873 29.9667L27.7913 32.8852C27.9209 33.1071 27.8464 33.3923 27.6248 33.5221C27.4026 33.6519 27.1169 33.5769 26.9871 33.3547L25.2831 30.437C25.1561 30.2196 25.2331 29.9404 25.4486 29.8102Z" fill="#F9F2EC"/>
<path d="M7.74978 30.9156C7.90544 30.7038 8.208 30.6692 8.41301 30.8337C8.60554 30.9884 8.64646 31.2678 8.50035 31.4669L7.8535 32.3494C7.70118 32.5567 7.40954 32.6007 7.2021 32.4486C6.99517 32.2963 6.95006 32.0053 7.10202 31.7981L7.74978 30.9156Z" fill="#F9F2EC"/>
<path d="M28.6638 30.6099C28.8625 30.4433 29.1612 30.4676 29.3234 30.6699L29.8401 31.315C30.001 31.5156 29.9689 31.8083 29.7683 31.9691C29.5678 32.1299 29.2749 32.0977 29.1141 31.8972L28.5965 31.2513C28.4398 31.0558 28.472 30.7711 28.6638 30.6099Z" fill="#F9F2EC"/>
<path d="M14.7405 24.8901C14.8379 24.6399 15.135 24.5361 15.3756 24.6554C15.5871 24.7603 15.6941 25.0085 15.6085 25.2285L13.5333 30.5598C13.4399 30.7994 13.1697 30.9178 12.9301 30.8246C12.6905 30.7312 12.5711 30.461 12.6644 30.2214L14.7405 24.8901Z" fill="#F9F2EC"/>
<path d="M7.97814 27.251C8.16528 27.0622 8.47423 27.0764 8.65138 27.2746C8.81359 27.4562 8.81163 27.7338 8.64046 27.9069L5.89201 30.6836C5.71081 30.8666 5.41565 30.8681 5.23242 30.6872C5.04977 30.5064 5.04801 30.2112 5.22878 30.0285L7.97814 27.251Z" fill="#F9F2EC"/>
<path d="M28.2353 27.5639C28.4133 27.3763 28.712 27.3656 28.8958 27.5476L31.2703 29.8993C31.4531 30.0804 31.4542 30.3754 31.2731 30.558C31.0923 30.7404 30.7979 30.7422 30.6153 30.5617L28.2398 28.209C28.0621 28.0327 28.0632 27.7457 28.2353 27.5639Z" fill="#F9F2EC"/>
<path d="M21.4019 24.7272C21.6346 24.62 21.9157 24.7156 22.0188 24.9501L24.2268 29.9758C24.3302 30.2114 24.2231 30.4863 23.9875 30.5899C23.7519 30.6934 23.477 30.5862 23.3734 30.3506L21.1645 25.3232C21.0646 25.0955 21.1761 24.8313 21.4019 24.7272Z" fill="#F9F2EC"/>
<path d="M4.86942 27.7313C5.07459 27.5667 5.37592 27.6114 5.53174 27.8232C5.67816 28.0227 5.64566 28.3034 5.45259 28.4583L4.53917 29.1915C4.33811 29.3526 4.04449 29.3197 3.88322 29.1188C3.72262 28.9183 3.75471 28.6254 3.95509 28.4646L4.86942 27.7313Z" fill="#F9F2EC"/>
<path d="M13.1766 23.6956C13.3357 23.4793 13.65 23.4573 13.8517 23.6346C14.0288 23.7903 14.0666 24.0558 13.9272 24.246L10.4891 28.9323C10.3369 29.1397 10.0452 29.1845 9.83773 29.0323C9.63078 28.8801 9.58592 28.5891 9.73765 28.3818L13.1766 23.6956Z" fill="#F9F2EC"/>
<path d="M23.0013 23.7001C23.1974 23.5322 23.4967 23.5496 23.6582 23.7511L27.0753 28.0125C27.236 28.213 27.2039 28.5058 27.0035 28.6666C26.8025 28.8278 26.5087 28.7957 26.3475 28.5947L22.9322 24.3333C22.7782 24.1411 22.8143 23.8604 23.0013 23.7001Z" fill="#F9F2EC"/>
<path d="M31.5205 27.4757C31.6686 27.2621 31.9642 27.2073 32.1737 27.3611L32.8415 27.8514C33.0482 28.0035 33.0925 28.2942 32.9407 28.501C32.7885 28.7085 32.4967 28.7534 32.2893 28.6011L31.6224 28.1116C31.4211 27.9637 31.3783 27.6811 31.5205 27.4757Z" fill="#F9F2EC"/>
<path d="M6.07124 24.2469C6.30016 24.1132 6.59403 24.2064 6.71445 24.4425C6.82489 24.6596 6.75177 24.9271 6.5416 25.0502L3.07624 27.0745C2.85437 27.2041 2.56914 27.1289 2.4394 26.9071C2.31005 26.685 2.38495 26.4001 2.6068 26.2702L6.07124 24.2469Z" fill="#F9F2EC"/>
<path d="M30.3269 24.6545C30.4488 24.4246 30.7368 24.3353 30.9628 24.4643L33.855 26.1147C34.0781 26.242 34.1554 26.5267 34.0279 26.7497C33.9004 26.9731 33.6163 27.0508 33.3928 26.9235L30.5016 25.274C30.2851 25.1505 30.2102 24.8747 30.3269 24.6545Z" fill="#F9F2EC"/>
<path d="M11.9866 22.1535C12.1962 21.9857 12.5062 22.0466 12.6553 22.2699C12.7866 22.4668 12.7544 22.7342 12.5698 22.8822L7.96904 26.5705C7.76798 26.7317 7.47441 26.6995 7.31309 26.4986C7.15231 26.2981 7.18449 26.0053 7.38496 25.8445L11.9866 22.1535Z" fill="#F9F2EC"/>
<path d="M24.2677 22.2754C24.4121 22.0592 24.7086 21.9952 24.9182 22.1489L29.3161 25.3777C29.5235 25.53 29.5684 25.8217 29.4162 26.0291C29.264 26.2366 28.9723 26.2814 28.7648 26.1292L24.3687 22.9013C24.1717 22.7566 24.1321 22.4787 24.2677 22.2754Z" fill="#F9F2EC"/>
<path d="M2.91885 23.9303C3.15945 23.8245 3.43884 23.9463 3.53386 24.1914C3.62316 24.422 3.51915 24.6841 3.29277 24.7837L2.15464 25.284C1.91942 25.3874 1.64496 25.2799 1.54145 25.0448C1.43818 24.8092 1.5452 24.5342 1.78072 24.4307L2.91885 23.9303Z" fill="#F9F2EC"/>
<path d="M33.4511 23.7028C33.538 23.4568 33.8102 23.3263 34.0533 23.4208L34.8439 23.7283C35.0833 23.8217 35.2018 24.0911 35.1087 24.3306C35.0152 24.5707 34.7447 24.6898 34.5046 24.5962L33.7158 24.2887C33.4835 24.1982 33.3681 23.9379 33.4511 23.7028Z" fill="#F9F2EC"/>
<path d="M11.2433 20.3812C11.488 20.2739 11.7702 20.4125 11.8574 20.6651C11.9347 20.8889 11.8349 21.1375 11.6182 21.2328L6.14584 23.6392C5.91024 23.7427 5.63531 23.6355 5.53174 23.3999C5.42826 23.1643 5.53542 22.8893 5.77101 22.7858L11.2433 20.3812Z" fill="#F9F2EC"/>
<path d="M25.1029 20.5641C25.1849 20.3147 25.4579 20.1713 25.7025 20.2666L30.8009 22.2536C31.0404 22.347 31.159 22.6171 31.0656 22.8567C30.9722 23.0964 30.7021 23.2149 30.4624 23.1215L25.3631 21.1345C25.1376 21.0467 25.0273 20.794 25.1029 20.5641Z" fill="#F9F2EC"/>
<path d="M5.00498 20.878C5.26057 20.8081 5.52083 20.9746 5.57632 21.2337C5.62751 21.4731 5.48674 21.7132 5.25062 21.7777L1.29217 22.8595C1.04413 22.9273 0.7879 22.7808 0.719915 22.5329C0.652146 22.2848 0.798418 22.0285 1.04653 21.9606L5.00498 20.878Z" fill="#F9F2EC"/>
<path d="M32.1328 20.9389L35.3725 21.7896C35.6213 21.8549 35.77 22.1103 35.7046 22.3591C35.639 22.608 35.3841 22.7566 35.1351 22.6912L31.8962 21.8405C31.6571 21.7775 31.5138 21.5344 31.5669 21.2928C31.6234 21.0371 31.8795 20.8727 32.1328 20.9389Z" fill="#F9F2EC"/>
<path d="M2.01999 19.7726C2.27954 19.7329 2.5183 19.9228 2.54766 20.1838C2.57522 20.4297 2.40642 20.6556 2.16192 20.6933L0.86457 20.8925C0.610468 20.9315 0.372534 20.7572 0.333259 20.5031C0.294065 20.2489 0.468391 20.011 0.722644 19.9718L2.01999 19.7726Z" fill="#F9F2EC"/>
<path d="M10.9768 18.4962C11.2402 18.4557 11.4772 18.6626 11.4981 18.9283C11.5168 19.1659 11.3552 19.3816 11.1196 19.4178L5.14417 20.3339C4.89002 20.3729 4.65204 20.1987 4.61286 19.9445C4.57384 19.6903 4.74806 19.4523 5.00225 19.4132L10.9768 18.4962Z" fill="#F9F2EC"/>
<path d="M35.7119 19.2276C35.9674 19.2558 36.1519 19.4861 36.124 19.7417C36.0959 19.9974 35.8657 20.1819 35.61 20.1538L34.7211 20.0564C34.4746 20.0291 34.2968 19.809 34.3144 19.5615C34.3332 19.3004 34.5627 19.1016 34.823 19.1303L35.7119 19.2276Z" fill="#F9F2EC"/>
<path d="M31.4259 18.8519C31.6816 18.8801 31.8662 19.1102 31.838 19.3659C31.8099 19.6216 31.5797 19.8061 31.324 19.778L26.1464 19.2076C25.7403 19.1626 25.4513 18.7975 25.4514 18.3888C25.4514 18.2854 25.5378 18.2037 25.6406 18.215L31.4259 18.8519Z" fill="#F9F2EC"/>
<path d="M4.82575 17.3735C5.08878 17.3723 5.29604 17.5947 5.28519 17.8575C5.27493 18.1036 5.07574 18.3048 4.82939 18.306L0.65714 18.3269C0.399841 18.3282 0.189903 18.1203 0.188604 17.863C0.187427 17.6059 0.394669 17.3969 0.651682 17.3953L4.82575 17.3735Z" fill="#F9F2EC"/>
<path d="M35.721 17.2197C35.978 17.2187 36.1873 17.4266 36.1886 17.6837C36.1898 17.9409 35.9826 18.1508 35.7255 18.1523L32.3211 18.1686C32.0751 18.1699 31.8745 17.9749 31.8617 17.7292C31.848 17.4661 32.0531 17.2384 32.3166 17.237L35.721 17.2197Z" fill="#F9F2EC"/>
<path d="M5.13144 15.9579L11.1915 16.6247C11.4539 16.6536 11.6301 16.9051 11.5845 17.1652C11.5431 17.4014 11.3297 17.576 11.0914 17.55L5.02863 16.8831C4.7734 16.855 4.58928 16.6252 4.61741 16.37C4.64556 16.1143 4.87569 15.9297 5.13144 15.9579Z" fill="#F9F2EC"/>
<path d="M31.1502 15.4038C31.4045 15.365 31.6423 15.5399 31.6815 15.7941C31.7202 16.0484 31.5455 16.2855 31.2912 16.3245L25.7798 17.1688C25.5442 17.2048 25.3245 17.0427 25.2712 16.8103C25.2119 16.551 25.3776 16.2884 25.6406 16.2481L31.1502 15.4038Z" fill="#F9F2EC"/>
<path d="M0.853653 15.3902L2.21195 15.5394C2.47194 15.568 2.65327 15.81 2.6159 16.0689C2.58025 16.3148 2.35799 16.4936 2.11097 16.4664L0.751757 16.3163C0.495979 16.2882 0.311487 16.0581 0.339627 15.8023C0.367955 15.5468 0.598059 15.3621 0.853653 15.3902Z" fill="#F9F2EC"/>
<path d="M5.54812 12.9174C5.6416 12.6777 5.91157 12.5593 6.1513 12.6527L11.8602 14.8762C12.1045 14.9713 12.21 15.2577 12.1022 15.4966C12.0024 15.7169 11.7489 15.8318 11.5236 15.7441L5.81377 13.5206C5.57414 13.4273 5.45513 13.1572 5.54812 12.9174Z" fill="#F9F2EC"/>
<path d="M35.3862 14.656C35.6408 14.6172 35.879 14.7918 35.9184 15.0463C35.9571 15.3006 35.7823 15.5387 35.5281 15.5776L34.5865 15.7213C34.3414 15.7586 34.112 15.5909 34.0652 15.3474C34.0157 15.0898 34.1871 14.8396 34.4464 14.7997L35.3862 14.656Z" fill="#F9F2EC"/>
<path d="M29.9903 12.1459C30.2255 12.0426 30.4999 12.1491 30.6035 12.3843C30.7069 12.6199 30.5997 12.8948 30.3642 12.9984L25.1903 15.271C24.9735 15.3662 24.7212 15.2688 24.608 15.0608C24.4802 14.8258 24.5704 14.5261 24.8154 14.4185L29.9903 12.1459Z" fill="#F9F2EC"/>
<path d="M1.45411 12.8828L5.53083 13.9527C5.78388 14.0194 5.92658 14.2865 5.85016 14.5368C5.77786 14.7734 5.53265 14.9162 5.29338 14.8534L1.21756 13.7835C0.968663 13.7182 0.820051 13.4638 0.885495 13.2149C0.950904 12.9662 1.20538 12.8176 1.45411 12.8828Z" fill="#F9F2EC"/>
<path d="M34.874 12.7154C35.1226 12.6475 35.379 12.7943 35.4471 13.0429C35.5145 13.291 35.3685 13.5465 35.1205 13.6143L31.7607 14.5323C31.5244 14.5966 31.2801 14.4581 31.203 14.2257C31.12 13.9747 31.26 13.7021 31.5151 13.6325L34.874 12.7154Z" fill="#F9F2EC"/>
<path d="M7.34129 9.82415C7.49359 9.61674 7.78524 9.5718 7.9927 9.72407L12.9401 13.3559C13.15 13.51 13.1784 13.8122 13.0156 14.0155C12.8629 14.206 12.5866 14.2525 12.3897 14.1083L7.44137 10.4755C7.23394 10.3233 7.18908 10.0316 7.34129 9.82415Z" fill="#F9F2EC"/>
<path d="M28.0242 9.29829C28.2251 9.13729 28.5188 9.16958 28.6802 9.37016C28.8409 9.57118 28.8082 9.86419 28.6074 10.0252L24.1313 13.6134C23.9469 13.7611 23.6794 13.7342 23.5163 13.5633C23.3309 13.369 23.3395 13.0535 23.549 12.8856L28.0242 9.29829Z" fill="#F9F2EC"/>
<path d="M9.87412 7.30042C10.0752 7.13965 10.3681 7.17235 10.5292 7.3732L14.3602 12.1514C14.5213 12.3526 14.4723 12.6484 14.2665 12.8037C14.0696 12.9521 13.7877 12.9269 13.6333 12.7345L9.80225 7.95455C9.64152 7.754 9.67362 7.46122 9.87412 7.30042Z" fill="#F9F2EC"/>
<path d="M25.3922 7.05568C25.5443 6.84865 25.8358 6.80433 26.0427 6.95652C26.2501 7.10875 26.295 7.40051 26.1428 7.60792L22.6947 12.3042C22.555 12.4945 22.2905 12.5378 22.0888 12.4152C21.8595 12.2756 21.7853 11.9684 21.9442 11.752L25.3922 7.05568Z" fill="#F9F2EC"/>
<path d="M1.56328 11.2643C1.65679 11.0249 1.92693 10.9063 2.16646 10.9996L3.47473 11.5091C3.71764 11.6039 3.82932 11.8834 3.72674 12.1232C3.62874 12.3519 3.36822 12.4672 3.13629 12.377L1.82803 11.8675C1.5884 11.7741 1.46983 11.504 1.56328 11.2643Z" fill="#F9F2EC"/>
<path d="M12.9728 5.51816C13.2085 5.41473 13.4835 5.52182 13.5869 5.75743L16.0361 11.3335C16.1389 11.5676 16.0166 11.8387 15.7804 11.9367C15.5509 12.0318 15.2826 11.9349 15.1827 11.7074L12.7336 6.13226C12.63 5.89662 12.7372 5.62166 12.9728 5.51816Z" fill="#F9F2EC"/>
<path d="M22.2662 5.57274C22.3596 5.3331 22.6298 5.21456 22.8694 5.308C23.1089 5.40095 23.2274 5.67089 23.1342 5.91027L20.988 11.4181C20.9022 11.6382 20.6589 11.749 20.4321 11.6828C20.1747 11.6076 20.0228 11.3305 20.1201 11.0806L22.2662 5.57274Z" fill="#F9F2EC"/>
<path d="M2.76055 8.90527C2.88809 8.68185 3.173 8.6041 3.39649 8.7315L7.072 10.8295C7.29808 10.9586 7.36722 11.2516 7.23121 11.4736C7.10108 11.6858 6.82607 11.7625 6.60983 11.6392L2.93432 9.5412C2.71103 9.41359 2.63312 9.1287 2.76055 8.90527Z" fill="#F9F2EC"/>
<path d="M33.8868 10.3245C34.1224 10.2212 34.3974 10.3284 34.5009 10.5638C34.6044 10.7994 34.4971 11.0743 34.2617 11.1779L33.3273 11.5882C33.1011 11.6873 32.837 11.586 32.7278 11.3644C32.6115 11.1285 32.7117 10.8406 32.9525 10.7348L33.8868 10.3245Z" fill="#F9F2EC"/>
<path d="M16.4282 4.59837C16.6824 4.55974 16.9196 4.73443 16.9586 4.98866L17.8729 10.9568C17.9112 11.2079 17.725 11.4374 17.4735 11.4727C17.2259 11.5071 16.9902 11.3431 16.9522 11.096L16.0379 5.12968C15.999 4.87538 16.1739 4.63757 16.4282 4.59837Z" fill="#F9F2EC"/>
<path d="M19.3777 4.53559C19.6333 4.56384 19.8179 4.79395 19.7898 5.04962L19.1548 10.8103C19.1169 11.1545 18.8105 11.4016 18.4643 11.4017C18.2997 11.4017 18.1678 11.2614 18.1859 11.0978L18.8637 4.94772C18.8918 4.69202 19.122 4.50746 19.3777 4.53559Z" fill="#F9F2EC"/>
<path d="M32.8888 8.58411C33.1111 8.4544 33.3968 8.52934 33.5266 8.75151C33.6564 8.97378 33.5814 9.25949 33.3592 9.38927L30.2677 11.1934C30.0572 11.3161 29.7874 11.2476 29.6518 11.0451C29.5044 10.8243 29.5681 10.523 29.7974 10.3891L32.8888 8.58411Z" fill="#F9F2EC"/>
<path d="M5.69004 5.22794C5.87135 5.0453 6.1667 5.0442 6.34963 5.22521L9.34372 8.19018C9.52748 8.37226 9.5197 8.67084 9.33371 8.85068C9.15339 9.0249 8.86602 9.02881 8.68777 8.8525L5.69368 5.88753C5.51109 5.70636 5.50934 5.41108 5.69004 5.22794Z" fill="#F9F2EC"/>
<path d="M3.91961 7.19852C4.07189 6.99096 4.36348 6.94613 4.57101 7.09844L5.71916 7.9409C5.92913 8.09501 5.96621 8.39385 5.80649 8.59958C5.65313 8.79702 5.37033 8.84107 5.16874 8.69329L4.01969 7.84992C3.81231 7.69766 3.76751 7.40599 3.91961 7.19852Z" fill="#F9F2EC"/>
<path d="M29.9038 5.10694C30.0847 4.92468 30.379 4.92353 30.5616 5.10421C30.7442 5.2855 30.7454 5.58005 30.5643 5.76289L27.9642 8.3876C27.7931 8.56005 27.5168 8.56463 27.3337 8.40489C27.1333 8.22999 27.1157 7.92156 27.3028 7.73256L29.9038 5.10694Z" fill="#F9F2EC"/>
<path d="M31.3185 6.52892C31.519 6.36853 31.8119 6.40058 31.9727 6.60079C32.1335 6.80182 32.1008 7.09578 31.8999 7.25675L31.042 7.94454C30.8493 8.0989 30.5687 8.0693 30.406 7.88358C30.2328 7.68567 30.2545 7.38215 30.4597 7.21763L31.3185 6.52892Z" fill="#F9F2EC"/>
<path d="M9.46836 2.43491C9.69055 2.30518 9.97629 2.38021 10.1061 2.60231L12.2077 6.2014C12.3369 6.4232 12.2535 6.70776 12.0303 6.83461C11.811 6.95892 11.5306 6.8885 11.4035 6.67085L9.30096 3.07267C9.17123 2.85047 9.24622 2.56472 9.46836 2.43491Z" fill="#F9F2EC"/>
<path d="M26.1191 2.52225C26.2468 2.29894 26.5316 2.22119 26.7551 2.34848C26.9781 2.47599 27.0559 2.76037 26.9289 2.98351L25.0392 6.29329C24.9186 6.50435 24.6524 6.58064 24.4342 6.47343C24.1956 6.35605 24.0986 6.06209 24.2304 5.83112L26.1191 2.52225Z" fill="#F9F2EC"/>
<path d="M7.25031 3.87964C7.45127 3.71914 7.7444 3.75182 7.90536 3.95243L8.79512 5.06327C8.95712 5.26548 8.916 5.56138 8.71051 5.71922C8.51148 5.87201 8.22611 5.84217 8.06912 5.64644L7.17844 4.53559C7.01753 4.33473 7.04977 4.04099 7.25031 3.87964Z" fill="#F9F2EC"/>
<path d="M13.8435 0.714519C14.0915 0.647259 14.347 0.793275 14.4148 1.04113L15.4947 4.99503C15.5621 5.24185 15.4092 5.49491 15.1618 5.56001C14.9171 5.62419 14.6635 5.48283 14.5968 5.23885L13.5169 1.28677C13.4491 1.03858 13.5954 0.782546 13.8435 0.714519Z" fill="#F9F2EC"/>
<path d="M22.3627 0.672669C22.6111 0.737728 22.76 0.991993 22.6947 1.24037L21.6976 5.03415C21.6358 5.26942 21.3986 5.41232 21.1599 5.36531C20.8991 5.31383 20.7284 5.0548 20.796 4.79761L21.7931 1.00383C21.8587 0.755232 22.114 0.607273 22.3627 0.672669Z" fill="#F9F2EC"/>
<path d="M27.855 3.52847C28.0074 3.32135 28.299 3.27633 28.5064 3.42839C28.7134 3.58065 28.7578 3.87272 28.6056 4.07979L27.9087 5.02779C27.7624 5.22681 27.4837 5.27136 27.2782 5.13423C27.0599 4.98847 27.0021 4.68996 27.1572 4.47828L27.855 3.52847Z" fill="#F9F2EC"/>
<path d="M17.6855 0.188666C17.9428 0.187366 18.1528 0.395336 18.154 0.652653L18.1731 4.68298C18.1743 4.92693 17.9826 5.12692 17.7392 5.14242C17.4743 5.15906 17.2428 4.95298 17.2415 4.68753L17.2224 0.657202C17.2212 0.399964 17.4283 0.190002 17.6855 0.188666Z" fill="#F9F2EC"/>
<path d="M11.3234 1.53787C11.5591 1.43436 11.834 1.54147 11.9375 1.77714L12.4997 3.05811C12.6036 3.29461 12.4881 3.56951 12.2496 3.66857C12.017 3.7651 11.7477 3.66164 11.6464 3.43112L11.0841 2.15106C10.9809 1.9155 11.0879 1.64133 11.3234 1.53787Z" fill="#F9F2EC"/>
<path d="M23.731 1.52513C23.8246 1.28577 24.0946 1.16702 24.3342 1.26039C24.5737 1.35327 24.6922 1.62332 24.5989 1.86266L24.1449 3.02718C24.0551 3.25746 23.7975 3.37276 23.5636 3.29283C23.3151 3.20777 23.1816 2.93348 23.277 2.68874L23.731 1.52513Z" fill="#F9F2EC"/>
<path d="M15.8659 0.327862C16.12 0.289298 16.3572 0.464174 16.3963 0.718158L16.6029 2.06463C16.6419 2.31954 16.4589 2.55541 16.2035 2.59048C15.9535 2.62466 15.7204 2.45498 15.6822 2.20565L15.4756 0.860083C15.4367 0.605714 15.6116 0.367069 15.8659 0.327862Z" fill="#F9F2EC"/>
<path d="M19.7434 0.245072C19.9991 0.27333 20.1838 0.504281 20.1555 0.760008L20.0109 2.07009C19.9837 2.31626 19.7649 2.49514 19.5178 2.47858C19.2557 2.46098 19.055 2.23022 19.0838 1.96911L19.2294 0.657202C19.2578 0.401682 19.4878 0.216956 19.7434 0.245072Z" fill="#F9F2EC"/>
<path d="M15.7322 36.4106C15.5496 36.3377 15.4253 36.1561 15.4392 35.9494L15.4493 35.7947C15.4032 35.7129 15.381 35.6168 15.3919 35.5163L15.4957 34.5747C15.5018 34.5189 15.5183 34.4672 15.542 34.42L16.0979 26.2275C16.1151 25.9803 16.3226 25.7929 16.5674 25.7953L16.5856 25.6379C16.5933 25.5686 16.6163 25.5052 16.6511 25.4505L15.7322 36.4106Z" stroke="#F9F2EC" stroke-width="0.377312" stroke-linecap="round"/>
<path d="M20.3884 25.7944C20.6449 25.777 20.8674 25.9712 20.8852 26.2275L21.4274 34.2408C21.5052 34.309 21.5624 34.4016 21.5793 34.5119L21.7122 35.3817C21.7388 35.5552 21.6644 35.719 21.5348 35.8193L21.5439 35.9494C21.5564 36.1362 21.4559 36.3025 21.3019 36.387L20.3029 25.8099C20.3305 25.8025 20.3589 25.7964 20.3884 25.7944Z" stroke="#F9F2EC" stroke-width="0.377312" stroke-linecap="round"/>
<path d="M13.818 31.3705C13.8856 31.1129 14.1602 30.9702 14.413 31.0539C14.6441 31.1303 14.7813 31.3715 14.7196 31.607L13.7871 35.1597C13.7218 35.4085 13.4672 35.5572 13.2185 35.4918C12.9694 35.4263 12.8201 35.1714 12.8855 34.9222L13.818 31.3705Z" stroke="#F9F2EC" stroke-width="0.377312" stroke-linecap="round"/>
<path d="M22.1798 31.224C22.426 31.1554 22.6837 31.2959 22.7511 31.5424L23.6609 34.8695C23.7287 35.1176 23.5824 35.3737 23.3343 35.4417C23.0861 35.5093 22.83 35.3632 22.7621 35.1151L21.8523 31.7871C21.7854 31.5427 21.9357 31.2921 22.1798 31.224Z" stroke="#F9F2EC" stroke-width="0.377312" stroke-linecap="round"/>
<path d="M11.3698 33.2583C11.4652 33.013 11.7483 32.9007 11.9894 33.0062C12.2157 33.1055 12.3281 33.3645 12.2386 33.5949L11.8702 34.541C11.7769 34.7807 11.5075 34.8992 11.2679 34.8058C11.0278 34.7123 10.9088 34.4419 11.0022 34.2017L11.3698 33.2583Z" stroke="#F9F2EC" stroke-width="0.377312" stroke-linecap="round"/>
<path d="M25.0856 32.8843C25.32 32.7756 25.6002 32.8762 25.7043 33.1127L26.0427 33.8833C26.1461 34.1184 26.0394 34.3929 25.8044 34.4965C25.5688 34.5999 25.294 34.4934 25.1903 34.2581L24.8518 33.4884C24.7508 33.2582 24.8576 32.9903 25.0856 32.8843Z" stroke="#F9F2EC" stroke-width="0.377312" stroke-linecap="round"/>
<path d="M10.6156 29.6865C10.7475 29.4552 11.0499 29.3885 11.2725 29.5345C11.4756 29.668 11.5458 29.9366 11.4253 30.1477L9.54569 33.4411C9.41814 33.6647 9.13333 33.7424 8.90975 33.6149C8.68691 33.4872 8.6096 33.203 8.7369 32.9799L10.6156 29.6865Z" stroke="#F9F2EC" stroke-width="0.377312" stroke-linecap="round"/>
<path d="M25.4486 29.8102C25.6688 29.6773 25.9575 29.7447 26.0873 29.9667L27.7913 32.8852C27.9209 33.1071 27.8464 33.3923 27.6248 33.5221C27.4026 33.6519 27.1169 33.5769 26.9871 33.3547L25.2831 30.437C25.1561 30.2196 25.2331 29.9404 25.4486 29.8102Z" stroke="#F9F2EC" stroke-width="0.377312" stroke-linecap="round"/>
<path d="M7.74978 30.9156C7.90544 30.7038 8.208 30.6692 8.41301 30.8337C8.60554 30.9884 8.64646 31.2678 8.50035 31.4669L7.8535 32.3494C7.70118 32.5567 7.40954 32.6007 7.2021 32.4486C6.99517 32.2963 6.95006 32.0053 7.10202 31.7981L7.74978 30.9156Z" stroke="#F9F2EC" stroke-width="0.377312" stroke-linecap="round"/>
<path d="M28.6638 30.6099C28.8625 30.4433 29.1612 30.4676 29.3234 30.6699L29.8401 31.315C30.001 31.5156 29.9689 31.8083 29.7683 31.9691C29.5678 32.1299 29.2749 32.0977 29.1141 31.8972L28.5965 31.2513C28.4398 31.0558 28.472 30.7711 28.6638 30.6099Z" stroke="#F9F2EC" stroke-width="0.377312" stroke-linecap="round"/>
<path d="M14.7405 24.8901C14.8379 24.6399 15.135 24.5361 15.3756 24.6554C15.5871 24.7603 15.6941 25.0085 15.6085 25.2285L13.5333 30.5598C13.4399 30.7994 13.1697 30.9178 12.9301 30.8246C12.6905 30.7312 12.5711 30.461 12.6644 30.2214L14.7405 24.8901Z" stroke="#F9F2EC" stroke-width="0.377312" stroke-linecap="round"/>
<path d="M7.97814 27.251C8.16528 27.0622 8.47423 27.0764 8.65138 27.2746C8.81359 27.4562 8.81163 27.7338 8.64046 27.9069L5.89201 30.6836C5.71081 30.8666 5.41565 30.8681 5.23242 30.6872C5.04977 30.5064 5.04801 30.2112 5.22878 30.0285L7.97814 27.251Z" stroke="#F9F2EC" stroke-width="0.377312" stroke-linecap="round"/>
<path d="M28.2353 27.5639C28.4133 27.3763 28.712 27.3656 28.8958 27.5476L31.2703 29.8993C31.4531 30.0804 31.4542 30.3754 31.2731 30.558C31.0923 30.7404 30.7979 30.7422 30.6153 30.5617L28.2398 28.209C28.0621 28.0327 28.0632 27.7457 28.2353 27.5639Z" stroke="#F9F2EC" stroke-width="0.377312" stroke-linecap="round"/>
<path d="M21.4019 24.7272C21.6346 24.62 21.9157 24.7156 22.0188 24.9501L24.2268 29.9758C24.3302 30.2114 24.2231 30.4863 23.9875 30.5899C23.7519 30.6934 23.477 30.5862 23.3734 30.3506L21.1645 25.3232C21.0646 25.0955 21.1761 24.8313 21.4019 24.7272Z" stroke="#F9F2EC" stroke-width="0.377312" stroke-linecap="round"/>
<path d="M4.86942 27.7313C5.07459 27.5667 5.37592 27.6114 5.53174 27.8232C5.67816 28.0227 5.64566 28.3034 5.45259 28.4583L4.53917 29.1915C4.33811 29.3526 4.04449 29.3197 3.88322 29.1188C3.72262 28.9183 3.75471 28.6254 3.95509 28.4646L4.86942 27.7313Z" stroke="#F9F2EC" stroke-width="0.377312" stroke-linecap="round"/>
<path d="M13.1766 23.6956C13.3357 23.4793 13.65 23.4573 13.8517 23.6346C14.0288 23.7903 14.0666 24.0558 13.9272 24.246L10.4891 28.9323C10.3369 29.1397 10.0452 29.1845 9.83773 29.0323C9.63078 28.8801 9.58592 28.5891 9.73765 28.3818L13.1766 23.6956Z" stroke="#F9F2EC" stroke-width="0.377312" stroke-linecap="round"/>
<path d="M23.0013 23.7001C23.1974 23.5322 23.4967 23.5496 23.6582 23.7511L27.0753 28.0125C27.236 28.213 27.2039 28.5058 27.0035 28.6666C26.8025 28.8278 26.5087 28.7957 26.3475 28.5947L22.9322 24.3333C22.7782 24.1411 22.8143 23.8604 23.0013 23.7001Z" stroke="#F9F2EC" stroke-width="0.377312" stroke-linecap="round"/>
<path d="M31.5205 27.4757C31.6686 27.2621 31.9642 27.2073 32.1737 27.3611L32.8415 27.8514C33.0482 28.0035 33.0925 28.2942 32.9407 28.501C32.7885 28.7085 32.4967 28.7534 32.2893 28.6011L31.6224 28.1116C31.4211 27.9637 31.3783 27.6811 31.5205 27.4757Z" stroke="#F9F2EC" stroke-width="0.377312" stroke-linecap="round"/>
<path d="M6.07124 24.2469C6.30016 24.1132 6.59403 24.2064 6.71445 24.4425C6.82489 24.6596 6.75177 24.9271 6.5416 25.0502L3.07624 27.0745C2.85437 27.2041 2.56914 27.1289 2.4394 26.9071C2.31005 26.685 2.38495 26.4001 2.6068 26.2702L6.07124 24.2469Z" stroke="#F9F2EC" stroke-width="0.377312" stroke-linecap="round"/>
<path d="M30.3269 24.6545C30.4488 24.4246 30.7368 24.3353 30.9628 24.4643L33.855 26.1147C34.0781 26.242 34.1554 26.5267 34.0279 26.7497C33.9004 26.9731 33.6163 27.0508 33.3928 26.9235L30.5016 25.274C30.2851 25.1505 30.2102 24.8747 30.3269 24.6545Z" stroke="#F9F2EC" stroke-width="0.377312" stroke-linecap="round"/>
<path d="M11.9866 22.1535C12.1962 21.9857 12.5062 22.0466 12.6553 22.2699C12.7866 22.4668 12.7544 22.7342 12.5698 22.8822L7.96904 26.5705C7.76798 26.7317 7.47441 26.6995 7.31309 26.4986C7.15231 26.2981 7.18449 26.0053 7.38496 25.8445L11.9866 22.1535Z" stroke="#F9F2EC" stroke-width="0.377312" stroke-linecap="round"/>
<path d="M24.2677 22.2754C24.4121 22.0592 24.7086 21.9952 24.9182 22.1489L29.3161 25.3777C29.5235 25.53 29.5684 25.8217 29.4162 26.0291C29.264 26.2366 28.9723 26.2814 28.7648 26.1292L24.3687 22.9013C24.1717 22.7566 24.1321 22.4787 24.2677 22.2754Z" stroke="#F9F2EC" stroke-width="0.377312" stroke-linecap="round"/>
<path d="M2.91885 23.9303C3.15945 23.8245 3.43884 23.9463 3.53386 24.1914C3.62316 24.422 3.51915 24.6841 3.29277 24.7837L2.15464 25.284C1.91942 25.3874 1.64496 25.2799 1.54145 25.0448C1.43818 24.8092 1.5452 24.5342 1.78072 24.4307L2.91885 23.9303Z" stroke="#F9F2EC" stroke-width="0.377312" stroke-linecap="round"/>
<path d="M33.4511 23.7028C33.538 23.4568 33.8102 23.3263 34.0533 23.4208L34.8439 23.7283C35.0833 23.8217 35.2018 24.0911 35.1087 24.3306C35.0152 24.5707 34.7447 24.6898 34.5046 24.5962L33.7158 24.2887C33.4835 24.1982 33.3681 23.9379 33.4511 23.7028Z" stroke="#F9F2EC" stroke-width="0.377312" stroke-linecap="round"/>
<path d="M11.2433 20.3812C11.488 20.2739 11.7702 20.4125 11.8574 20.6651C11.9347 20.8889 11.8349 21.1375 11.6182 21.2328L6.14584 23.6392C5.91024 23.7427 5.63531 23.6355 5.53174 23.3999C5.42826 23.1643 5.53542 22.8893 5.77101 22.7858L11.2433 20.3812Z" stroke="#F9F2EC" stroke-width="0.377312" stroke-linecap="round"/>
<path d="M25.1029 20.5641C25.1849 20.3147 25.4579 20.1713 25.7025 20.2666L30.8009 22.2536C31.0404 22.347 31.159 22.6171 31.0656 22.8567C30.9722 23.0964 30.7021 23.2149 30.4624 23.1215L25.3631 21.1345C25.1376 21.0467 25.0273 20.794 25.1029 20.5641Z" stroke="#F9F2EC" stroke-width="0.377312" stroke-linecap="round"/>
<path d="M5.00498 20.878C5.26057 20.8081 5.52083 20.9746 5.57632 21.2337C5.62751 21.4731 5.48674 21.7132 5.25062 21.7777L1.29217 22.8595C1.04413 22.9273 0.7879 22.7808 0.719915 22.5329C0.652146 22.2848 0.798418 22.0285 1.04653 21.9606L5.00498 20.878Z" stroke="#F9F2EC" stroke-width="0.377312" stroke-linecap="round"/>
<path d="M32.1328 20.9389L35.3725 21.7896C35.6213 21.8549 35.77 22.1103 35.7046 22.3591C35.639 22.608 35.3841 22.7566 35.1351 22.6912L31.8962 21.8405C31.6571 21.7775 31.5138 21.5344 31.5669 21.2928C31.6234 21.0371 31.8795 20.8727 32.1328 20.9389Z" stroke="#F9F2EC" stroke-width="0.377312" stroke-linecap="round"/>
<path d="M2.01999 19.7726C2.27954 19.7329 2.5183 19.9228 2.54766 20.1838C2.57522 20.4297 2.40642 20.6556 2.16192 20.6933L0.86457 20.8925C0.610468 20.9315 0.372534 20.7572 0.333259 20.5031C0.294065 20.2489 0.468391 20.011 0.722644 19.9718L2.01999 19.7726Z" stroke="#F9F2EC" stroke-width="0.377312" stroke-linecap="round"/>
<path d="M10.9768 18.4962C11.2402 18.4557 11.4772 18.6626 11.4981 18.9283C11.5168 19.1659 11.3552 19.3816 11.1196 19.4178L5.14417 20.3339C4.89002 20.3729 4.65204 20.1987 4.61286 19.9445C4.57384 19.6903 4.74806 19.4523 5.00225 19.4132L10.9768 18.4962Z" stroke="#F9F2EC" stroke-width="0.377312" stroke-linecap="round"/>
<path d="M35.7119 19.2276C35.9674 19.2558 36.1519 19.4861 36.124 19.7417C36.0959 19.9974 35.8657 20.1819 35.61 20.1538L34.7211 20.0564C34.4746 20.0291 34.2968 19.809 34.3144 19.5615C34.3332 19.3004 34.5627 19.1016 34.823 19.1303L35.7119 19.2276Z" stroke="#F9F2EC" stroke-width="0.377312" stroke-linecap="round"/>
<path d="M31.4259 18.8519C31.6816 18.8801 31.8662 19.1102 31.838 19.3659C31.8099 19.6216 31.5797 19.8061 31.324 19.778L26.1464 19.2076C25.7403 19.1626 25.4513 18.7975 25.4514 18.3888C25.4514 18.2854 25.5378 18.2037 25.6406 18.215L31.4259 18.8519Z" stroke="#F9F2EC" stroke-width="0.377312" stroke-linecap="round"/>
<path d="M4.82575 17.3735C5.08878 17.3723 5.29604 17.5947 5.28519 17.8575C5.27493 18.1036 5.07574 18.3048 4.82939 18.306L0.65714 18.3269C0.399841 18.3282 0.189903 18.1203 0.188604 17.863C0.187427 17.6059 0.394669 17.3969 0.651682 17.3953L4.82575 17.3735Z" stroke="#F9F2EC" stroke-width="0.377312" stroke-linecap="round"/>
<path d="M35.721 17.2197C35.978 17.2187 36.1873 17.4266 36.1886 17.6837C36.1898 17.9409 35.9826 18.1508 35.7255 18.1523L32.3211 18.1686C32.0751 18.1699 31.8745 17.9749 31.8617 17.7292C31.848 17.4661 32.0531 17.2384 32.3166 17.237L35.721 17.2197Z" stroke="#F9F2EC" stroke-width="0.377312" stroke-linecap="round"/>
<path d="M5.13144 15.9579L11.1915 16.6247C11.4539 16.6536 11.6301 16.9051 11.5845 17.1652C11.5431 17.4014 11.3297 17.576 11.0914 17.55L5.02863 16.8831C4.7734 16.855 4.58928 16.6252 4.61741 16.37C4.64556 16.1143 4.87569 15.9297 5.13144 15.9579Z" stroke="#F9F2EC" stroke-width="0.377312" stroke-linecap="round"/>
<path d="M31.1502 15.4038C31.4045 15.365 31.6423 15.5399 31.6815 15.7941C31.7202 16.0484 31.5455 16.2855 31.2912 16.3245L25.7798 17.1688C25.5442 17.2048 25.3245 17.0427 25.2712 16.8103C25.2119 16.551 25.3776 16.2884 25.6406 16.2481L31.1502 15.4038Z" stroke="#F9F2EC" stroke-width="0.377312" stroke-linecap="round"/>
<path d="M0.853653 15.3902L2.21195 15.5394C2.47194 15.568 2.65327 15.81 2.6159 16.0689C2.58025 16.3148 2.35799 16.4936 2.11097 16.4664L0.751757 16.3163C0.495979 16.2882 0.311487 16.0581 0.339627 15.8023C0.367955 15.5468 0.598059 15.3621 0.853653 15.3902Z" stroke="#F9F2EC" stroke-width="0.377312" stroke-linecap="round"/>
<path d="M5.54812 12.9174C5.6416 12.6777 5.91157 12.5593 6.1513 12.6527L11.8602 14.8762C12.1045 14.9713 12.21 15.2577 12.1022 15.4966C12.0024 15.7169 11.7489 15.8318 11.5236 15.7441L5.81377 13.5206C5.57414 13.4273 5.45513 13.1572 5.54812 12.9174Z" stroke="#F9F2EC" stroke-width="0.377312" stroke-linecap="round"/>
<path d="M35.3862 14.656C35.6408 14.6172 35.879 14.7918 35.9184 15.0463C35.9571 15.3006 35.7823 15.5387 35.5281 15.5776L34.5865 15.7213C34.3414 15.7586 34.112 15.5909 34.0652 15.3474C34.0157 15.0898 34.1871 14.8396 34.4464 14.7997L35.3862 14.656Z" stroke="#F9F2EC" stroke-width="0.377312" stroke-linecap="round"/>
<path d="M29.9903 12.1459C30.2255 12.0426 30.4999 12.1491 30.6035 12.3843C30.7069 12.6199 30.5997 12.8948 30.3642 12.9984L25.1903 15.271C24.9735 15.3662 24.7212 15.2688 24.608 15.0608C24.4802 14.8258 24.5704 14.5261 24.8154 14.4185L29.9903 12.1459Z" stroke="#F9F2EC" stroke-width="0.377312" stroke-linecap="round"/>
<path d="M1.45411 12.8828L5.53083 13.9527C5.78388 14.0194 5.92658 14.2865 5.85016 14.5368C5.77786 14.7734 5.53265 14.9162 5.29338 14.8534L1.21756 13.7835C0.968663 13.7182 0.820051 13.4638 0.885495 13.2149C0.950904 12.9662 1.20538 12.8176 1.45411 12.8828Z" stroke="#F9F2EC" stroke-width="0.377312" stroke-linecap="round"/>
<path d="M34.874 12.7154C35.1226 12.6475 35.379 12.7943 35.4471 13.0429C35.5145 13.291 35.3685 13.5465 35.1205 13.6143L31.7607 14.5323C31.5244 14.5966 31.2801 14.4581 31.203 14.2257C31.12 13.9747 31.26 13.7021 31.5151 13.6325L34.874 12.7154Z" stroke="#F9F2EC" stroke-width="0.377312" stroke-linecap="round"/>
<path d="M7.34129 9.82415C7.49359 9.61674 7.78524 9.5718 7.9927 9.72407L12.9401 13.3559C13.15 13.51 13.1784 13.8122 13.0156 14.0155C12.8629 14.206 12.5866 14.2525 12.3897 14.1083L7.44137 10.4755C7.23394 10.3233 7.18908 10.0316 7.34129 9.82415Z" stroke="#F9F2EC" stroke-width="0.377312" stroke-linecap="round"/>
<path d="M28.0242 9.29829C28.2251 9.13729 28.5188 9.16958 28.6802 9.37016C28.8409 9.57118 28.8082 9.86419 28.6074 10.0252L24.1313 13.6134C23.9469 13.7611 23.6794 13.7342 23.5163 13.5633C23.3309 13.369 23.3395 13.0535 23.549 12.8856L28.0242 9.29829Z" stroke="#F9F2EC" stroke-width="0.377312" stroke-linecap="round"/>
<path d="M9.87412 7.30042C10.0752 7.13965 10.3681 7.17235 10.5292 7.3732L14.3602 12.1514C14.5213 12.3526 14.4723 12.6484 14.2665 12.8037C14.0696 12.9521 13.7877 12.9269 13.6333 12.7345L9.80225 7.95455C9.64152 7.754 9.67362 7.46122 9.87412 7.30042Z" stroke="#F9F2EC" stroke-width="0.377312" stroke-linecap="round"/>
<path d="M25.3922 7.05568C25.5443 6.84865 25.8358 6.80433 26.0427 6.95652C26.2501 7.10875 26.295 7.40051 26.1428 7.60792L22.6947 12.3042C22.555 12.4945 22.2905 12.5378 22.0888 12.4152C21.8595 12.2756 21.7853 11.9684 21.9442 11.752L25.3922 7.05568Z" stroke="#F9F2EC" stroke-width="0.377312" stroke-linecap="round"/>
<path d="M1.56328 11.2643C1.65679 11.0249 1.92693 10.9063 2.16646 10.9996L3.47473 11.5091C3.71764 11.6039 3.82932 11.8834 3.72674 12.1232C3.62874 12.3519 3.36822 12.4672 3.13629 12.377L1.82803 11.8675C1.5884 11.7741 1.46983 11.504 1.56328 11.2643Z" stroke="#F9F2EC" stroke-width="0.377312" stroke-linecap="round"/>
<path d="M12.9728 5.51816C13.2085 5.41473 13.4835 5.52182 13.5869 5.75743L16.0361 11.3335C16.1389 11.5676 16.0166 11.8387 15.7804 11.9367C15.5509 12.0318 15.2826 11.9349 15.1827 11.7074L12.7336 6.13226C12.63 5.89662 12.7372 5.62166 12.9728 5.51816Z" stroke="#F9F2EC" stroke-width="0.377312" stroke-linecap="round"/>
<path d="M22.2662 5.57274C22.3596 5.3331 22.6298 5.21456 22.8694 5.308C23.1089 5.40095 23.2274 5.67089 23.1342 5.91027L20.988 11.4181C20.9022 11.6382 20.6589 11.749 20.4321 11.6828C20.1747 11.6076 20.0228 11.3305 20.1201 11.0806L22.2662 5.57274Z" stroke="#F9F2EC" stroke-width="0.377312" stroke-linecap="round"/>
<path d="M2.76055 8.90527C2.88809 8.68185 3.173 8.6041 3.39649 8.7315L7.072 10.8295C7.29808 10.9586 7.36722 11.2516 7.23121 11.4736C7.10108 11.6858 6.82607 11.7625 6.60983 11.6392L2.93432 9.5412C2.71103 9.41359 2.63312 9.1287 2.76055 8.90527Z" stroke="#F9F2EC" stroke-width="0.377312" stroke-linecap="round"/>
<path d="M33.8868 10.3245C34.1224 10.2212 34.3974 10.3284 34.5009 10.5638C34.6044 10.7994 34.4971 11.0743 34.2617 11.1779L33.3273 11.5882C33.1011 11.6873 32.837 11.586 32.7278 11.3644C32.6115 11.1285 32.7117 10.8406 32.9525 10.7348L33.8868 10.3245Z" stroke="#F9F2EC" stroke-width="0.377312" stroke-linecap="round"/>
<path d="M16.4282 4.59837C16.6824 4.55974 16.9196 4.73443 16.9586 4.98866L17.8729 10.9568C17.9112 11.2079 17.725 11.4374 17.4735 11.4727C17.2259 11.5071 16.9902 11.3431 16.9522 11.096L16.0379 5.12968C15.999 4.87538 16.1739 4.63757 16.4282 4.59837Z" stroke="#F9F2EC" stroke-width="0.377312" stroke-linecap="round"/>
<path d="M19.3777 4.53559C19.6333 4.56384 19.8179 4.79395 19.7898 5.04962L19.1548 10.8103C19.1169 11.1545 18.8105 11.4016 18.4643 11.4017C18.2997 11.4017 18.1678 11.2614 18.1859 11.0978L18.8637 4.94772C18.8918 4.69202 19.122 4.50746 19.3777 4.53559Z" stroke="#F9F2EC" stroke-width="0.377312" stroke-linecap="round"/>
<path d="M32.8888 8.58411C33.1111 8.4544 33.3968 8.52934 33.5266 8.75151C33.6564 8.97378 33.5814 9.25949 33.3592 9.38927L30.2677 11.1934C30.0572 11.3161 29.7874 11.2476 29.6518 11.0451C29.5044 10.8243 29.5681 10.523 29.7974 10.3891L32.8888 8.58411Z" stroke="#F9F2EC" stroke-width="0.377312" stroke-linecap="round"/>
<path d="M5.69004 5.22794C5.87135 5.0453 6.1667 5.0442 6.34963 5.22521L9.34372 8.19018C9.52748 8.37226 9.5197 8.67084 9.33371 8.85068C9.15339 9.0249 8.86602 9.02881 8.68777 8.8525L5.69368 5.88753C5.51109 5.70636 5.50934 5.41108 5.69004 5.22794Z" stroke="#F9F2EC" stroke-width="0.377312" stroke-linecap="round"/>
<path d="M3.91961 7.19852C4.07189 6.99096 4.36348 6.94613 4.57101 7.09844L5.71916 7.9409C5.92913 8.09501 5.96621 8.39385 5.80649 8.59958C5.65313 8.79702 5.37033 8.84107 5.16874 8.69329L4.01969 7.84992C3.81231 7.69766 3.76751 7.40599 3.91961 7.19852Z" stroke="#F9F2EC" stroke-width="0.377312" stroke-linecap="round"/>
<path d="M29.9038 5.10694C30.0847 4.92468 30.379 4.92353 30.5616 5.10421C30.7442 5.2855 30.7454 5.58005 30.5643 5.76289L27.9642 8.3876C27.7931 8.56005 27.5168 8.56463 27.3337 8.40489C27.1333 8.22999 27.1157 7.92156 27.3028 7.73256L29.9038 5.10694Z" stroke="#F9F2EC" stroke-width="0.377312" stroke-linecap="round"/>
<path d="M31.3185 6.52892C31.519 6.36853 31.8119 6.40058 31.9727 6.60079C32.1335 6.80182 32.1008 7.09578 31.8999 7.25675L31.042 7.94454C30.8493 8.0989 30.5687 8.0693 30.406 7.88358C30.2328 7.68567 30.2545 7.38215 30.4597 7.21763L31.3185 6.52892Z" stroke="#F9F2EC" stroke-width="0.377312" stroke-linecap="round"/>
<path d="M9.46836 2.43491C9.69055 2.30518 9.97629 2.38021 10.1061 2.60231L12.2077 6.2014C12.3369 6.4232 12.2535 6.70776 12.0303 6.83461C11.811 6.95892 11.5306 6.8885 11.4035 6.67085L9.30096 3.07267C9.17123 2.85047 9.24622 2.56472 9.46836 2.43491Z" stroke="#F9F2EC" stroke-width="0.377312" stroke-linecap="round"/>
<path d="M26.1191 2.52225C26.2468 2.29894 26.5316 2.22119 26.7551 2.34848C26.9781 2.47599 27.0559 2.76037 26.9289 2.98351L25.0392 6.29329C24.9186 6.50435 24.6524 6.58064 24.4342 6.47343C24.1956 6.35605 24.0986 6.06209 24.2304 5.83112L26.1191 2.52225Z" stroke="#F9F2EC" stroke-width="0.377312" stroke-linecap="round"/>
<path d="M7.25031 3.87964C7.45127 3.71914 7.7444 3.75182 7.90536 3.95243L8.79512 5.06327C8.95712 5.26548 8.916 5.56138 8.71051 5.71922C8.51148 5.87201 8.22611 5.84217 8.06912 5.64644L7.17844 4.53559C7.01753 4.33473 7.04977 4.04099 7.25031 3.87964Z" stroke="#F9F2EC" stroke-width="0.377312" stroke-linecap="round"/>
<path d="M13.8435 0.714519C14.0915 0.647259 14.347 0.793275 14.4148 1.04113L15.4947 4.99503C15.5621 5.24185 15.4092 5.49491 15.1618 5.56001C14.9171 5.62419 14.6635 5.48283 14.5968 5.23885L13.5169 1.28677C13.4491 1.03858 13.5954 0.782546 13.8435 0.714519Z" stroke="#F9F2EC" stroke-width="0.377312" stroke-linecap="round"/>
<path d="M22.3627 0.672669C22.6111 0.737728 22.76 0.991993 22.6947 1.24037L21.6976 5.03415C21.6358 5.26942 21.3986 5.41232 21.1599 5.36531C20.8991 5.31383 20.7284 5.0548 20.796 4.79761L21.7931 1.00383C21.8587 0.755232 22.114 0.607273 22.3627 0.672669Z" stroke="#F9F2EC" stroke-width="0.377312" stroke-linecap="round"/>
<path d="M27.855 3.52847C28.0074 3.32135 28.299 3.27633 28.5064 3.42839C28.7134 3.58065 28.7578 3.87272 28.6056 4.07979L27.9087 5.02779C27.7624 5.22681 27.4837 5.27136 27.2782 5.13423C27.0599 4.98847 27.0021 4.68996 27.1572 4.47828L27.855 3.52847Z" stroke="#F9F2EC" stroke-width="0.377312" stroke-linecap="round"/>
<path d="M17.6855 0.188666C17.9428 0.187366 18.1528 0.395336 18.154 0.652653L18.1731 4.68298C18.1743 4.92693 17.9826 5.12692 17.7392 5.14242C17.4743 5.15906 17.2428 4.95298 17.2415 4.68753L17.2224 0.657202C17.2212 0.399964 17.4283 0.190002 17.6855 0.188666Z" stroke="#F9F2EC" stroke-width="0.377312" stroke-linecap="round"/>
<path d="M11.3234 1.53787C11.5591 1.43436 11.834 1.54147 11.9375 1.77714L12.4997 3.05811C12.6036 3.29461 12.4881 3.56951 12.2496 3.66857C12.017 3.7651 11.7477 3.66164 11.6464 3.43112L11.0841 2.15106C10.9809 1.9155 11.0879 1.64133 11.3234 1.53787Z" stroke="#F9F2EC" stroke-width="0.377312" stroke-linecap="round"/>
<path d="M23.731 1.52513C23.8246 1.28577 24.0946 1.16702 24.3342 1.26039C24.5737 1.35327 24.6922 1.62332 24.5989 1.86266L24.1449 3.02718C24.0551 3.25746 23.7975 3.37276 23.5636 3.29283C23.3151 3.20777 23.1816 2.93348 23.277 2.68874L23.731 1.52513Z" stroke="#F9F2EC" stroke-width="0.377312" stroke-linecap="round"/>
<path d="M15.8659 0.327862C16.12 0.289298 16.3572 0.464174 16.3963 0.718158L16.6029 2.06463C16.6419 2.31954 16.4589 2.55541 16.2035 2.59048C15.9535 2.62466 15.7204 2.45498 15.6822 2.20565L15.4756 0.860083C15.4367 0.605714 15.6116 0.367069 15.8659 0.327862Z" stroke="#F9F2EC" stroke-width="0.377312" stroke-linecap="round"/>
<path d="M19.7434 0.245072C19.9991 0.27333 20.1838 0.504281 20.1555 0.760008L20.0109 2.07009C19.9837 2.31626 19.7649 2.49514 19.5178 2.47858C19.2557 2.46098 19.055 2.23022 19.0838 1.96911L19.2294 0.657202C19.2578 0.401682 19.4878 0.216956 19.7434 0.245072Z" stroke="#F9F2EC" stroke-width="0.377312" stroke-linecap="round"/>
</svg>
