<svg width="65" height="39" viewBox="0 0 65 39" fill="none" xmlns="http://www.w3.org/2000/svg">
<g clip-path="url(#clip0_794_693)">
<path d="M0.0114296 0.0182384C7.36197 0.0154969 14.7097 0.0127566 22.0602 0.0210245C24.5699 2.62233 27.0936 5.2098 29.6174 7.79722C32.1184 5.19043 34.6592 2.6168 37.1659 0.0182822C44.5561 0.0154973 51.9491 0.0154973 59.3364 0.0182822C59.3392 5.35905 59.3336 10.6971 59.3392 16.0406C59.3223 16.2839 59.393 16.5548 59.2713 16.7815C57.4379 19.709 55.8479 22.7885 54.6539 26.0173C54.5011 26.3657 54.3596 26.7665 54.0145 26.9794C53.7202 27.101 53.2873 27.0485 53.1289 26.7444C52.9195 26.3601 52.9309 25.9123 52.8714 25.4921C52.6791 23.8639 52.5036 22.2274 52.2292 20.6075C52.0651 19.7809 51.8784 18.888 51.2474 18.266C50.6561 17.7021 49.7507 17.6468 48.9811 17.8292C48.2738 17.9813 47.6089 18.3932 47.2524 19.0207C46.7884 19.7975 46.7941 20.7401 46.961 21.5998C47.2524 23.1065 47.773 24.5577 48.3049 25.998C49.3574 28.7126 50.4241 31.4272 51.4794 34.1391C51.7425 34.833 52.1585 35.5489 52.8856 35.8613C53.5108 36.1184 54.2182 36.1156 54.8802 36.0217C55.4546 35.936 55.9497 35.5628 56.2355 35.079C56.7674 34.1944 56.9739 33.1743 57.288 32.204C57.9161 30.2247 58.5187 28.2289 59.3279 26.3104C59.3449 30.5344 59.3279 34.7611 59.3336 38.9851C54.7218 38.9879 50.1072 38.9851 45.4926 38.9879C45.3059 37.4177 45.17 35.8337 45.2549 34.2552C45.2747 32.7127 45.3398 31.1785 45.3228 29.6359C45.3709 27.3995 45.0738 25.1825 44.9437 22.9516C44.7966 21.2211 44.989 19.4795 44.8305 17.7491C46.1405 16.9474 47.507 16.2425 48.8255 15.4546C49.7111 14.9183 50.6617 14.4567 51.42 13.7435C51.8387 13.3454 52.1641 12.7372 51.9123 12.1678C51.3804 11.1117 49.9799 10.5395 48.851 11.004C47.9258 11.4186 47.3769 12.3226 46.5337 12.8478C45.4812 13.4836 44.4203 14.1083 43.3395 14.7027C42.5218 14.2853 41.5401 14.147 40.6573 14.418C40.1763 14.57 39.7321 14.8907 39.5397 15.3579C39.3134 15.872 39.5029 16.436 39.4011 16.964C39.336 17.2902 39.0757 17.5224 38.7928 17.6772C37.5988 18.3683 36.3935 19.0428 35.2024 19.7394C33.9773 20.4388 32.789 21.2433 31.4111 21.633C30.5736 21.8735 29.5919 22.15 29.1873 22.9848C28.7997 23.7975 29.258 24.7319 29.9059 25.2737C30.4633 25.7934 31.3149 25.904 32.0279 25.658C32.9587 25.3594 33.7255 24.7291 34.4979 24.1652C35.4599 23.4464 36.4444 22.7609 37.429 22.0725C37.9609 21.716 38.4957 21.3262 39.121 21.1354C39.5454 20.9806 40.0801 21.1603 40.2584 21.5805C40.6799 22.5038 40.5469 23.5487 40.5668 24.5328C40.5922 27.8169 40.2838 31.09 40.1678 34.3713C40.1593 35.9111 40.1452 37.4481 40.2188 38.9879C38.9965 38.9823 37.777 38.9989 36.5548 38.9768C36.5661 35.3444 36.5633 31.7092 36.5576 28.0768C34.2376 29.9815 31.9203 31.8944 29.6032 33.7991C27.2803 31.8972 24.9659 29.9842 22.6487 28.0823C22.6431 31.7147 22.6459 35.3527 22.6487 38.9851C15.1001 38.9906 7.5487 38.9879 0.00292969 38.9851C0.0114296 25.9952 0.0114296 13.0081 0.0114296 0.0182822V0.0182384Z" fill="white"/>
<path d="M24.134 0.0242814C26.3721 0.972481 28.5959 1.94 30.831 2.89094C31.1706 3.02915 31.3884 3.32771 31.643 3.571C30.9781 4.28422 30.2765 4.96423 29.6116 5.68019C27.7895 3.79215 25.942 1.92895 24.134 0.0242814ZM60.8274 -0.000610352C62.0524 0.718133 63.2804 1.43135 64.497 2.15836C64.4885 4.80388 64.4941 7.45218 64.4941 10.1005C63.1898 11.502 61.9704 12.9809 60.833 14.5179C60.8189 9.6803 60.8302 4.83982 60.8274 -0.000610352ZM61.1046 22.5983C62.1062 20.771 63.2266 18.999 64.4885 17.3321C64.4942 24.5499 64.4885 31.7677 64.4913 38.9828C63.2691 38.9856 62.0468 38.9856 60.8245 38.9828C60.8217 33.8051 60.8274 28.6246 60.8217 23.4442C60.7934 23.1373 60.9631 22.8637 61.1046 22.5982L61.1046 22.5983ZM24.1453 31.2231C25.1582 32.0442 26.1542 32.8928 27.1784 33.7C27.1982 35.461 27.1841 37.2219 27.1869 38.9856H24.1453C24.1453 36.3981 24.1425 33.8079 24.1453 31.2231ZM31.81 33.9074C32.8879 33.0172 33.9687 32.1299 35.0495 31.2425C35.041 31.9585 35.0608 32.6745 35.0354 33.3849C34.809 33.5591 34.5883 33.7332 34.3705 33.9129C33.5132 33.9157 32.6644 33.924 31.81 33.9074Z" fill="white"/>
</g>
<defs>
<clipPath id="clip0_794_693">
<rect width="64.5" height="39" fill="white"/>
</clipPath>
</defs>
</svg>
