<svg width="72" height="26" viewBox="0 0 72 26" fill="none" xmlns="http://www.w3.org/2000/svg">
<path fill-rule="evenodd" clip-rule="evenodd" d="M9.22283 1.13076C4.53763 6.54521 0.0454112 13.2596 0.000365716 18.2784C-0.0171783 20.1667 0.59544 21.8152 2.06487 23.0639C4.17963 24.8621 6.50967 25.4963 8.82832 25.5C12.2167 25.5047 15.5813 24.1594 18.2158 23.1222C22.6525 21.3762 71.6966 0.417795 71.6966 0.417795C72.1698 0.184494 72.0811 -0.106198 71.4889 0.0389155C71.2499 0.0977074 18.0968 14.2726 18.0968 14.2726C17.09 14.5528 16.0496 14.6994 15.0033 14.7084C10.9184 14.7322 7.2835 12.5009 7.3129 7.79897C7.32428 5.95916 7.8966 3.74047 9.22283 1.13076Z" fill="white"/>
</svg>
