<svg width="150" height="49" viewBox="0 0 150 49" fill="none" xmlns="http://www.w3.org/2000/svg">
<g clip-path="url(#clip0_794_632)">
<path fill-rule="evenodd" clip-rule="evenodd" d="M65.758 7.20296L64.7925 7.26703C64.0916 5.29824 62.4782 4.52052 60.508 4.52052C58.737 4.52052 57.1211 5.94027 57.1211 7.74698C57.1211 13.1898 66.0064 9.83514 66.0064 16.8258C66.0064 20.154 63.0593 22.0826 59.9874 22.0826C58.2933 22.0826 56.2085 21.4519 55.3488 20.9179L55.0879 18.1438L56.0055 18.1023C56.4215 19.8123 58.2416 20.9782 59.9597 20.9782C61.9148 20.9782 63.4778 19.6892 63.4778 17.7028C63.4778 13.1621 54.5938 15.793 54.5938 9.06119C54.5938 5.62993 57.382 3.41614 60.6908 3.41614C62.4341 3.41614 64.2076 3.62721 65.758 4.37855V7.20296Z" fill="white"/>
<path fill-rule="evenodd" clip-rule="evenodd" d="M68.4517 21.2296C69.2445 21.1491 69.6277 20.6629 69.6277 19.9958V16.5783C69.6277 13.828 69.4651 10.937 69.4651 9.13786C69.4651 8.63278 69.0819 8.28853 68.4517 8.16791V7.71435H76.4849C77.0344 7.71435 77.7189 7.51206 78.0807 7.38391C78.0807 7.91035 78.0038 8.39783 78.0038 8.90291C78.0038 9.40924 78.0807 9.89547 78.0807 10.3968H77.3168C76.9727 9.42432 76.4874 8.6755 75.3706 8.6755H71.8071V14.0655H74.8676C76.0424 14.0655 76.4281 13.965 76.9159 12.9712H77.5714C77.5714 13.5592 77.4996 14.1459 77.4996 14.7264C77.4996 15.3332 77.5714 15.9212 77.5714 16.5117H76.8743C76.4281 15.1083 76.0424 15.0279 74.8676 15.0279H71.8071V20.7207H75.2521C76.7533 20.7207 77.3054 20.4757 78.2206 19.1967L78.8508 19.5221L78.1399 22.006C77.5096 21.7635 76.8743 21.6819 76.2264 21.6819H68.4517V21.2296Z" fill="white"/>
<path fill-rule="evenodd" clip-rule="evenodd" d="M83.9571 16.6977L85.9273 11.3617L87.9769 16.6977H83.9571ZM88.3437 17.6588L89.0559 19.5321C89.1983 19.9354 89.2992 20.2785 89.2992 20.5599C89.2992 21.0235 89.0559 21.3062 88.6298 21.3062V21.756C89.3193 21.756 89.9886 21.6856 90.6807 21.6856C91.3702 21.6856 92.042 21.756 92.7315 21.756V21.3062C92.0004 21.2245 91.8176 20.5599 91.1067 18.767L86.6571 7.38391H86.4164L82.0891 18.2845C81.7046 19.2507 80.9319 21.1441 80.1189 21.3062V21.756C80.7076 21.756 81.276 21.6856 81.8647 21.6856C82.4533 21.6856 83.0244 21.756 83.613 21.756V21.3062C83.1252 21.3062 82.8807 20.923 82.8807 20.4393C82.8807 20.2156 82.921 19.7746 83.0244 19.4304L83.5727 17.6588H88.3437Z" fill="white"/>
<path fill-rule="evenodd" clip-rule="evenodd" d="M97.5492 8.85266C97.5492 8.34884 97.7962 8.16792 98.7895 8.16792C101.043 8.16792 102.038 9.84271 102.038 11.9409C102.038 14.1836 101.144 15.6373 98.7088 15.6373C97.7735 15.6373 97.4685 15.4953 97.4685 14.8281L97.5492 8.85266ZM94.2139 8.08625C95.0067 8.28727 95.1882 8.79361 95.1882 9.64043C95.1882 11.2361 95.3092 13.0516 95.3092 15.1121V19.3022C95.3092 20.2533 95.2702 21.163 94.2555 21.3062V21.756C94.9664 21.756 95.6975 21.6844 96.4097 21.6844C97.1231 21.6844 97.8353 21.756 98.5462 21.756V21.3062C97.7534 21.124 97.4899 20.575 97.4899 19.7872V16.2856C98.0168 16.3258 98.5248 16.366 99.0315 16.366C101.774 16.366 104.521 14.8281 104.521 11.8216C104.521 8.91297 102.281 7.64148 99.3164 7.64148C98.463 7.64148 97.6336 7.71058 96.7765 7.71058C95.9219 7.71058 95.0672 7.64148 94.2139 7.64148V8.08625Z" fill="white"/>
<path fill-rule="evenodd" clip-rule="evenodd" d="M109.48 14.6987C109.48 11.3604 111.083 8.24322 114.532 8.24322C117.981 8.24322 119.584 11.3604 119.584 14.6987C119.584 18.0369 117.981 21.1541 114.532 21.1541C111.083 21.1541 109.48 18.0369 109.48 14.6987ZM106.661 14.6987C106.661 19.3713 109.844 22.0097 114.532 22.0097C119.22 22.0097 122.403 19.3713 122.403 14.6987C122.403 10.0248 119.22 7.38635 114.532 7.38635C109.844 7.38635 106.661 10.0248 106.661 14.6987Z" fill="white"/>
<path fill-rule="evenodd" clip-rule="evenodd" d="M128.085 8.93809C128.085 8.43176 128.651 8.3702 129.178 8.3702C131.381 8.3702 132.228 10.0324 132.228 11.8957C132.228 13.8205 130.632 15.0769 128.772 15.0769C128.53 15.0769 128.289 15.0367 127.984 15.0179L128.085 8.93809ZM124.791 21.7572C125.522 21.7572 126.213 21.6844 126.947 21.6844C127.679 21.6844 128.387 21.7572 129.116 21.7572V21.3062C128.085 21.0838 127.984 20.477 127.984 19.6314V15.6348C128.471 15.6348 128.894 16.1599 129.198 16.5017L132.553 20.4179C132.799 20.6994 132.861 20.8828 132.861 21.0625C132.838 21.2032 132.779 21.2861 132.637 21.3062V21.7572C133.308 21.7572 133.982 21.6844 134.651 21.6844C135.32 21.6844 136.012 21.7572 136.682 21.7572V21.3062C136.135 21.2032 135.444 20.5373 135.137 20.1742L131.037 15.4551C132.838 15.0179 134.713 13.6999 134.713 11.6519C134.713 9.46453 132.92 7.64148 129.279 7.64148C127.76 7.64148 127.15 7.71058 126.538 7.71058C125.887 7.71058 125.216 7.64148 124.567 7.64148V8.09127C125.603 8.29356 125.704 8.79863 125.704 9.74722C125.704 11.466 125.805 13.2024 125.805 14.94V20.1327C125.805 20.8212 125.482 21.1441 124.791 21.3062V21.7572Z" fill="white"/>
<path fill-rule="evenodd" clip-rule="evenodd" d="M149.258 10.2347H148.496C148.292 9.04112 147.684 8.6755 146.527 8.6755H143.974C143.974 10.4169 143.873 12.6432 143.873 15.0719V19.3814C143.873 20.6365 144.257 21.0222 145.148 21.3062V21.756C144.358 21.756 143.588 21.6844 142.814 21.6844C142.039 21.6844 141.266 21.756 140.471 21.756V21.3062C141.408 21.0009 141.695 20.5574 141.695 19.3814V16.2052C141.695 13.2916 141.529 10.4169 141.49 8.6755H138.742C137.58 8.6755 136.97 9.04112 136.767 10.2347H136.005V7.38894C136.767 7.59248 137.56 7.71309 138.353 7.71309H147.339C147.908 7.71309 148.796 7.59248 149.258 7.38391V10.2347Z" fill="white"/>
<path fill-rule="evenodd" clip-rule="evenodd" d="M71.129 32.159L70.0588 32.193C69.2521 29.7681 66.7058 28.8145 64.471 28.8145C59.9483 28.8145 58.0764 32.4266 58.0764 36.76C58.0764 44.0334 63.3794 45.2722 65.5361 45.2722C67.6411 45.2722 69.5395 44.3688 70.6689 42.5634L71.4668 42.9001L70.6689 45.771C68.6042 46.1655 67.3046 46.3741 65.6155 46.3741C57.8697 46.3741 54.4727 41.6085 54.4727 36.9661C54.4727 31.6527 58.5958 27.7101 64.4193 27.7101C67.7987 27.7101 69.097 28.2893 70.9235 28.719L71.129 32.159Z" fill="white"/>
<path fill-rule="evenodd" clip-rule="evenodd" d="M77.4176 40.9904L79.3877 35.6557L81.4386 40.9904H77.4176ZM81.8054 41.9528L82.5138 43.8248C82.6575 44.2269 82.7609 44.5711 82.7609 44.8526C82.7609 45.3162 82.5138 45.5989 82.089 45.5989V46.0474C82.7798 46.0474 83.4504 45.9796 84.1398 45.9796C84.8306 45.9796 85.5012 46.0474 86.1919 46.0474V45.5989C85.4609 45.5185 85.2793 44.8526 84.5672 43.0584L80.1188 31.6779H79.8756L75.5495 42.576C75.1625 43.5421 74.3924 45.4368 73.5793 45.5989V46.0474C74.168 46.0474 74.7377 45.9796 75.3251 45.9796C75.9163 45.9796 76.4823 46.0474 77.0735 46.0474V45.5989C76.5831 45.5989 76.3424 45.2157 76.3424 44.7332C76.3424 44.5096 76.3814 44.0673 76.4823 43.7243L77.0319 41.9528H81.8054Z" fill="white"/>
<path fill-rule="evenodd" clip-rule="evenodd" d="M92.0268 33.1478C92.0268 32.6427 92.2688 32.4606 93.2659 32.4606C95.5184 32.4606 96.5154 34.1366 96.5154 36.2348C96.5154 38.475 95.6217 39.9299 93.1839 39.9299C92.2486 39.9299 91.9436 39.7879 91.9436 39.1233L92.0268 33.1478ZM88.689 32.3789C89.4818 32.5812 89.6659 33.0862 89.6659 33.9356C89.6659 35.5275 89.7869 37.3467 89.7869 39.4047V43.5936C89.7869 44.546 89.7453 45.4569 88.7306 45.5988V46.0474C89.4402 46.0474 90.1738 45.9795 90.8848 45.9795C91.5995 45.9795 92.3104 46.0474 93.0213 46.0474V45.5988C92.2297 45.4167 91.9663 44.8701 91.9663 44.0798V40.5782C92.4919 40.6172 92.9999 40.6586 93.5091 40.6586C96.2495 40.6586 98.9974 39.1233 98.9974 36.1142C98.9974 33.2069 96.7587 31.9329 93.7927 31.9329C92.9406 31.9329 92.1062 32.0045 91.2516 32.0045C90.3969 32.0045 89.5436 31.9329 88.689 31.9329V32.3789Z" fill="white"/>
<path fill-rule="evenodd" clip-rule="evenodd" d="M106.238 32.3839C105.487 32.507 105.406 33.0322 105.406 33.7396C105.406 35.6996 105.324 38.083 105.324 40.2252V44.1439C105.324 44.8111 105.548 45.5762 106.319 45.5988V46.0474C105.629 46.0474 104.918 45.977 104.224 45.977C103.513 45.977 102.821 46.0474 102.129 46.0474V45.5988C102.779 45.5762 103.146 45.0121 103.146 44.1439V41.2328C103.146 38.8092 102.963 35.2536 102.963 33.9821C102.963 33.1528 102.882 32.4844 102.051 32.3839V31.9329C102.739 31.9329 103.431 32.0045 104.143 32.0045C104.835 32.0045 105.548 31.9329 106.238 31.9329V32.3839Z" fill="white"/>
<path fill-rule="evenodd" clip-rule="evenodd" d="M122.307 34.5274H121.543C121.341 33.3338 120.734 32.9682 119.576 32.9682H117.02C117.02 34.7083 116.919 36.9359 116.919 39.3633V43.6753C116.919 44.9317 117.304 45.3137 118.197 45.5989V46.0474C117.407 46.0474 116.637 45.9796 115.861 45.9796C115.088 45.9796 114.313 46.0474 113.52 46.0474V45.5989C114.458 45.2948 114.744 44.8501 114.744 43.6753V40.4966C114.744 37.5842 114.579 34.7083 114.54 32.9682H111.789C110.629 32.9682 110.019 33.3338 109.815 34.5274H109.051V31.6829C109.815 31.8839 110.607 32.007 111.402 32.007H120.388C120.954 32.007 121.844 31.8839 122.307 31.6779V34.5274Z" fill="white"/>
<path fill-rule="evenodd" clip-rule="evenodd" d="M126.388 40.9904L128.361 35.6557L130.411 40.9904H126.388ZM130.777 41.9528L131.487 43.8248C131.629 44.2269 131.73 44.5711 131.73 44.8526C131.73 45.3162 131.487 45.5989 131.061 45.5989V46.0474C131.75 46.0474 132.422 45.9796 133.112 45.9796C133.801 45.9796 134.473 46.0474 135.163 46.0474V45.5989C134.432 45.5185 134.249 44.8526 133.538 43.0584L129.09 31.6779H128.848L124.52 42.576C124.136 43.5421 123.363 45.4368 122.55 45.5989V46.0474C123.139 46.0474 123.707 45.9796 124.298 45.9796C124.887 45.9796 125.456 46.0474 126.044 46.0474V45.5989C125.556 45.5989 125.313 45.2157 125.313 44.7332C125.313 44.5096 125.352 44.0673 125.456 43.7243L126.004 41.9528H130.777Z" fill="white"/>
<path fill-rule="evenodd" clip-rule="evenodd" d="M137.671 45.6215C138.461 45.6215 139.013 45.0536 139.013 44.3475V34.1052C139.013 33.1139 138.503 32.5875 137.73 32.3839V31.9329C138.503 31.9329 139.254 32.0045 140.029 32.0045C140.803 32.0045 141.576 31.9329 142.346 31.9329V32.3839C141.514 32.6076 141.251 33.0938 141.251 34.1655C141.251 34.7749 141.189 36.0677 141.189 37.8882V44.8915C141.638 44.9757 142.023 45.0146 143.343 45.0146C146.837 45.0146 147.468 44.3864 147.974 43.091L148.705 43.4541L147.832 46.3012C147.181 46.0549 146.532 45.977 145.882 45.977H139.215C138.708 45.977 138.179 46.0549 137.671 46.0549V45.6215Z" fill="white"/>
<path fill-rule="evenodd" clip-rule="evenodd" d="M30.7714 8.21313C30.6365 8.30611 17.9168 17.0281 1.73315 19.1753L1.88946 20.3488C10.5037 19.2067 18.2924 16.0996 23.3079 13.6949C28.7432 11.0891 30.7374 9.60901 30.7714 9.58513V8.21313Z" fill="white"/>
<path fill-rule="evenodd" clip-rule="evenodd" d="M30.7714 11.3529C30.6365 11.4459 17.9168 20.1666 1.73315 22.3138L1.88946 23.4886C10.5037 22.3465 18.2924 19.2394 23.3079 16.8346C28.7432 14.2288 30.7374 12.7488 30.7714 12.7236V11.3529Z" fill="white"/>
<path fill-rule="evenodd" clip-rule="evenodd" d="M42.2068 24.079V6.2468H38.7001V8.69177C40.0526 8.57869 40.011 10.1253 40.011 10.1253L40.0123 24.079H37.8681V4.62854H31.4396V24.079H25.7144L27.7652 26.122H31.4219V29.7216L34.8467 33.1352L34.0652 33.913H37.8681V26.122H46.2795V24.079H42.2068ZM35.637 8.57869V24.079H33.6581V8.57869C33.6581 8.57869 33.532 7.04839 34.6475 7.10744C35.8034 7.04839 35.637 8.57869 35.637 8.57869Z" fill="white"/>
<path fill-rule="evenodd" clip-rule="evenodd" d="M38.6155 32.9631H42.2079V26.6245H38.6155V32.9631Z" fill="white"/>
<path fill-rule="evenodd" clip-rule="evenodd" d="M22.6299 21.9733L33.8862 33.1918L31.8366 35.2334L22.6299 21.9733Z" fill="white"/>
<path fill-rule="evenodd" clip-rule="evenodd" d="M22.2417 23.545L29.7556 34.4746L27.8093 36.4145L22.2417 23.545Z" fill="white"/>
<path fill-rule="evenodd" clip-rule="evenodd" d="M25.9753 37.3317H1.76733V39.4663H23.477C23.477 39.4663 23.7631 39.4173 23.7543 39.7754V39.7829C23.7631 40.141 23.477 40.0945 23.477 40.0945H1.76733V43.4102H25.9753L29.148 39.4022L34.6148 35.1405L25.9753 37.3317ZM25.6703 39.803C25.369 39.803 25.1245 39.5568 25.1245 39.2578C25.1245 38.9562 25.369 38.7125 25.6703 38.7125C25.9741 38.7125 26.2173 38.9562 26.2173 39.2578C26.2173 39.5568 25.9741 39.803 25.6703 39.803ZM27.4388 39.2339C27.2068 39.2339 27.0203 39.0442 27.0203 38.8142C27.0203 38.5831 27.2068 38.3946 27.4388 38.3946C27.6694 38.3946 27.8598 38.5831 27.8598 38.8142C27.8598 39.0442 27.6694 39.2339 27.4388 39.2339Z" fill="white"/>
<path fill-rule="evenodd" clip-rule="evenodd" d="M20.2551 21.1806C20.2475 21.1806 20.2374 21.1806 20.2299 21.1806L14.1051 21.1743H13.1937C12.9593 21.1743 12.7538 21.0222 12.6845 20.7999C12.6152 20.5775 12.6971 20.3362 12.8912 20.2031C12.8912 20.2031 12.8912 20.2031 12.9114 20.1867C12.9328 20.1691 12.9643 20.144 13.0059 20.1076C13.0878 20.0347 13.1988 19.9241 13.3097 19.7797C13.5315 19.4907 13.737 19.0911 13.737 18.5861C13.737 18.3687 13.7004 18.1275 13.6021 17.8548C13.5429 17.6902 13.5681 17.5081 13.6689 17.3661C13.7673 17.2266 13.9324 17.1399 14.1051 17.1399L20.2525 17.1362C20.2639 17.1362 20.2765 17.1349 20.2891 17.1349C20.4441 17.1337 20.821 17.1814 21.1412 17.5106C21.4576 17.841 21.653 18.37 21.6504 19.1577C21.653 19.9493 21.4462 20.4858 21.116 20.8137C20.7908 21.1341 20.4215 21.1806 20.2639 21.1806C20.2601 21.1806 20.2576 21.1806 20.2551 21.1806ZM20.2324 20.1139L20.2551 20.1151C20.2551 20.1088 20.3004 20.1201 20.3622 20.0561C20.4265 19.9932 20.579 19.7847 20.5803 19.1577C20.5803 18.5283 20.4315 18.3122 20.371 18.2519C20.3118 18.1928 20.2891 18.2054 20.2891 18.2016L20.2639 18.2029L14.7845 18.2066C14.7996 18.336 14.8072 18.4629 14.8072 18.5861C14.7983 19.2118 14.6093 19.7193 14.3786 20.1088L20.2324 20.1139Z" fill="white"/>
<path fill-rule="evenodd" clip-rule="evenodd" d="M20.0596 17.2028H20.0395L14.8323 17.1977H14.0571C13.8227 17.1977 13.6172 17.047 13.5479 16.8233C13.476 16.601 13.5605 16.3585 13.7521 16.2265C13.7521 16.2265 13.7521 16.2265 13.7685 16.2152C13.7848 16.2027 13.8113 16.1813 13.8428 16.1512C13.9096 16.0921 14.0004 16.0016 14.0911 15.8848C14.2739 15.6486 14.439 15.3244 14.439 14.9174C14.439 14.7415 14.41 14.5467 14.3281 14.3218C14.2689 14.1585 14.2953 13.9763 14.3949 13.8356C14.4932 13.6936 14.6584 13.6082 14.8323 13.6082L20.0495 13.6057C20.0621 13.6057 20.0748 13.6057 20.0886 13.6057C20.2323 13.6019 20.5764 13.6484 20.8689 13.9487C21.1575 14.249 21.3277 14.7226 21.3252 15.4036C21.329 16.0883 21.1474 16.5695 20.8474 16.8673C20.5525 17.1601 20.2147 17.2028 20.0685 17.2028H20.0596ZM20.0395 16.1361L20.0571 16.1373C20.0647 16.1336 20.0735 16.1298 20.0937 16.111C20.129 16.077 20.2537 15.9237 20.2563 15.4036C20.2563 15.0141 20.1844 14.8181 20.1378 14.7415C20.0937 14.6724 20.0798 14.6736 20.076 14.6711L20.0685 14.6724L15.4979 14.6749C15.5054 14.7565 15.5092 14.8382 15.5092 14.9174C15.5016 15.4049 15.3718 15.8094 15.2016 16.1323L20.0395 16.1361Z" fill="white"/>
<path fill-rule="evenodd" clip-rule="evenodd" d="M5.16178 25.3129L1.76598 25.3066L1.29077 25.3054V21.0562H5.20212C5.21472 21.0562 5.22733 21.0549 5.24371 21.0549C5.39875 21.0549 5.79077 21.0901 6.15506 21.4143C6.51934 21.7409 6.77522 22.3151 6.77018 23.1833C6.77522 24.0565 6.50422 24.6395 6.12733 24.9624C5.7517 25.284 5.35464 25.3129 5.19959 25.3142C5.18447 25.3142 5.17312 25.3129 5.16178 25.3129ZM5.17943 24.3643L5.20212 24.3656C5.23615 24.3656 5.38237 24.353 5.50464 24.245C5.62943 24.1344 5.81472 23.8881 5.81976 23.1833C5.81472 22.4772 5.63321 22.2247 5.51724 22.1179C5.4038 22.0111 5.2727 22.0035 5.24371 22.0035L5.23867 22.0048H2.24245V24.3593L5.17943 24.3643Z" fill="white"/>
<path fill-rule="evenodd" clip-rule="evenodd" d="M18.702 12.0527L18.2873 13.475H17.1566L16.7268 12.0527H18.702Z" fill="white"/>
<path fill-rule="evenodd" clip-rule="evenodd" d="M23.477 33.3589C23.477 35.9358 21.7337 35.7925 21.7337 35.7925L9.66312 35.7837H7.86816C7.86816 35.7837 10.9967 33.9971 9.66312 30.9315L21.7337 30.9214C21.7337 30.9214 23.477 30.7795 23.477 33.3589Z" fill="white"/>
<path fill-rule="evenodd" clip-rule="evenodd" d="M22.6348 28.0116C22.6348 30.2002 21.2268 30.0821 21.2268 30.0821L11.4794 30.0733H10.0298C10.0298 30.0733 12.5571 28.5543 11.4794 25.9498L21.2268 25.9435C21.2268 25.9435 22.6348 25.8204 22.6348 28.0116Z" fill="white"/>
<path fill-rule="evenodd" clip-rule="evenodd" d="M21.7476 23.1832C21.7476 24.9359 20.6207 24.8392 20.6207 24.8392L12.8245 24.8329H11.6648C11.6648 24.8329 13.6854 23.618 12.8245 21.5348L20.6635 21.5311C20.6635 21.5311 21.7476 21.4318 21.7476 23.1832Z" fill="white"/>
<path fill-rule="evenodd" clip-rule="evenodd" d="M6.2812 30.9215C6.2812 30.9215 8.02448 30.782 8.02448 33.3589C8.02448 35.9358 6.2812 35.7926 6.2812 35.7926L1.76733 35.7838V30.9215H6.2812Z" fill="white"/>
<path fill-rule="evenodd" clip-rule="evenodd" d="M1.76733 30.0733L5.77448 30.0821C5.77448 30.0821 7.18246 30.2027 7.18246 28.0116C7.18246 25.8204 5.77448 25.9435 5.77448 25.9435H1.76733V30.0733Z" fill="white"/>
<path fill-rule="evenodd" clip-rule="evenodd" d="M1.7356 16.665L4.58686 16.67C4.58686 16.67 5.33938 16.7441 5.33938 15.4036C5.33938 14.063 4.61459 14.1396 4.61459 14.1396H1.76711L1.7356 16.665Z" fill="white"/>
<path fill-rule="evenodd" clip-rule="evenodd" d="M21.1159 19.1577C21.1159 20.7345 20.2323 20.6465 20.2323 20.6465L14.1049 20.6403H13.1936C13.1936 20.6403 14.7831 19.5472 14.1049 17.6739L20.2638 17.6701C20.2638 17.6701 21.1159 17.5809 21.1159 19.1577Z" fill="white"/>
<path fill-rule="evenodd" clip-rule="evenodd" d="M20.7907 15.4023C20.7907 16.7441 20.0395 16.67 20.0395 16.67L14.8311 16.665H14.0571C14.0571 16.665 15.4071 15.7352 14.8311 14.1409L20.0672 14.1383C20.0672 14.1383 20.7907 14.063 20.7907 15.4023Z" fill="white"/>
<path fill-rule="evenodd" clip-rule="evenodd" d="M1.76733 20.6416L4.77994 20.6478C4.77994 20.6478 5.66481 20.7345 5.66481 19.1577C5.66481 17.5797 4.81271 17.6701 4.81271 17.6701H1.76733V20.6416Z" fill="white"/>
<path fill-rule="evenodd" clip-rule="evenodd" d="M1.76733 24.8329L5.1707 24.8392C5.1707 24.8392 6.29506 24.9359 6.29506 23.1832C6.29506 21.4318 5.21229 21.5311 5.21229 21.5311H1.76733V24.8329Z" fill="white"/>
<path fill-rule="evenodd" clip-rule="evenodd" d="M39.4438 12.0239C39.1274 11.8178 38.7606 11.5678 38.4556 11.3567L38.4631 9.9646C38.7795 10.1857 39.1224 10.4257 39.4514 10.6393L39.4438 12.0239Z" fill="white"/>
<path fill-rule="evenodd" clip-rule="evenodd" d="M46.3035 12.0955C45.1249 11.4296 43.9476 10.7172 42.7854 9.95455V8.59009C43.9551 9.35775 45.1425 10.0752 46.3287 10.7461L46.3035 12.0955Z" fill="white"/>
<path fill-rule="evenodd" clip-rule="evenodd" d="M46.3035 16.0657C45.1249 15.3985 43.9476 14.6849 42.7854 13.9248V12.5603C43.9551 13.3267 45.1425 14.0454 46.3287 14.7138L46.3035 16.0657Z" fill="white"/>
<path fill-rule="evenodd" clip-rule="evenodd" d="M35.2146 9.37524C34.8969 9.58255 34.5314 9.83006 34.2251 10.0411L34.2327 11.4332C34.549 11.2134 34.8932 10.9734 35.2209 10.7598L35.2146 9.37524Z" fill="white"/>
<path fill-rule="evenodd" clip-rule="evenodd" d="M0.405762 48.5954H47.9936V1.16211H0.405762V48.5954ZM2.07089 46.9344H46.3272V2.82183H2.07089V46.9344Z" fill="white"/>
<path fill-rule="evenodd" clip-rule="evenodd" d="M0 49H48.3983V0.757568H0V49ZM0.810504 48.1883H47.5866V1.56544H0.810504V48.1883ZM1.66387 47.3415H46.7345V2.41729H1.66387V47.3415ZM2.47815 46.5286H45.9227V3.22767H2.47815V46.5286Z" fill="white"/>
</g>
<defs>
<clipPath id="clip0_794_632">
<rect width="150" height="49" fill="white"/>
</clipPath>
</defs>
</svg>
