<svg width="75" height="17" viewBox="0 0 75 17" fill="none" xmlns="http://www.w3.org/2000/svg">
<g clip-path="url(#clip0_794_698)">
<path d="M2.66776 0.90661C3.75959 0.233518 5.08374 0.000341619 6.36263 0.0426412C7.64152 0.0764808 8.95804 0.378923 9.99478 1.13503C10.8685 1.75842 11.4733 2.69482 11.7536 3.7042C11.9734 4.45078 12.0088 5.23227 11.9963 6.00423C10.7828 6.00529 9.56939 6.00476 8.35595 6.00476C8.36631 5.40041 8.34068 4.77173 8.0669 4.21708C7.86948 3.80096 7.51063 3.45727 7.06997 3.28807C6.59277 3.10407 6.05995 3.07235 5.55657 3.15536C5.09901 3.23256 4.65017 3.4964 4.46747 3.92521C4.27169 4.38628 4.28041 4.95944 4.588 5.37344C4.8356 5.70126 5.22499 5.89055 5.6122 6.0201C6.43189 6.28658 7.25267 6.55043 8.07236 6.81586C8.9744 7.10561 9.86717 7.47044 10.6225 8.03937C11.2878 8.53428 11.8038 9.22323 12.041 10.0063C12.3071 10.8824 12.311 11.8231 12.1315 12.7156C11.9205 13.7477 11.3326 14.7111 10.4638 15.3493C9.39106 16.1524 8.014 16.4728 6.6784 16.5003H6.12594C4.75434 16.448 3.3282 16.1609 2.21674 15.3371C1.42596 14.7629 0.865862 13.9206 0.587724 13.0064C0.415388 12.4634 0.342308 11.8966 0.311768 11.3308V10.5847C1.53176 10.5853 2.75229 10.5842 3.97228 10.5853C3.96683 11.0611 3.97719 11.5471 4.13534 12.0028C4.27932 12.4438 4.57 12.8457 4.97794 13.0915C5.48404 13.3998 6.10249 13.478 6.6893 13.4447C7.14305 13.4156 7.62079 13.2824 7.9382 12.9498C8.30578 12.5564 8.3554 11.9595 8.18852 11.4709C8.01019 10.975 7.49263 10.7095 7.01162 10.5472C6.07304 10.2506 5.12628 9.97775 4.18661 9.68377C3.27912 9.40036 2.38744 8.98794 1.70627 8.32701C1.08074 7.72953 0.695707 6.92319 0.554456 6.08778C0.393027 5.11647 0.439929 4.09705 0.78951 3.16752C1.13309 2.23852 1.80553 1.4306 2.66776 0.90661ZM26.8265 1.18156C27.8234 0.417521 29.1056 0.0785958 30.361 0.0426412C31.6388 0.00774404 32.9624 0.201793 34.081 0.832057C34.9121 1.29312 35.5846 2.00957 35.9876 2.8508C36.4708 3.82898 36.5848 4.93247 36.5515 6.00423C35.3391 6.00476 34.1268 6.00529 32.9144 6.00423C32.9221 5.47655 32.9073 4.93564 32.7186 4.43439C32.5698 4.02303 32.2911 3.64762 31.9011 3.42185C31.4256 3.14267 30.8469 3.07869 30.3021 3.12839C29.8669 3.17175 29.4159 3.34412 29.1568 3.70155C28.8716 4.10076 28.8247 4.64007 28.9894 5.09374C29.165 5.54951 29.622 5.82816 30.0747 5.98626C31.0422 6.30826 32.0162 6.6107 32.9837 6.93324C33.9948 7.28697 35.0026 7.7602 35.7405 8.53956C36.3273 9.15185 36.6698 9.95871 36.7675 10.7841C36.8858 11.7919 36.7773 12.8451 36.3306 13.7704C35.945 14.5789 35.2846 15.2536 34.49 15.6961C33.5514 16.2275 32.4618 16.4501 31.3858 16.5003H30.7133C29.5855 16.4586 28.437 16.2693 27.4329 15.7464C26.5734 15.3086 25.8617 14.6037 25.4445 13.7525C24.9488 12.7732 24.8413 11.6618 24.867 10.5853C26.0886 10.5847 27.3097 10.5842 28.5313 10.5853C28.522 11.122 28.5428 11.6755 28.7604 12.1779C28.9316 12.5919 29.249 12.9504 29.6569 13.1597C30.1527 13.4167 30.7313 13.4791 31.2854 13.4416C31.7468 13.4077 32.2338 13.2591 32.5387 12.9033C32.8659 12.5115 32.9052 11.951 32.7519 11.4836C32.591 11.0173 32.1231 10.746 31.6726 10.5842C31.1518 10.405 30.6195 10.2596 30.0938 10.0951C29.0303 9.76308 27.9167 9.50399 26.9781 8.89012C26.1879 8.39416 25.5678 7.64123 25.2853 6.76721C24.9875 5.84878 24.9526 4.85527 25.1342 3.91146C25.3425 2.84552 25.9397 1.84883 26.8265 1.18156ZM57.4216 0.272645C58.8467 0.272116 60.2717 0.270001 61.6968 0.273703C61.6946 2.0873 61.6968 3.90089 61.6962 5.71448C61.7033 6.82485 61.681 7.9368 61.7072 9.04557C63.1426 7.63065 64.6052 6.24111 66.051 4.83624C67.6249 3.3124 69.2016 1.7912 70.7744 0.266829C71.8276 1.29048 72.8823 2.31307 73.9381 3.3346C70.9986 6.17872 68.0591 9.02231 65.1173 11.8643C65.0268 11.9542 64.9319 12.0404 64.8348 12.1229C67.8654 12.1467 70.8982 12.1255 73.9299 12.1334C73.9294 13.514 73.9278 14.8951 73.9305 16.2762C68.4277 16.2783 62.9244 16.2777 57.4211 16.2762C57.4233 10.9417 57.4222 5.60715 57.4216 0.272645Z" fill="white"/>
<path d="M11.8611 0.34021C13.3255 0.339681 14.7898 0.339153 16.2535 0.34021C17.0421 1.81171 17.8302 3.28267 18.6193 4.75311C18.6286 4.7547 18.6466 4.75734 18.6553 4.75893C19.4456 3.28637 20.2353 1.81382 21.0239 0.340739C22.4277 0.338624 23.8314 0.340739 25.2352 0.339681C23.7322 2.88611 22.2166 5.42515 20.719 7.97475C22.3344 10.7126 23.9372 13.4578 25.5472 16.1988C24.0818 16.1973 22.6163 16.2031 21.1515 16.1957C20.2478 14.5777 19.3381 12.9629 18.4323 11.3466C17.5384 12.9624 16.6517 14.5825 15.7589 16.1988C14.3469 16.1988 12.9355 16.1994 11.5236 16.1988C13.1319 13.4959 14.7434 10.7951 16.3512 8.09213C14.8552 5.50763 13.3571 2.92471 11.8611 0.34021ZM36.9775 0.34021C38.3371 0.339681 39.6973 0.339153 41.0569 0.340739C41.6284 3.73105 42.194 7.12294 42.7688 10.5127L42.789 10.5392C42.8097 10.5344 42.8506 10.5244 42.8708 10.5196C43.3927 7.12665 43.9075 3.73316 44.4284 0.339681H48.1696C48.6893 3.73792 49.2074 7.13563 49.7272 10.5333L49.8248 10.5291C50.4023 7.13352 50.9673 3.73581 51.5405 0.34021C52.8139 0.34021 54.0868 0.339153 55.3603 0.34021C54.3393 5.6266 53.3189 10.913 52.2964 16.1988C50.7813 16.1994 49.2663 16.1994 47.7513 16.1988C47.2392 12.8091 46.7298 9.41875 46.2188 6.02844L46.1212 6.03267C45.6047 9.42087 45.0992 12.8101 44.5871 16.1988C43.072 16.1994 41.5564 16.1988 40.0414 16.1994C39.0188 10.913 37.999 5.6266 36.9775 0.34021ZM54.1675 14.6316C54.5455 14.4677 55.0363 14.601 55.2539 14.9473C55.5124 15.3317 55.3908 15.9133 54.972 16.1417C54.5657 16.3876 53.9652 16.2396 53.752 15.8181C53.5169 15.402 53.704 14.8114 54.1675 14.6316ZM54.3262 14.7347C53.9069 14.832 53.698 15.3322 53.8725 15.7013C54.0121 16.0508 54.4735 16.2147 54.8182 16.0513C55.171 15.9038 55.3199 15.4634 55.1716 15.1292C55.0483 14.8119 54.6573 14.6385 54.3262 14.7347Z" fill="white"/>
<path d="M54.1501 14.9598C54.3579 14.9688 54.5722 14.9345 54.7756 14.9889C55.0019 15.0481 55.0145 15.4278 54.7674 15.4659C54.9474 15.5166 54.9136 15.7181 54.9485 15.8566C54.8656 15.8529 54.7843 15.8513 54.7031 15.8487C54.6791 15.7641 54.6845 15.6705 54.6431 15.5927C54.5733 15.533 54.4686 15.5668 54.3851 15.5573C54.3846 15.6551 54.384 15.753 54.3857 15.8508C54.3066 15.8513 54.2275 15.8518 54.1501 15.8518C54.1495 15.5547 54.1495 15.257 54.1501 14.9598ZM54.3857 15.147C54.3846 15.2247 54.3846 15.3019 54.3851 15.3802C54.4915 15.3717 54.6998 15.4151 54.7025 15.2596C54.6873 15.1111 54.4909 15.1571 54.3857 15.147Z" fill="white"/>
</g>
<defs>
<clipPath id="clip0_794_698">
<rect width="74.25" height="16.5" fill="white"/>
</clipPath>
</defs>
</svg>
