<svg width="150" height="73" viewBox="0 0 150 73" fill="none" xmlns="http://www.w3.org/2000/svg">
<path fill-rule="evenodd" clip-rule="evenodd" d="M42.0601 25.1809C46.6878 10.8888 57.5773 0.00012207 75.8164 0.00012207C92.6942 0.00012207 105.217 11.1614 109.709 25.4535C104.944 12.1139 91.6054 2.45029 75.8164 2.45029C60.1629 2.45029 46.9596 11.9784 42.0601 25.1809ZM109.573 46.9598C105.08 61.2519 92.1506 72.2761 75.8156 72.2761C58.5289 72.2761 46.8233 61.3882 42.1956 47.2324C47.0959 60.4349 60.2992 69.8275 75.8156 69.8275C91.4691 69.8267 104.81 60.2986 109.573 46.9598Z" fill="white"/>
<path fill-rule="evenodd" clip-rule="evenodd" d="M84.9357 24.5011C84.2542 24.7737 83.4388 24.5011 82.7573 25.0454C82.7573 24.9092 82.621 24.6374 82.3484 24.7737H82.0758C82.7573 24.2285 81.6685 23.6849 82.7573 23.6849C83.5751 23.6841 84.255 24.2285 84.9357 24.5011ZM149.999 41.7877V38.2488L149.045 39.0658H142.649V29.6732L143.464 28.5844H138.021L138.837 29.6732V40.8336L138.021 41.7877H149.999ZM128.084 37.0237H123.729L125.907 32.3952L128.084 37.0237ZM134.346 41.7877L127.948 28.5844H123.456L124.001 29.6732L118.011 41.7877H122.911L122.095 40.8344L122.775 39.4739H129.037L129.717 40.8344L128.764 41.7877H134.346ZM114.745 37.9762C114.745 35.7986 112.976 34.709 110.525 33.8928C109.028 33.3484 106.713 33.0758 106.713 31.9879C106.713 31.4435 107.394 31.1709 108.482 31.1709C109.845 31.1709 112.158 31.7153 114.063 32.5322V28.1763L112.976 29.1288C111.888 28.7207 109.982 28.3126 108.619 28.3126C104.127 28.3126 102.767 30.2176 102.767 31.9871C102.767 34.4372 104.264 35.526 106.849 36.4793C108.755 37.1608 110.525 37.1608 110.525 38.2488C110.525 39.2013 109.437 39.3368 108.891 39.3368C107.531 39.3368 104.944 38.7932 102.767 37.2963V42.1958L103.855 41.1062C104.808 41.5151 107.121 42.1958 109.027 42.1958C112.976 42.1966 114.745 40.4271 114.745 37.9762ZM93.5113 32.9403C93.5113 33.8928 92.5588 34.5735 91.3329 34.5735H88.7472V31.3064H91.741C92.6935 31.3064 93.5113 31.8508 93.5113 32.9403ZM98.0019 41.7877L94.463 36.6156C96.2324 35.9341 97.4583 34.5735 97.4583 32.6686C97.4583 30.3539 96.0961 28.5844 92.2862 28.5844H84.1179L84.9357 29.6732V40.8336L84.1179 41.7869H89.5626L88.7464 40.8336V37.0237H90.3796L92.9653 40.8336L92.1491 41.7869H98.0019V41.7877ZM79.0829 41.7877V38.2488L78.1304 39.0658H71.3243V36.4793H75.6802L76.6335 37.2963V33.0758L75.6802 33.8928H71.3243V31.3064H78.1304L79.0829 32.2597V28.5844H66.6965L67.5135 29.6732V40.8336L66.6965 41.7877H79.0829ZM63.4302 28.5844H58.6653L59.4823 29.6732L56.216 36.8874L52.9488 29.6732L53.9021 28.5844H48.3211L54.4465 41.7877H57.1684L63.4302 28.5844ZM44.9184 41.7877L44.1014 40.8336V29.6732L44.9184 28.5844H39.3374L40.1544 29.6732V40.8336L39.3374 41.7877H44.9184ZM34.1652 28.5844H29.5375L30.3537 29.6732V36.2067L23.5484 28.5844H19.465L20.2812 29.6732V40.8336L19.465 41.7877H24.0928L23.2766 40.8336V34.0291L30.3537 41.7877H33.3483V29.6732L34.1652 28.5844ZM14.9728 28.5844H9.39258L10.2096 29.6732V36.8882C10.2096 38.5214 9.12078 39.2013 7.4868 39.2013C5.85362 39.2013 4.76484 38.5214 4.76484 36.8882V29.6732L5.58183 28.5844H0L0.81699 29.6732V37.0237C0.81699 40.6989 2.85906 42.0595 7.4868 42.0595C11.979 42.0595 14.0203 40.6989 14.0203 37.0237V29.6732L14.9728 28.5844ZM86.5697 24.9092C86.4334 25.0455 86.2971 25.1809 86.0245 25.1809V24.6366C86.1608 24.6374 86.2971 24.7737 86.5697 24.9092ZM100.453 46.1421C100.18 45.7348 100.453 45.1896 100.453 45.1896H80.5797L82.7581 47.0954C83.3033 47.368 83.8477 47.7769 84.1187 48.5922C84.8002 50.3617 83.8477 48.8648 83.8477 51.586C83.8477 54.037 83.1662 53.6281 83.1662 53.6281C83.1662 53.6281 83.0299 56.4855 81.533 58.255C80.5797 59.2083 81.2604 60.0245 81.2604 60.0245C81.2604 60.0245 80.9878 60.2971 80.4426 62.3392C80.3079 63.0207 81.2604 64.1086 81.9411 63.836C82.4847 63.565 80.5789 63.4287 82.7573 62.4755C83.5751 62.2029 82.8936 61.523 82.8936 61.523C82.8936 61.523 84.2542 61.3867 84.9357 59.3446C86.2963 59.6172 85.8882 58.7994 88.6109 58.1203C89.4271 57.984 89.5634 57.7114 89.4271 57.0307C89.2908 56.3508 90.3804 57.167 93.1024 54.3088C95.2807 52.1304 94.463 51.586 95.9614 50.7698C97.5946 49.952 97.7309 50.9061 98.2745 50.2246C99.5004 48.5914 99.0923 48.7277 99.6367 47.6389L99.9077 47.0938C99.9077 47.0962 100.725 46.4147 100.453 46.1421ZM67.3772 23.1397C66.561 22.0509 67.1054 20.5532 67.9224 19.0563C68.6031 18.1038 70.2363 17.5595 71.5969 18.1038C73.23 16.8788 73.6381 18.2401 74.9995 17.5595C76.7698 16.8788 75.8165 19.737 77.586 20.4177C78.2675 18.5119 75.9528 17.0143 77.4497 16.0618C78.5393 15.3811 79.3555 14.973 79.7643 14.156C80.4442 12.9309 80.5805 11.9776 81.1249 11.8413C82.2129 11.4332 81.9427 10.3444 81.9427 10.3444C81.9427 10.3444 83.167 10.7525 84.1195 9.80005C83.4396 9.39115 82.35 9.11936 82.6226 8.30237C83.0315 7.48538 85.3454 9.25485 86.1616 7.75798C84.6647 7.21358 83.1678 5.8522 82.35 5.44411C81.6701 6.1248 81.3975 5.8522 80.5805 5.30861C79.22 4.21982 79.22 5.17231 78.4038 4.49162C77.7223 5.8522 78.6764 5.7159 78.9474 5.9885C79.7652 6.94098 78.1312 5.17151 78.2675 7.62168C78.2675 8.16607 77.4497 8.30237 76.7706 6.94098C76.3617 6.26029 73.6389 6.39659 73.2308 5.7159C73.6389 5.03521 76.9069 2.31325 81.9427 2.99394C74.5922 -0.000623372 64.6552 3.13024 64.6552 4.21902C63.5665 4.89972 63.9746 5.5804 63.4302 5.7159C62.6132 6.1248 61.6607 8.71046 61.6607 8.71046C61.6607 8.71046 62.2051 8.98226 60.5719 10.888C59.2105 12.3857 58.8024 14.6988 58.8024 14.6988C58.8024 14.6988 59.7549 16.332 59.4831 18.2377C59.3476 19.7346 59.3476 18.6458 60.0283 19.5991C60.3001 20.2798 60.709 22.4574 60.9808 21.6404C61.3889 20.0072 60.1638 18.5103 60.3001 16.8763C60.4364 17.1489 60.8445 16.332 60.8445 17.0127C60.8445 19.0539 63.2947 22.7292 63.2947 22.7292C63.2947 22.7292 62.3422 23.6817 63.2947 23.6817L63.0229 24.2261C63.0229 24.2261 63.7036 24.2261 64.248 24.6349C64.6561 25.043 65.0649 25.4519 65.473 25.4519H72.5509C72.5509 25.4519 73.0953 23.2744 73.5034 23.0018C73.9123 22.5937 72.6872 23.0018 72.2792 22.5937C71.8703 22.1856 71.734 22.8663 71.4622 23.2744C71.3267 23.6825 71.0541 24.2269 70.5097 24.4995C69.9645 24.6358 68.7402 24.772 68.4676 24.772C68.195 24.772 67.3772 23.1397 67.3772 23.1397ZM76.6335 21.9146C76.7698 21.5065 77.4497 21.7783 77.9941 21.7783C78.5385 21.7783 78.403 22.7308 79.2184 22.5953C80.1716 22.3227 80.1716 23.4123 81.3967 23.276C82.621 23.276 81.1241 23.8204 81.1241 23.8204C81.1241 23.8204 80.3079 23.4115 79.8998 23.6841C79.6272 23.8204 79.8998 23.5478 79.491 23.276C78.8095 22.5953 78.9458 23.276 77.8578 22.3227C77.0408 21.642 76.2246 22.459 76.6335 21.9146Z" fill="white"/>
</svg>
