<svg width="47" height="15" viewBox="0 0 47 15" fill="none" xmlns="http://www.w3.org/2000/svg">
<g clip-path="url(#clip0_794_704)">
<path d="M30.287 0.0168457C26.9853 0.0168457 24.0348 1.71648 24.0348 4.85669C24.0348 8.45789 29.2677 8.7066 29.2677 10.5158C29.2677 11.2775 28.3887 11.9594 26.8874 11.9594C24.7569 11.9594 23.1645 11.0066 23.1645 11.0066L22.4831 14.1754C22.4831 14.1754 24.3175 14.9803 26.753 14.9803C30.3628 14.9803 33.2032 13.1971 33.2032 10.0033C33.2032 6.19796 27.9486 5.95661 27.9486 4.27745C27.9486 3.68064 28.6701 3.02683 30.1671 3.02683C31.8561 3.02683 33.2342 3.71979 33.2342 3.71979L33.901 0.659283C33.901 0.659283 32.4016 0.0168457 30.287 0.0168457ZM0.0798449 0.247849L-0.00012207 0.709811C-0.00012207 0.709811 1.38892 0.962265 2.63995 1.46592C4.25074 2.04341 4.36553 2.37963 4.6368 3.42384L7.59297 14.7421H11.5558L17.6609 0.247849H13.7071L9.78429 10.1025L8.18355 1.74921C8.03674 0.793207 7.29312 0.247849 6.3829 0.247849H0.0798449ZM19.2507 0.247849L16.1492 14.742H19.9194L23.0101 0.247803H19.2507V0.247849ZM40.2786 0.247849C39.3694 0.247849 38.8877 0.731261 38.5343 1.57599L33.0106 14.742H36.9644L37.7293 12.5476H42.5461L43.0113 14.742H46.4999L43.4564 0.247849H40.2786ZM40.7928 4.16373L41.9647 9.60265H38.825L40.7928 4.16373Z" fill="white"/>
</g>
<defs>
<clipPath id="clip0_794_704">
<rect width="46.5" height="15" fill="white"/>
</clipPath>
</defs>
</svg>
