<svg width="168" height="41" viewBox="0 0 168 41" fill="none" xmlns="http://www.w3.org/2000/svg">
<path fill-rule="evenodd" clip-rule="evenodd" d="M167.603 25.7015C167.106 27.3916 165.417 28.8809 163.727 29.1801C161.938 29.4783 159.95 29.5777 158.361 28.8818C157.665 28.8818 157.267 29.5787 156.67 29.4793L156.172 28.7824L155.278 25.2035C155.278 24.9062 155.576 24.608 155.775 24.5086C157.069 24.608 157.267 25.9988 158.26 26.5963C159.553 27.5894 161.639 27.8886 163.131 27.1918C164.026 26.6947 164.522 25.8994 164.522 25.0057C163.927 21.5272 159.95 20.3342 157.665 18.2475C156.274 17.2533 155.479 15.8615 155.479 14.2719C155.578 12.7807 156.173 11.2905 157.566 10.4951C159.454 9.4016 162.038 9.69984 164.026 10.1969C164.721 10.2963 165.019 9.50101 165.716 9.79925C166.213 10.0975 166.511 12.4825 166.809 13.8742C166.809 14.1725 166.411 14.3713 166.213 14.3713C165.516 14.2719 164.921 12.8801 164.027 12.2846C163.132 11.7875 162.337 11.2904 161.244 11.3899C160.448 11.4893 159.753 11.7875 159.356 12.4834C159.057 12.9805 159.057 13.577 159.156 14.1734C160.746 16.7572 163.827 17.8508 166.013 20.0369C167.504 21.4277 168.001 23.6148 167.603 25.7015Z" fill="white"/>
<path fill-rule="evenodd" clip-rule="evenodd" d="M154.187 14.1724C151.9 9.79916 146.732 9.60033 142.26 10.1968C140.768 10.495 139.178 10.5945 137.886 11.4892C137.093 12.881 139.279 12.2845 139.378 13.378L139.478 26.2979C139.378 26.6956 138.882 26.9948 138.385 26.9948C137.988 27.1926 137.887 27.4918 137.887 27.8895C138.285 28.485 139.379 28.7842 139.478 28.7842C143.554 29.6789 148.721 30.2745 152.2 27.7891C156.074 24.6079 156.274 18.3458 154.187 14.1724ZM150.808 23.912C150.41 25.0056 149.813 26.1985 148.82 26.9938C147.527 27.987 145.341 27.987 143.85 27.2911C143.057 26.1001 143.454 24.41 143.353 23.0183V13.4774C143.353 12.9804 143.553 12.3839 144.05 12.1851C145.441 11.3898 147.33 11.688 148.622 12.4833C151.801 15.265 151.702 20.1353 150.808 23.912ZM84.1189 29.18L83.5225 29.5776H70.8004C70.4028 29.5776 70.2039 28.9802 70.4028 28.5825C70.8004 27.8876 72.0918 28.3847 72.1913 27.3915V12.9794C72.0918 11.7865 70.0051 12.5818 70.6016 11.0906L71.0987 10.8917H83.1248C83.9201 11.0906 84.0195 12.6812 84.5166 13.5759C84.5166 13.8741 84.3178 14.073 84.1189 14.1724C83.2242 14.1724 82.8266 12.88 82.0322 12.5818C80.6404 12.4824 78.4543 12.4824 76.7643 12.5818C75.7701 13.2777 76.2672 14.7679 76.1678 15.8615C76.2672 16.5573 75.8695 17.5515 76.7643 17.8497L80.4416 17.9491C80.7398 17.9491 80.9387 18.3468 81.0381 18.5456C81.1375 19.1421 80.9387 19.5397 80.4416 19.7386L76.7643 19.9374C75.969 20.4345 76.1678 21.4286 76.0684 22.2229C76.0684 23.8136 76.0684 25.7024 76.3666 27.2911C77.2613 28.3856 81.733 27.7882 82.1307 27.6888C83.423 27.5894 83.6219 25.5026 85.0136 25.9003C85.3109 26.1985 85.2115 26.6956 85.1131 26.9948L84.1189 29.18Z" fill="white"/>
<path fill-rule="evenodd" clip-rule="evenodd" d="M68.9134 29.5777H59.472C59.0743 29.4783 58.5773 29.3779 58.4779 28.9803C58.279 28.3848 58.8755 28.0856 59.2732 27.9871C59.6708 27.9871 59.9691 27.6889 60.0685 27.3916V12.6823C59.8696 11.6881 57.8823 12.2846 58.5773 10.8928C58.8755 10.4952 61.162 10.694 62.9505 10.694C63.9446 10.694 65.9319 10.4952 65.9319 11.0916C65.9319 11.4893 65.7331 11.887 65.4349 11.9864C64.8384 11.9864 64.2419 12.1852 64.0431 12.7817C64.1425 17.652 64.1425 22.3225 64.1425 27.0934C64.3413 27.7883 65.2361 27.5904 65.8325 27.6889C67.622 27.9871 68.9134 26.8936 69.8081 25.6012C70.1063 25.4033 70.4046 25.3039 70.6034 25.4033C71.1999 25.801 70.8022 26.3965 70.7028 26.7942C70.2058 27.6879 70.1063 29.1801 68.9134 29.5777Z" fill="white"/>
<path fill-rule="evenodd" clip-rule="evenodd" d="M54.2051 28.6828C50.9254 29.8739 46.4528 29.9752 43.6702 27.4899C40.2911 24.409 39.794 19.141 41.2843 15.0661C42.2784 11.9842 45.6575 10.494 48.1419 9.10222C48.2413 8.90339 47.943 8.80398 47.8436 8.80398C45.7559 9.10222 44.2657 6.81572 42.2784 8.30691C41.7813 8.60515 41.3837 9.30104 40.6878 9.0028C40.2901 8.60515 40.4889 8.00867 40.6878 7.61102C41.3837 6.31864 42.676 5.32452 44.0669 5.02628C46.4518 4.52921 48.2413 5.92099 50.2286 6.7163C50.5268 6.7163 51.1233 6.81571 51.3221 6.51747C50.7256 5.82158 49.8309 5.62276 49.136 5.02628C47.446 3.53508 45.1604 2.44249 42.9743 3.33721C41.8807 3.93369 40.7881 4.82841 40.2911 6.02041C39.9928 6.21924 39.5952 6.31865 39.2969 6.21924C38.8993 5.72217 38.9987 4.92686 39.1975 4.4298C39.8934 2.83918 40.987 0.752462 42.8749 0.354809C46.254 -0.937564 48.9372 1.54777 51.2237 3.83332C52.1184 5.12569 54.1057 4.13155 54.8016 5.52334C55.0998 6.21923 54.7022 6.91512 54.2051 7.41219C50.9254 10.1948 45.5581 11.4872 44.8631 16.4559C44.3661 20.3321 44.4655 25.0026 48.0434 27.2882C49.4352 27.8856 51.2237 27.8856 52.6145 26.8905C55.7948 24.2073 55.3971 19.4374 54.7022 15.6606C54.3045 13.9706 53.0122 12.3809 51.4225 11.3868C51.2237 10.9892 51.5219 10.4921 51.9196 10.2933C54.5034 10.0944 56.8893 11.8839 58.0813 14.1694C59.8707 17.5485 59.8707 22.7161 57.5842 25.8964C56.7889 27.0922 55.4965 28.1848 54.2051 28.6828Z" fill="white"/>
<path fill-rule="evenodd" clip-rule="evenodd" d="M0.635599 10.3956H6.99614C7.29438 10.495 7.39475 10.8927 7.29438 11.1909C6.6979 11.5886 5.90259 11.3897 5.60435 12.185L5.80318 13.2786C7.19401 16.758 8.18814 20.4344 9.7778 23.7141C9.87721 23.9129 10.076 23.9129 10.1764 23.7141C11.0711 21.7258 11.767 19.5397 12.5614 17.3536C12.3625 15.5641 11.5672 13.9745 10.9708 12.3839C10.6725 11.3897 8.98249 11.8868 9.38014 10.6938L9.7778 10.3956H15.8411C16.0399 10.495 16.2387 10.6938 16.2387 10.9921C16.1393 11.8868 15.0457 11.3897 14.7475 12.2844L14.8469 13.2776C16.1393 16.7571 16.9336 20.3341 18.4248 23.6147C18.9219 23.6147 18.9219 23.0173 19.1207 22.719L22.0037 13.0788C22.2025 12.7806 22.0037 12.3829 21.7055 12.0847C21.2084 11.687 19.916 11.7864 20.3137 10.7923L20.7113 10.5935H29.9539C30.3516 10.5935 30.8486 10.6929 30.8486 11.0905C30.8486 12.1841 29.3574 11.5876 29.1596 12.5817C29.1596 14.0729 29.1596 15.762 29.259 17.2532L29.8555 17.6509C31.4461 17.5514 33.334 17.6509 34.9236 17.6509C35.6195 17.6509 35.3213 14.3712 35.4207 12.6821C35.2219 11.3897 33.2345 12.3839 33.7316 10.7933L34.1293 10.495H40.788C41.1857 10.6938 41.2851 11.1909 41.0863 11.5886C40.5892 11.9862 39.6955 11.7874 39.4966 12.5827V27.5903C39.7949 28.485 41.5833 27.8885 41.0863 29.2803L40.5892 29.5785L34.3281 29.4791C34.1293 29.4791 33.831 29.3788 33.7316 29.0796C33.6322 27.7872 35.3213 28.484 35.4207 27.3914V20.1352L34.9236 19.6382H29.5563L29.258 20.2346V27.5893C29.4568 28.5825 31.4442 27.8876 30.7492 29.2793L30.2521 29.5776H23.8916C23.494 29.3778 23.3945 28.8807 23.494 28.5825C23.8916 27.987 24.7863 28.2852 25.0846 27.6878L25.184 26.1975V12.88C25.1859 12.7775 25.1589 12.6766 25.1062 12.5887C25.0534 12.5008 24.9771 12.4295 24.8857 12.3829C24.2893 12.4823 24.2893 13.1782 24.0904 13.5759C22.4998 18.5446 20.9102 23.6137 19.3196 28.6829C19.1207 29.0786 18.8225 29.3778 18.4248 29.5776C17.9278 29.5776 17.3313 29.5776 16.8342 28.8807C15.5419 26.3954 15.2436 23.8116 14.0516 21.3272C14.0516 21.3272 13.7534 20.8302 13.5545 21.1284C12.461 23.6137 11.7661 26.2969 10.7719 28.7813C10.3743 29.4782 9.57897 29.5766 8.98249 29.4782C7.8899 29.3778 7.49129 27.4899 6.99423 26.1975L6.09951 23.8116L1.9251 12.2835C1.62686 11.1899 -0.559271 11.7864 0.135666 10.5935C0.33736 10.2962 0.437729 10.3956 0.635599 10.3956ZM136.893 14.2718C135.005 10.8927 131.228 9.69971 127.551 10.0974C124.372 10.2962 121.39 12.9794 120.296 15.8614H120.098C119.203 13.9726 117.712 11.9853 115.724 10.9911C112.245 9.40051 107.377 9.69875 104.494 12.5817H104.096C103.599 11.8858 103.599 10.7933 102.705 10.4941C98.8291 10.5935 95.2522 10.4941 91.3741 10.4941C90.877 10.4941 90.877 10.9911 90.877 11.2894C91.0768 11.7864 91.4745 11.7864 91.8721 11.7864C92.2679 11.9853 92.5671 12.3829 92.5671 12.7806V27.7872C92.3692 28.0854 92.07 28.2852 91.6723 28.2852C91.3741 28.3846 90.877 28.6829 91.0768 29.0786C91.1762 29.3768 91.3741 29.4782 91.5739 29.5766H97.836C98.2317 29.4772 98.7307 29.2784 98.6294 28.6819C98.3321 28.1839 97.7346 28.2843 97.337 28.0845C96.7415 27.8866 96.642 27.2892 96.642 26.7921V19.9345L96.9393 19.5368C98.3321 19.4374 100.716 19.8351 101.213 18.9404C101.413 18.6421 101.413 18.0456 101.015 17.7474C99.8223 17.2503 98.1323 17.5486 96.7415 17.4492L96.4432 17.1509V13.0788C96.4432 12.6811 96.7415 12.3829 97.0407 12.1841C98.5309 11.9853 100.319 12.0847 101.712 12.3829C102.506 12.6811 103.004 13.5759 103.301 14.2718C102.705 15.3653 102.406 16.5573 102.208 17.7503C101.611 22.1235 103.004 26.3964 106.88 28.5825C110.158 30.0746 114.93 29.9752 117.613 27.4899C118.906 26.3954 119.402 24.9061 120.297 23.7132C120.994 24.8077 121.49 25.9987 122.483 26.9938C125.067 29.7754 129.54 29.9752 133.018 28.8817C134.31 28.2862 135.602 27.4909 136.496 26.1985C138.783 23.0173 138.981 17.6509 136.893 14.2718ZM115.824 24.2102C115.426 25.3047 114.73 26.5961 113.537 27.1917C112.244 27.987 110.157 27.7872 108.966 26.9938C105.587 24.1108 105.785 18.7444 107.077 14.8682C107.574 13.6753 108.667 12.4823 109.96 11.9853C111.55 11.5876 113.24 11.9853 114.332 13.1782C116.817 15.9608 116.817 20.6323 115.824 24.2102ZM134.01 22.3223C133.713 24.2102 132.917 26.1 131.129 27.1917C129.936 27.8885 128.046 27.7872 126.855 27.0923C123.375 24.5085 123.674 19.5388 124.568 15.6626C124.965 14.3702 125.958 12.7806 127.351 12.1841C128.742 11.5876 130.432 11.9853 131.625 12.7806C134.309 15.0671 134.408 18.8438 134.01 22.3223ZM162.635 31.3661L6.3012 31.4655C0.537142 32.0629 0.537142 40.1116 6.50003 40.4098H162.833C168.598 39.7149 168.598 31.7637 162.635 31.3661ZM24.2893 39.019L24.1899 38.7207C24.3887 38.6213 24.6869 38.6213 24.7863 38.3231V34.8446L24.5875 34.7452C23.991 35.4401 23.494 36.3358 22.9969 36.9313C22.301 36.4342 21.8039 35.4391 21.108 34.6457L20.9092 34.943V38.4215C21.0086 38.7198 21.5057 38.6213 21.5057 38.9196C21.0086 39.019 20.3127 39.019 19.9151 38.8192L20.2133 38.4215L20.1139 33.5522C20.0145 33.3543 20.1139 33.1545 19.9151 33.1545V32.9567C22.0028 32.2598 21.9024 34.8446 23.0954 35.6399L23.2942 35.5405C24.2883 34.7452 24.2883 31.9616 26.375 33.0551C26.375 33.3534 25.9774 33.1545 25.878 33.4528V38.4206C25.878 38.7188 26.375 38.7188 26.375 39.018L24.2893 39.019ZM51.1232 38.9196C50.4273 38.9196 49.2353 39.019 49.1359 38.9196C49.2353 38.6213 49.8318 38.5219 49.633 37.9245C49.4341 37.6272 49.5335 37.1292 48.9371 37.1292C48.2412 37.1292 47.247 36.7315 47.1486 37.826C47.0492 38.1243 47.1486 38.2237 47.0492 38.4215C47.248 38.6213 47.5462 38.5219 47.5462 38.8192C47.1486 39.1174 46.4527 39.019 45.9556 38.9196C45.8562 38.5219 46.2539 38.7198 46.3533 38.5219C47.1486 36.7315 47.6456 34.7452 48.3406 32.9567C48.44 32.6584 48.6388 32.8563 48.8376 32.7569C49.5335 34.6467 50.13 36.5336 50.8259 38.4215C50.9244 38.6213 51.7197 38.7198 51.1232 38.9196ZM76.5663 38.9196C74.4786 39.6145 74.4786 37.2295 73.5849 36.3358C73.2866 35.3407 74.7778 35.8378 74.6784 34.8436C74.6784 34.3466 74.7778 33.8504 74.3802 33.4528C74.0819 33.253 73.6843 32.9557 73.2876 33.253L72.9893 33.6507V38.3221C73.0888 38.7198 73.4864 38.5219 73.4864 38.8192C72.8052 39.019 72.0809 39.019 71.3997 38.8192C71.3003 38.4215 71.7973 38.7198 71.8967 38.3221C71.7973 36.7315 71.9962 35.2413 71.7973 33.6507C71.6979 33.3534 71.3003 33.5512 71.3997 33.253C72.4932 32.6575 73.9835 32.5581 75.1764 33.0551C75.7729 33.4528 75.9717 34.2481 75.7729 34.943C75.6735 35.5405 75.1764 35.7383 74.6794 36.0375C75.2758 37.0307 75.6735 38.2237 76.7661 38.8192L76.5663 38.9196ZM96.7415 38.7198C96.7415 38.4215 97.1391 38.5219 97.2385 38.3221C97.2385 36.6321 97.3379 34.7452 97.1391 33.253C97.1391 33.0551 96.642 33.1536 96.8409 32.8554H98.9286C98.8291 33.1536 98.333 33.3534 98.4315 33.7501V38.2237C98.5309 38.5219 98.9286 38.5219 98.9286 38.7207C98.3321 38.9196 97.4383 38.9196 96.7415 38.7198ZM102.208 38.8192C100.121 39.516 99.8223 36.7315 98.7297 35.7383C99.2268 34.8436 99.9208 34.2481 100.22 33.253L99.9217 32.9557C100.122 32.6575 101.512 32.6575 101.812 32.8554C100.818 33.3534 100.717 34.5454 99.9217 35.2413L99.7239 35.4391C100.619 36.4342 101.016 37.9245 102.209 38.6204L102.208 38.8192ZM127.254 38.2237L126.856 38.9205L126.756 39.0199H122.781C122.682 39.0199 122.583 38.8201 122.682 38.7217C122.781 38.4235 123.179 38.6223 123.277 38.324C123.277 36.7334 123.178 35.1447 123.277 33.5541C123.178 33.1565 122.482 33.4547 122.682 32.9586L122.88 32.8582H126.558C126.756 32.9586 126.856 33.4557 126.955 33.7529C127.055 33.8533 126.955 33.9527 126.856 33.9527C126.558 33.9527 126.458 33.5551 126.159 33.4557C125.762 33.3562 124.966 33.3562 124.469 33.4557C124.171 33.6535 124.269 34.1506 124.269 34.5482C124.269 34.748 124.17 35.0463 124.469 35.1457H125.662C125.762 35.2451 125.86 35.3436 125.86 35.443C125.86 35.5433 125.86 35.7412 125.662 35.8406H124.469C124.171 36.0404 124.269 36.3386 124.269 36.6359C124.17 37.133 124.269 37.7304 124.37 38.3259C124.568 38.6242 126.158 38.4254 126.258 38.4254C126.655 38.4254 126.755 37.7304 127.152 37.8298C127.254 37.9245 127.254 38.1243 127.254 38.2237ZM152.794 33.7501C152.497 33.253 151.801 32.8554 151.206 33.0551L150.907 33.4528V38.0229L151.007 38.1233C150.907 38.0229 150.907 37.9235 150.907 37.9235L151.105 38.1233L151.206 38.2227C151.305 38.2227 151.403 38.3221 151.503 38.3221C151.603 38.4215 151.603 38.4215 151.503 38.5219C151.503 38.8192 150.112 38.6213 149.417 38.6213C149.317 38.6213 149.119 38.6213 149.217 38.4215C149.417 38.3221 149.813 38.3221 149.813 37.9245V33.3543C149.615 32.8563 148.918 33.1545 148.622 33.1545L147.925 33.7501C147.727 33.4528 148.125 33.0551 148.125 32.7569L148.323 32.6575H152.497C152.596 32.9567 152.994 33.3543 152.794 33.7501Z" fill="white"/>
<path fill-rule="evenodd" clip-rule="evenodd" d="M48.44 36.5337H47.7441C47.943 35.8369 48.2412 34.5455 48.3406 34.446C48.44 34.5455 48.8377 35.8369 49.0365 36.5337H48.44Z" fill="white"/>
<path fill-rule="evenodd" clip-rule="evenodd" d="M166.708 29.2793H166.906C167.007 29.2793 167.205 29.3788 167.205 29.4791C167.205 29.677 167.007 29.677 166.807 29.677H166.708V29.2793ZM166.41 30.4723H166.708V29.8749H166.808L167.206 30.4723H167.504L167.106 29.8749C167.304 29.8749 167.404 29.7755 167.404 29.4791C167.404 29.2793 167.304 29.0796 167.007 29.0796H166.409L166.41 30.4723ZM165.715 29.7754C165.715 30.4723 166.212 30.9684 166.906 30.9684C167.504 30.9684 168.001 30.4713 168.001 29.7754C168.001 29.1799 167.504 28.6829 166.906 28.6829C166.212 28.6829 165.715 29.1799 165.715 29.7754ZM166.013 29.7754C166.013 29.2784 166.41 28.8807 166.907 28.8807C167.405 28.8807 167.804 29.2784 167.804 29.7754C167.804 30.3729 167.406 30.7705 166.907 30.7705C166.41 30.7705 166.013 30.3729 166.013 29.7754Z" fill="#2B2C2D"/>
</svg>
